<ttFont>
    <TTGlyph name="A" xMin="-6" yMin="0" xMax="561" yMax="724">
      <contour>
        <pt x="561" y="0" on="1"/>
        <pt x="464" y="0" on="1"/>
        <pt x="417" y="249" on="1"/>
        <pt x="190" y="249" on="1"/>
        <pt x="75" y="0" on="1"/>
        <pt x="-6" y="0" on="1"/>
        <pt x="332" y="724" on="1"/>
        <pt x="419" y="724" on="1"/>
      </contour>
      <contour>
        <pt x="404" y="316" on="1"/>
        <pt x="351" y="602" on="1"/>
        <pt x="221" y="316" on="1"/>
      </contour>
    </TTGlyph>
    <TTGlyph name="AE" xMin="-26" yMin="0" xMax="864" yMax="724">
      <contour>
        <pt x="864" y="724" on="1"/>
        <pt x="854" y="655" on="1"/>
        <pt x="561" y="655" on="1"/>
        <pt x="529" y="406" on="1"/>
        <pt x="770" y="406" on="1"/>
        <pt x="760" y="338" on="1"/>
        <pt x="518" y="338" on="1"/>
        <pt x="483" y="69" on="1"/>
        <pt x="778" y="69" on="1"/>
        <pt x="768" y="0" on="1"/>
        <pt x="384" y="0" on="1"/>
        <pt x="417" y="247" on="1"/>
        <pt x="218" y="247" on="1"/>
        <pt x="57" y="0" on="1"/>
        <pt x="-26" y="0" on="1"/>
        <pt x="400" y="660" on="1"/>
        <pt x="395" y="724" on="1"/>
      </contour>
      <contour>
        <pt x="469" y="637" on="1"/>
        <pt x="264" y="318" on="1"/>
        <pt x="427" y="318" on="1"/>
      </contour>
    </TTGlyph>
    <TTGlyph name="Aacute" xMin="-6" yMin="0" xMax="561" yMax="911">
      <component glyphName="acute" x="284" y="187" flags="0x4"/>
      <component glyphName="A" x="0" y="0" flags="0x4"/>
    </TTGlyph>
    <TTGlyph name="Acircumflex" xMin="-6" yMin="0" xMax="561" yMax="913">
      <component glyphName="circumflex" x="248" y="189" flags="0x4"/>
      <component glyphName="A" x="0" y="0" flags="0x4"/>
    </TTGlyph>
    <TTGlyph name="Adieresis" xMin="-6" yMin="0" xMax="561" yMax="872">
      <component glyphName="dieresis" x="239" y="191" flags="0x4"/>
      <component glyphName="A" x="0" y="0" flags="0x4"/>
    </TTGlyph>
    <TTGlyph name="Agrave" xMin="-6" yMin="0" xMax="561" yMax="910">
      <component glyphName="grave" x="166" y="186" flags="0x4"/>
      <component glyphName="A" x="0" y="0" flags="0x4"/>
    </TTGlyph>
    <TTGlyph name="Aring" xMin="-6" yMin="0" xMax="561" yMax="904">
      <component glyphName="ring" x="239" y="154" flags="0x4"/>
      <component glyphName="A" x="0" y="0" flags="0x4"/>
    </TTGlyph>
    <TTGlyph name="Atilde" xMin="-6" yMin="0" xMax="561" yMax="864">
      <component glyphName="tilde" x="240" y="181" flags="0x4"/>
      <component glyphName="A" x="0" y="0" flags="0x4"/>
    </TTGlyph>
    <TTGlyph name="B" xMin="45" yMin="0" xMax="550" yMax="724">
      <contour>
        <pt x="550" y="574" on="1"/>
        <pt x="550" y="508" on="0"/>
        <pt x="469" y="413" on="0"/>
        <pt x="404" y="395" on="1"/>
        <pt x="465" y="379" on="0"/>
        <pt x="534" y="299" on="0"/>
        <pt x="534" y="235" on="1"/>
        <pt x="534" y="0" on="0"/>
        <pt x="234" y="0" on="1"/>
        <pt x="45" y="0" on="1"/>
        <pt x="134" y="659" on="1"/>
        <pt x="134" y="724" on="1"/>
        <pt x="356" y="724" on="1"/>
        <pt x="550" y="724" on="0"/>
      </contour>
      <contour>
        <pt x="456" y="570" on="1"/>
        <pt x="456" y="655" on="0"/>
        <pt x="345" y="655" on="1"/>
        <pt x="223" y="655" on="1"/>
        <pt x="193" y="427" on="1"/>
        <pt x="292" y="427" on="1"/>
        <pt x="368" y="427" on="0"/>
        <pt x="456" y="498" on="0"/>
      </contour>
      <contour>
        <pt x="441" y="241" on="1"/>
        <pt x="441" y="300" on="0"/>
        <pt x="353" y="355" on="0"/>
        <pt x="288" y="355" on="1"/>
        <pt x="182" y="355" on="1"/>
        <pt x="145" y="69" on="1"/>
        <pt x="248" y="69" on="1"/>
        <pt x="338" y="69" on="0"/>
        <pt x="441" y="153" on="0"/>
      </contour>
    </TTGlyph>
    <TTGlyph name="C" xMin="45" yMin="-10" xMax="620" yMax="734">
      <contour>
        <pt x="620" y="657" on="1"/>
        <pt x="564" y="599" on="1"/>
        <pt x="507" y="665" on="0"/>
        <pt x="413" y="665" on="1"/>
        <pt x="346" y="665" on="0"/>
        <pt x="238" y="595" on="0"/>
        <pt x="175" y="483" on="0"/>
        <pt x="142" y="355" on="0"/>
        <pt x="142" y="292" on="1"/>
        <pt x="142" y="191" on="0"/>
        <pt x="235" y="65" on="0"/>
        <pt x="333" y="65" on="1"/>
        <pt x="426" y="65" on="0"/>
        <pt x="510" y="127" on="1"/>
        <pt x="541" y="59" on="1"/>
        <pt x="444" y="-10" on="0"/>
        <pt x="322" y="-10" on="1"/>
        <pt x="189" y="-10" on="0"/>
        <pt x="45" y="164" on="0"/>
        <pt x="45" y="298" on="1"/>
        <pt x="45" y="381" on="0"/>
        <pt x="96" y="536" on="0"/>
        <pt x="189" y="659" on="0"/>
        <pt x="335" y="734" on="0"/>
        <pt x="423" y="734" on="1"/>
        <pt x="554" y="734" on="0"/>
      </contour>
    </TTGlyph>
    <TTGlyph name="Ccedilla" xMin="45" yMin="-218" xMax="620" yMax="734">
      <component glyphName="cedilla" x="155" y="0" flags="0x4"/>
      <component glyphName="C" x="0" y="0" flags="0x4"/>
    </TTGlyph>
    <TTGlyph name="D" xMin="45" yMin="0" xMax="639" yMax="724">
      <contour>
        <pt x="639" y="434" on="1"/>
        <pt x="639" y="351" on="0"/>
        <pt x="594" y="199" on="0"/>
        <pt x="508" y="74" on="0"/>
        <pt x="365" y="0" on="0"/>
        <pt x="275" y="0" on="1"/>
        <pt x="45" y="0" on="1"/>
        <pt x="134" y="659" on="1"/>
        <pt x="134" y="724" on="1"/>
        <pt x="378" y="724" on="1"/>
        <pt x="508" y="724" on="0"/>
        <pt x="639" y="563" on="0"/>
      </contour>
      <contour>
        <pt x="545" y="430" on="1"/>
        <pt x="545" y="527" on="0"/>
        <pt x="462" y="655" on="0"/>
        <pt x="369" y="655" on="1"/>
        <pt x="223" y="655" on="1"/>
        <pt x="145" y="69" on="1"/>
        <pt x="281" y="69" on="1"/>
        <pt x="348" y="69" on="0"/>
        <pt x="453" y="138" on="0"/>
        <pt x="514" y="248" on="0"/>
        <pt x="545" y="370" on="0"/>
      </contour>
    </TTGlyph>
    <TTGlyph name="Delta" xMin="-22" yMin="0" xMax="557" yMax="723">
      <contour>
        <pt x="550" y="0" on="1"/>
        <pt x="-22" y="0" on="1"/>
        <pt x="-15" y="53" on="1"/>
        <pt x="23" y="128" on="0"/>
        <pt x="161" y="401" on="0"/>
        <pt x="273" y="624" on="0"/>
        <pt x="323" y="723" on="1"/>
        <pt x="398" y="723" on="1"/>
        <pt x="482" y="377" on="0"/>
        <pt x="557" y="53" on="1"/>
      </contour>
      <contour>
        <pt x="64" y="66" on="1"/>
        <pt x="449" y="66" on="1"/>
        <pt x="352" y="478" on="0"/>
        <pt x="348" y="496" on="1"/>
        <pt x="344" y="516" on="0"/>
        <pt x="333" y="592" on="0"/>
        <pt x="330" y="605" on="1"/>
      </contour>
    </TTGlyph>
    <TTGlyph name="E" xMin="45" yMin="0" xMax="544" yMax="724">
      <contour>
        <pt x="544" y="724" on="1"/>
        <pt x="534" y="655" on="1"/>
        <pt x="221" y="655" on="1"/>
        <pt x="189" y="405" on="1"/>
        <pt x="431" y="405" on="1"/>
        <pt x="421" y="337" on="1"/>
        <pt x="179" y="337" on="1"/>
        <pt x="143" y="69" on="1"/>
        <pt x="456" y="69" on="1"/>
        <pt x="447" y="0" on="1"/>
        <pt x="45" y="0" on="1"/>
        <pt x="133" y="659" on="1"/>
        <pt x="133" y="724" on="1"/>
      </contour>
    </TTGlyph>
    <TTGlyph name="Eacute" xMin="45" yMin="0" xMax="544" yMax="911">
      <component glyphName="acute" x="261" y="187" flags="0x4"/>
      <component glyphName="E" x="0" y="0" flags="0x4"/>
    </TTGlyph>
    <TTGlyph name="Ecircumflex" xMin="45" yMin="0" xMax="544" yMax="913">
      <component glyphName="circumflex" x="225" y="189" flags="0x4"/>
      <component glyphName="E" x="0" y="0" flags="0x4"/>
    </TTGlyph>
    <TTGlyph name="Edieresis" xMin="45" yMin="0" xMax="544" yMax="872">
      <component glyphName="dieresis" x="215" y="191" flags="0x4"/>
      <component glyphName="E" x="0" y="0" flags="0x4"/>
    </TTGlyph>
    <TTGlyph name="Egrave" xMin="45" yMin="0" xMax="544" yMax="910">
      <component glyphName="grave" x="147" y="186" flags="0x4"/>
      <component glyphName="E" x="0" y="0" flags="0x4"/>
    </TTGlyph>
    <TTGlyph name="Eth" xMin="12" yMin="0" xMax="639" yMax="724">
      <contour>
        <pt x="12" y="338" on="1"/>
        <pt x="22" y="402" on="1"/>
        <pt x="99" y="402" on="1"/>
        <pt x="134" y="659" on="1"/>
        <pt x="134" y="724" on="1"/>
        <pt x="378" y="724" on="1"/>
        <pt x="508" y="724" on="0"/>
        <pt x="639" y="563" on="0"/>
        <pt x="639" y="434" on="1"/>
        <pt x="639" y="351" on="0"/>
        <pt x="594" y="199" on="0"/>
        <pt x="508" y="74" on="0"/>
        <pt x="365" y="0" on="0"/>
        <pt x="275" y="0" on="1"/>
        <pt x="45" y="0" on="1"/>
        <pt x="90" y="338" on="1"/>
      </contour>
      <contour>
        <pt x="545" y="430" on="1"/>
        <pt x="545" y="527" on="0"/>
        <pt x="462" y="655" on="0"/>
        <pt x="369" y="655" on="1"/>
        <pt x="223" y="655" on="1"/>
        <pt x="189" y="402" on="1"/>
        <pt x="338" y="402" on="1"/>
        <pt x="328" y="338" on="1"/>
        <pt x="181" y="338" on="1"/>
        <pt x="145" y="69" on="1"/>
        <pt x="281" y="69" on="1"/>
        <pt x="348" y="69" on="0"/>
        <pt x="453" y="138" on="0"/>
        <pt x="514" y="248" on="0"/>
        <pt x="545" y="370" on="0"/>
      </contour>
    </TTGlyph>
    <TTGlyph name="Euro" xMin="23" yMin="-13" xMax="492" yMax="504">
      <contour>
        <pt x="492" y="453" on="1"/>
        <pt x="443" y="396" on="1"/>
        <pt x="416" y="422" on="0"/>
        <pt x="375" y="440" on="0"/>
        <pt x="342" y="440" on="1"/>
        <pt x="299" y="440" on="0"/>
        <pt x="224" y="371" on="0"/>
        <pt x="205" y="325" on="1"/>
        <pt x="401" y="325" on="1"/>
        <pt x="394" y="279" on="1"/>
        <pt x="191" y="279" on="1"/>
        <pt x="186" y="251" on="0"/>
        <pt x="184" y="217" on="1"/>
        <pt x="387" y="217" on="1"/>
        <pt x="380" y="170" on="1"/>
        <pt x="187" y="170" on="1"/>
        <pt x="194" y="124" on="0"/>
        <pt x="251" y="56" on="0"/>
        <pt x="294" y="56" on="1"/>
        <pt x="351" y="56" on="0"/>
        <pt x="414" y="100" on="1"/>
        <pt x="442" y="36" on="1"/>
        <pt x="395" y="9" on="0"/>
        <pt x="327" y="-13" on="0"/>
        <pt x="281" y="-13" on="1"/>
        <pt x="201" y="-13" on="0"/>
        <pt x="105" y="90" on="0"/>
        <pt x="98" y="170" on="1"/>
        <pt x="23" y="170" on="1"/>
        <pt x="30" y="217" on="1"/>
        <pt x="98" y="217" on="1"/>
        <pt x="101" y="246" on="0"/>
        <pt x="107" y="279" on="1"/>
        <pt x="38" y="279" on="1"/>
        <pt x="45" y="325" on="1"/>
        <pt x="120" y="325" on="1"/>
        <pt x="149" y="405" on="0"/>
        <pt x="278" y="504" on="0"/>
        <pt x="362" y="504" on="1"/>
        <pt x="436" y="504" on="0"/>
      </contour>
    </TTGlyph>
    <TTGlyph name="F" xMin="44" yMin="0" xMax="512" yMax="724">
      <contour>
        <pt x="512" y="724" on="1"/>
        <pt x="503" y="655" on="1"/>
        <pt x="221" y="655" on="1"/>
        <pt x="189" y="406" on="1"/>
        <pt x="412" y="406" on="1"/>
        <pt x="402" y="338" on="1"/>
        <pt x="179" y="338" on="1"/>
        <pt x="133" y="0" on="1"/>
        <pt x="44" y="0" on="1"/>
        <pt x="132" y="659" on="1"/>
        <pt x="132" y="724" on="1"/>
      </contour>
    </TTGlyph>
    <TTGlyph name="G" xMin="45" yMin="-10" xMax="640" yMax="734">
      <contour>
        <pt x="640" y="651" on="1"/>
        <pt x="583" y="592" on="1"/>
        <pt x="545" y="631" on="0"/>
        <pt x="467" y="665" on="0"/>
        <pt x="413" y="665" on="1"/>
        <pt x="344" y="665" on="0"/>
        <pt x="235" y="596" on="0"/>
        <pt x="172" y="485" on="0"/>
        <pt x="140" y="358" on="0"/>
        <pt x="140" y="292" on="1"/>
        <pt x="140" y="192" on="0"/>
        <pt x="228" y="65" on="0"/>
        <pt x="323" y="65" on="1"/>
        <pt x="397" y="65" on="0"/>
        <pt x="501" y="165" on="0"/>
        <pt x="511" y="240" on="1"/>
        <pt x="519" y="305" on="1"/>
        <pt x="350" y="305" on="1"/>
        <pt x="359" y="373" on="1"/>
        <pt x="619" y="373" on="1"/>
        <pt x="594" y="203" on="0"/>
        <pt x="576" y="0" on="1"/>
        <pt x="528" y="0" on="1"/>
        <pt x="509" y="75" on="1"/>
        <pt x="420" y="-10" on="0"/>
        <pt x="299" y="-10" on="1"/>
        <pt x="173" y="-10" on="0"/>
        <pt x="45" y="153" on="0"/>
        <pt x="45" y="281" on="1"/>
        <pt x="45" y="366" on="0"/>
        <pt x="94" y="525" on="0"/>
        <pt x="185" y="655" on="0"/>
        <pt x="332" y="734" on="0"/>
        <pt x="422" y="734" on="1"/>
        <pt x="481" y="734" on="0"/>
        <pt x="606" y="693" on="0"/>
      </contour>
    </TTGlyph>
    <TTGlyph name="H" xMin="44" yMin="0" xMax="656" yMax="724">
      <contour>
        <pt x="656" y="724" on="1"/>
        <pt x="558" y="0" on="1"/>
        <pt x="468" y="0" on="1"/>
        <pt x="514" y="342" on="1"/>
        <pt x="180" y="342" on="1"/>
        <pt x="134" y="0" on="1"/>
        <pt x="44" y="0" on="1"/>
        <pt x="133" y="659" on="1"/>
        <pt x="133" y="724" on="1"/>
        <pt x="232" y="724" on="1"/>
        <pt x="190" y="410" on="1"/>
        <pt x="524" y="410" on="1"/>
        <pt x="566" y="724" on="1"/>
      </contour>
    </TTGlyph>
    <TTGlyph name="I" xMin="47" yMin="0" xMax="235" yMax="724">
      <contour>
        <pt x="235" y="724" on="1"/>
        <pt x="137" y="0" on="1"/>
        <pt x="47" y="0" on="1"/>
        <pt x="136" y="659" on="1"/>
        <pt x="136" y="724" on="1"/>
      </contour>
    </TTGlyph>
    <TTGlyph name="Iacute" xMin="47" yMin="0" xMax="368" yMax="911">
      <component glyphName="acute" x="94" y="187" flags="0x4"/>
      <component glyphName="I" x="0" y="0" flags="0x4"/>
    </TTGlyph>
    <TTGlyph name="Icircumflex" xMin="47" yMin="0" xMax="327" yMax="913">
      <component glyphName="circumflex" x="61" y="189" flags="0x4"/>
      <component glyphName="I" x="0" y="0" flags="0x4"/>
    </TTGlyph>
    <TTGlyph name="Idieresis" xMin="47" yMin="0" xMax="329" yMax="873">
      <component glyphName="dieresis" x="51" y="192" flags="0x4"/>
      <component glyphName="I" x="0" y="0" flags="0x4"/>
    </TTGlyph>
    <TTGlyph name="Igrave" xMin="36" yMin="0" xMax="236" yMax="911">
      <component glyphName="grave" x="-14" y="187" flags="0x4"/>
      <component glyphName="I" x="0" y="0" flags="0x4"/>
    </TTGlyph>
    <TTGlyph name="J" xMin="-181" yMin="-229" xMax="238" yMax="724">
      <contour>
        <pt x="238" y="724" on="1"/>
        <pt x="139" y="9" on="1"/>
        <pt x="123" y="-106" on="0"/>
        <pt x="32" y="-229" on="0"/>
        <pt x="-67" y="-229" on="1"/>
        <pt x="-138" y="-229" on="0"/>
        <pt x="-181" y="-197" on="1"/>
        <pt x="-141" y="-140" on="1"/>
        <pt x="-106" y="-165" on="0"/>
        <pt x="-68" y="-165" on="1"/>
        <pt x="27" y="-165" on="0"/>
        <pt x="52" y="17" on="1"/>
        <pt x="140" y="660" on="1"/>
        <pt x="140" y="724" on="1"/>
      </contour>
    </TTGlyph>
    <TTGlyph name="K" xMin="44" yMin="0" xMax="598" yMax="724">
      <contour>
        <pt x="598" y="724" on="1"/>
        <pt x="281" y="401" on="1"/>
        <pt x="518" y="0" on="1"/>
        <pt x="407" y="0" on="1"/>
        <pt x="185" y="379" on="1"/>
        <pt x="134" y="0" on="1"/>
        <pt x="44" y="0" on="1"/>
        <pt x="133" y="659" on="1"/>
        <pt x="133" y="724" on="1"/>
        <pt x="232" y="724" on="1"/>
        <pt x="188" y="401" on="1"/>
        <pt x="504" y="724" on="1"/>
      </contour>
    </TTGlyph>
    <TTGlyph name="L" xMin="45" yMin="0" xMax="435" yMax="724">
      <contour>
        <pt x="435" y="69" on="1"/>
        <pt x="425" y="0" on="1"/>
        <pt x="45" y="0" on="1"/>
        <pt x="134" y="659" on="1"/>
        <pt x="134" y="724" on="1"/>
        <pt x="234" y="724" on="1"/>
        <pt x="146" y="69" on="1"/>
      </contour>
    </TTGlyph>
    <TTGlyph name="Lslash" xMin="4" yMin="0" xMax="435" yMax="724">
      <contour>
        <pt x="388" y="417" on="1"/>
        <pt x="180" y="322" on="1"/>
        <pt x="146" y="69" on="1"/>
        <pt x="435" y="69" on="1"/>
        <pt x="425" y="0" on="1"/>
        <pt x="45" y="0" on="1"/>
        <pt x="82" y="278" on="1"/>
        <pt x="4" y="242" on="1"/>
        <pt x="14" y="310" on="1"/>
        <pt x="91" y="345" on="1"/>
        <pt x="134" y="659" on="1"/>
        <pt x="134" y="724" on="1"/>
        <pt x="234" y="724" on="1"/>
        <pt x="189" y="390" on="1"/>
        <pt x="398" y="485" on="1"/>
      </contour>
    </TTGlyph>
    <TTGlyph name="M" xMin="44" yMin="-2" xMax="773" yMax="724">
      <contour>
        <pt x="773" y="724" on="1"/>
        <pt x="675" y="0" on="1"/>
        <pt x="585" y="0" on="1"/>
        <pt x="664" y="589" on="1"/>
        <pt x="378" y="-2" on="1"/>
        <pt x="325" y="-2" on="1"/>
        <pt x="197" y="590" on="1"/>
        <pt x="117" y="0" on="1"/>
        <pt x="44" y="0" on="1"/>
        <pt x="132" y="660" on="1"/>
        <pt x="132" y="724" on="1"/>
        <pt x="256" y="724" on="1"/>
        <pt x="381" y="161" on="1"/>
        <pt x="655" y="724" on="1"/>
      </contour>
    </TTGlyph>
    <TTGlyph name="N" xMin="45" yMin="-5" xMax="657" yMax="724">
      <contour>
        <pt x="657" y="724" on="1"/>
        <pt x="559" y="-5" on="1"/>
        <pt x="502" y="-5" on="1"/>
        <pt x="201" y="612" on="1"/>
        <pt x="119" y="0" on="1"/>
        <pt x="45" y="0" on="1"/>
        <pt x="134" y="659" on="1"/>
        <pt x="134" y="724" on="1"/>
        <pt x="248" y="724" on="1"/>
        <pt x="510" y="183" on="1"/>
        <pt x="584" y="724" on="1"/>
      </contour>
    </TTGlyph>
    <TTGlyph name="Ntilde" xMin="45" yMin="-5" xMax="657" yMax="865">
      <component glyphName="tilde" x="279" y="182" flags="0x4"/>
      <component glyphName="N" x="0" y="0" flags="0x4"/>
    </TTGlyph>
    <TTGlyph name="O" xMin="45" yMin="-10" xMax="668" yMax="734">
      <contour>
        <pt x="668" y="438" on="1"/>
        <pt x="668" y="353" on="0"/>
        <pt x="621" y="195" on="0"/>
        <pt x="533" y="67" on="0"/>
        <pt x="391" y="-10" on="0"/>
        <pt x="304" y="-10" on="1"/>
        <pt x="175" y="-10" on="0"/>
        <pt x="45" y="158" on="0"/>
        <pt x="45" y="289" on="1"/>
        <pt x="45" y="354" on="0"/>
        <pt x="73" y="480" on="0"/>
        <pt x="133" y="595" on="0"/>
        <pt x="217" y="682" on="0"/>
        <pt x="337" y="734" on="0"/>
        <pt x="407" y="734" on="1"/>
        <pt x="538" y="734" on="0"/>
        <pt x="668" y="570" on="0"/>
      </contour>
      <contour>
        <pt x="574" y="433" on="1"/>
        <pt x="574" y="533" on="0"/>
        <pt x="491" y="665" on="0"/>
        <pt x="398" y="665" on="1"/>
        <pt x="332" y="665" on="0"/>
        <pt x="228" y="594" on="0"/>
        <pt x="169" y="480" on="0"/>
        <pt x="140" y="354" on="0"/>
        <pt x="140" y="228" on="0"/>
        <pt x="170" y="129" on="0"/>
        <pt x="253" y="59" on="0"/>
        <pt x="317" y="59" on="1"/>
        <pt x="384" y="59" on="0"/>
        <pt x="487" y="130" on="0"/>
        <pt x="545" y="245" on="0"/>
        <pt x="574" y="370" on="0"/>
      </contour>
    </TTGlyph>
    <TTGlyph name="OE" xMin="45" yMin="-10" xMax="1019" yMax="734">
      <contour>
        <pt x="616" y="724" on="1"/>
        <pt x="1019" y="724" on="1"/>
        <pt x="1009" y="655" on="1"/>
        <pt x="696" y="655" on="1"/>
        <pt x="664" y="405" on="1"/>
        <pt x="906" y="405" on="1"/>
        <pt x="896" y="337" on="1"/>
        <pt x="654" y="337" on="1"/>
        <pt x="618" y="69" on="1"/>
        <pt x="931" y="69" on="1"/>
        <pt x="922" y="0" on="1"/>
        <pt x="520" y="0" on="1"/>
        <pt x="530" y="77" on="1"/>
        <pt x="437" y="-10" on="0"/>
        <pt x="304" y="-10" on="1"/>
        <pt x="175" y="-10" on="0"/>
        <pt x="45" y="158" on="0"/>
        <pt x="45" y="289" on="1"/>
        <pt x="45" y="354" on="0"/>
        <pt x="73" y="480" on="0"/>
        <pt x="133" y="595" on="0"/>
        <pt x="217" y="682" on="0"/>
        <pt x="337" y="734" on="0"/>
        <pt x="407" y="734" on="1"/>
        <pt x="538" y="734" on="0"/>
        <pt x="606" y="648" on="1"/>
      </contour>
      <contour>
        <pt x="574" y="433" on="1"/>
        <pt x="574" y="533" on="0"/>
        <pt x="491" y="665" on="0"/>
        <pt x="398" y="665" on="1"/>
        <pt x="332" y="665" on="0"/>
        <pt x="228" y="594" on="0"/>
        <pt x="169" y="480" on="0"/>
        <pt x="140" y="354" on="0"/>
        <pt x="140" y="228" on="0"/>
        <pt x="170" y="129" on="0"/>
        <pt x="253" y="59" on="0"/>
        <pt x="317" y="59" on="1"/>
        <pt x="384" y="59" on="0"/>
        <pt x="487" y="130" on="0"/>
        <pt x="545" y="245" on="0"/>
        <pt x="574" y="370" on="0"/>
      </contour>
    </TTGlyph>
    <TTGlyph name="Oacute" xMin="45" yMin="-10" xMax="668" yMax="910">
      <component glyphName="acute" x="330" y="186" flags="0x4"/>
      <component glyphName="O" x="0" y="0" flags="0x4"/>
    </TTGlyph>
    <TTGlyph name="Ocircumflex" xMin="45" yMin="-10" xMax="668" yMax="913">
      <component glyphName="circumflex" x="293" y="189" flags="0x4"/>
      <component glyphName="O" x="0" y="0" flags="0x4"/>
    </TTGlyph>
    <TTGlyph name="Odieresis" xMin="45" yMin="-10" xMax="668" yMax="873">
      <component glyphName="dieresis" x="274" y="192" flags="0x4"/>
      <component glyphName="O" x="0" y="0" flags="0x4"/>
    </TTGlyph>
    <TTGlyph name="Ograve" xMin="45" yMin="-10" xMax="668" yMax="910">
      <component glyphName="grave" x="214" y="186" flags="0x4"/>
      <component glyphName="O" x="0" y="0" flags="0x4"/>
    </TTGlyph>
    <TTGlyph name="Omega" xMin="4" yMin="0" xMax="687" yMax="735">
      <contour>
        <pt x="644" y="0" on="1"/>
        <pt x="397" y="0" on="1"/>
        <pt x="404" y="53" on="1"/>
        <pt x="468" y="77" on="0"/>
        <pt x="556" y="207" on="0"/>
        <pt x="591" y="350" on="0"/>
        <pt x="591" y="423" on="1"/>
        <pt x="591" y="528" on="0"/>
        <pt x="506" y="666" on="0"/>
        <pt x="413" y="666" on="1"/>
        <pt x="346" y="666" on="0"/>
        <pt x="240" y="588" on="0"/>
        <pt x="180" y="467" on="0"/>
        <pt x="150" y="336" on="0"/>
        <pt x="150" y="274" on="1"/>
        <pt x="150" y="195" on="0"/>
        <pt x="202" y="76" on="0"/>
        <pt x="257" y="53" on="1"/>
        <pt x="251" y="0" on="1"/>
        <pt x="4" y="0" on="1"/>
        <pt x="14" y="69" on="1"/>
        <pt x="83" y="69" on="1"/>
        <pt x="147" y="64" on="1"/>
        <pt x="105" y="99" on="0"/>
        <pt x="59" y="223" on="0"/>
        <pt x="59" y="297" on="1"/>
        <pt x="59" y="414" on="0"/>
        <pt x="147" y="612" on="0"/>
        <pt x="315" y="735" on="0"/>
        <pt x="423" y="735" on="1"/>
        <pt x="553" y="735" on="0"/>
        <pt x="687" y="569" on="0"/>
        <pt x="687" y="435" on="1"/>
        <pt x="687" y="324" on="0"/>
        <pt x="596" y="116" on="0"/>
        <pt x="520" y="64" on="1"/>
        <pt x="585" y="69" on="1"/>
        <pt x="654" y="69" on="1"/>
      </contour>
    </TTGlyph>
    <TTGlyph name="Oslash" xMin="38" yMin="-56" xMax="681" yMax="762">
      <contour>
        <pt x="681" y="436" on="1"/>
        <pt x="681" y="354" on="0"/>
        <pt x="634" y="198" on="0"/>
        <pt x="546" y="67" on="0"/>
        <pt x="403" y="-13" on="0"/>
        <pt x="316" y="-13" on="1"/>
        <pt x="219" y="-13" on="0"/>
        <pt x="156" y="39" on="1"/>
        <pt x="84" y="-56" on="1"/>
        <pt x="38" y="-23" on="1"/>
        <pt x="117" y="79" on="1"/>
        <pt x="57" y="156" on="0"/>
        <pt x="57" y="282" on="1"/>
        <pt x="57" y="346" on="0"/>
        <pt x="84" y="473" on="0"/>
        <pt x="143" y="590" on="0"/>
        <pt x="226" y="679" on="0"/>
        <pt x="346" y="733" on="0"/>
        <pt x="416" y="733" on="1"/>
        <pt x="509" y="733" on="0"/>
        <pt x="575" y="687" on="1"/>
        <pt x="632" y="762" on="1"/>
        <pt x="680" y="731" on="1"/>
        <pt x="616" y="647" on="1"/>
        <pt x="681" y="569" on="0"/>
      </contour>
      <contour>
        <pt x="524" y="621" on="1"/>
        <pt x="480" y="664" on="0"/>
        <pt x="410" y="664" on="1"/>
        <pt x="343" y="664" on="0"/>
        <pt x="239" y="591" on="0"/>
        <pt x="181" y="474" on="0"/>
        <pt x="152" y="347" on="0"/>
        <pt x="152" y="284" on="1"/>
        <pt x="152" y="210" on="0"/>
        <pt x="174" y="158" on="1"/>
      </contour>
      <contour>
        <pt x="587" y="433" on="1"/>
        <pt x="587" y="513" on="0"/>
        <pt x="560" y="571" on="1"/>
        <pt x="206" y="106" on="1"/>
        <pt x="253" y="55" on="0"/>
        <pt x="329" y="55" on="1"/>
        <pt x="396" y="55" on="0"/>
        <pt x="500" y="127" on="0"/>
        <pt x="558" y="243" on="0"/>
        <pt x="587" y="370" on="0"/>
      </contour>
    </TTGlyph>
    <TTGlyph name="Otilde" xMin="45" yMin="-10" xMax="668" yMax="866">
      <component glyphName="tilde" x="286" y="183" flags="0x4"/>
      <component glyphName="O" x="0" y="0" flags="0x4"/>
    </TTGlyph>
    <TTGlyph name="P" xMin="46" yMin="0" xMax="544" yMax="724">
      <contour>
        <pt x="544" y="543" on="1"/>
        <pt x="544" y="427" on="0"/>
        <pt x="397" y="286" on="0"/>
        <pt x="279" y="286" on="1"/>
        <pt x="175" y="286" on="1"/>
        <pt x="137" y="0" on="1"/>
        <pt x="46" y="0" on="1"/>
        <pt x="135" y="659" on="1"/>
        <pt x="135" y="724" on="1"/>
        <pt x="332" y="724" on="1"/>
        <pt x="428" y="724" on="0"/>
        <pt x="544" y="638" on="0"/>
      </contour>
      <contour>
        <pt x="450" y="532" on="1"/>
        <pt x="450" y="592" on="0"/>
        <pt x="384" y="655" on="0"/>
        <pt x="324" y="655" on="1"/>
        <pt x="225" y="655" on="1"/>
        <pt x="185" y="353" on="1"/>
        <pt x="285" y="353" on="1"/>
        <pt x="360" y="353" on="0"/>
        <pt x="450" y="456" on="0"/>
      </contour>
    </TTGlyph>
    <TTGlyph name="Q" xMin="45" yMin="-222" xMax="1084" yMax="734">
      <contour>
        <pt x="1084" y="-175" on="1"/>
        <pt x="1011" y="-200" on="0"/>
        <pt x="915" y="-222" on="0"/>
        <pt x="857" y="-222" on="1"/>
        <pt x="790" y="-222" on="0"/>
        <pt x="619" y="-161" on="0"/>
        <pt x="484" y="-87" on="0"/>
        <pt x="331" y="-17" on="0"/>
        <pt x="281" y="-11" on="1"/>
        <pt x="198" y="-1" on="0"/>
        <pt x="88" y="92" on="0"/>
        <pt x="45" y="213" on="0"/>
        <pt x="45" y="287" on="1"/>
        <pt x="45" y="369" on="0"/>
        <pt x="91" y="525" on="0"/>
        <pt x="178" y="655" on="0"/>
        <pt x="320" y="734" on="0"/>
        <pt x="407" y="734" on="1"/>
        <pt x="538" y="734" on="0"/>
        <pt x="668" y="568" on="0"/>
        <pt x="668" y="436" on="1"/>
        <pt x="668" y="305" on="0"/>
        <pt x="550" y="66" on="0"/>
        <pt x="439" y="15" on="1"/>
        <pt x="473" y="2" on="0"/>
        <pt x="493" y="-10" on="1"/>
        <pt x="757" y="-158" on="0"/>
        <pt x="899" y="-158" on="1"/>
        <pt x="964" y="-158" on="0"/>
        <pt x="1069" y="-128" on="1"/>
      </contour>
      <contour>
        <pt x="574" y="430" on="1"/>
        <pt x="574" y="531" on="0"/>
        <pt x="491" y="665" on="0"/>
        <pt x="398" y="665" on="1"/>
        <pt x="332" y="665" on="0"/>
        <pt x="228" y="593" on="0"/>
        <pt x="169" y="478" on="0"/>
        <pt x="140" y="352" on="0"/>
        <pt x="140" y="289" on="1"/>
        <pt x="140" y="242" on="0"/>
        <pt x="158" y="163" on="0"/>
        <pt x="197" y="95" on="0"/>
        <pt x="268" y="56" on="0"/>
        <pt x="317" y="56" on="1"/>
        <pt x="384" y="56" on="0"/>
        <pt x="487" y="127" on="0"/>
        <pt x="545" y="242" on="0"/>
        <pt x="574" y="367" on="0"/>
      </contour>
    </TTGlyph>
    <TTGlyph name="R" xMin="44" yMin="0" xMax="545" yMax="724">
      <contour>
        <pt x="545" y="556" on="1"/>
        <pt x="545" y="483" on="0"/>
        <pt x="457" y="364" on="0"/>
        <pt x="386" y="343" on="1"/>
        <pt x="534" y="0" on="1"/>
        <pt x="431" y="0" on="1"/>
        <pt x="296" y="326" on="1"/>
        <pt x="273" y="324" on="0"/>
        <pt x="206" y="324" on="1"/>
        <pt x="178" y="324" on="1"/>
        <pt x="135" y="0" on="1"/>
        <pt x="44" y="0" on="1"/>
        <pt x="133" y="659" on="1"/>
        <pt x="133" y="724" on="1"/>
        <pt x="349" y="724" on="1"/>
        <pt x="435" y="724" on="0"/>
        <pt x="545" y="642" on="0"/>
      </contour>
      <contour>
        <pt x="451" y="549" on="1"/>
        <pt x="451" y="601" on="0"/>
        <pt x="381" y="655" on="0"/>
        <pt x="326" y="655" on="1"/>
        <pt x="223" y="655" on="1"/>
        <pt x="188" y="392" on="1"/>
        <pt x="261" y="392" on="1"/>
        <pt x="348" y="392" on="0"/>
        <pt x="451" y="468" on="0"/>
      </contour>
    </TTGlyph>
    <TTGlyph name="S" xMin="12" yMin="-10" xMax="498" yMax="734">
      <contour>
        <pt x="498" y="687" on="1"/>
        <pt x="456" y="619" on="1"/>
        <pt x="399" y="665" on="0"/>
        <pt x="331" y="665" on="1"/>
        <pt x="274" y="665" on="0"/>
        <pt x="190" y="603" on="0"/>
        <pt x="190" y="550" on="1"/>
        <pt x="190" y="518" on="0"/>
        <pt x="230" y="466" on="0"/>
        <pt x="289" y="432" on="0"/>
        <pt x="359" y="389" on="0"/>
        <pt x="418" y="344" on="0"/>
        <pt x="458" y="269" on="0"/>
        <pt x="458" y="221" on="1"/>
        <pt x="458" y="118" on="0"/>
        <pt x="312" y="-10" on="0"/>
        <pt x="207" y="-10" on="1"/>
        <pt x="109" y="-10" on="0"/>
        <pt x="12" y="44" on="1"/>
        <pt x="54" y="119" on="1"/>
        <pt x="101" y="85" on="0"/>
        <pt x="163" y="59" on="0"/>
        <pt x="211" y="59" on="1"/>
        <pt x="271" y="59" on="0"/>
        <pt x="364" y="149" on="0"/>
        <pt x="364" y="208" on="1"/>
        <pt x="364" y="250" on="0"/>
        <pt x="309" y="312" on="0"/>
        <pt x="231" y="355" on="0"/>
        <pt x="153" y="402" on="0"/>
        <pt x="98" y="481" on="0"/>
        <pt x="98" y="535" on="1"/>
        <pt x="98" y="629" on="0"/>
        <pt x="238" y="734" on="0"/>
        <pt x="338" y="734" on="1"/>
        <pt x="428" y="734" on="0"/>
      </contour>
    </TTGlyph>
    <TTGlyph name="Scaron" xMin="12" yMin="-10" xMax="498" yMax="935">
      <component glyphName="caron" x="195" y="211" flags="0x4"/>
      <component glyphName="S" x="0" y="0" flags="0x4"/>
    </TTGlyph>
    <TTGlyph name="T" xMin="40" yMin="0" xMax="558" yMax="724">
      <contour>
        <pt x="558" y="724" on="1"/>
        <pt x="549" y="655" on="1"/>
        <pt x="340" y="655" on="1"/>
        <pt x="252" y="0" on="1"/>
        <pt x="161" y="0" on="1"/>
        <pt x="249" y="655" on="1"/>
        <pt x="40" y="655" on="1"/>
        <pt x="50" y="724" on="1"/>
      </contour>
    </TTGlyph>
    <TTGlyph name="Thorn" xMin="46" yMin="0" xMax="529" yMax="724">
      <contour>
        <pt x="236" y="724" on="1"/>
        <pt x="221" y="610" on="1"/>
        <pt x="317" y="610" on="1"/>
        <pt x="413" y="610" on="0"/>
        <pt x="529" y="524" on="0"/>
        <pt x="529" y="429" on="1"/>
        <pt x="529" y="313" on="0"/>
        <pt x="382" y="172" on="0"/>
        <pt x="264" y="172" on="1"/>
        <pt x="160" y="172" on="1"/>
        <pt x="137" y="0" on="1"/>
        <pt x="46" y="0" on="1"/>
        <pt x="135" y="659" on="1"/>
        <pt x="135" y="724" on="1"/>
      </contour>
      <contour>
        <pt x="435" y="418" on="1"/>
        <pt x="435" y="478" on="0"/>
        <pt x="369" y="541" on="0"/>
        <pt x="309" y="541" on="1"/>
        <pt x="210" y="541" on="1"/>
        <pt x="170" y="239" on="1"/>
        <pt x="270" y="239" on="1"/>
        <pt x="345" y="239" on="0"/>
        <pt x="435" y="342" on="0"/>
      </contour>
    </TTGlyph>
    <TTGlyph name="U" xMin="46" yMin="-10" xMax="623" yMax="724">
      <contour>
        <pt x="623" y="724" on="1"/>
        <pt x="559" y="257" on="1"/>
        <pt x="543" y="136" on="0"/>
        <pt x="402" y="-10" on="0"/>
        <pt x="268" y="-10" on="1"/>
        <pt x="151" y="-10" on="0"/>
        <pt x="46" y="101" on="0"/>
        <pt x="46" y="192" on="1"/>
        <pt x="46" y="208" on="0"/>
        <pt x="50" y="244" on="1"/>
        <pt x="106" y="660" on="1"/>
        <pt x="106" y="724" on="1"/>
        <pt x="206" y="724" on="1"/>
        <pt x="141" y="243" on="1"/>
        <pt x="138" y="219" on="0"/>
        <pt x="138" y="200" on="1"/>
        <pt x="138" y="135" on="0"/>
        <pt x="206" y="59" on="0"/>
        <pt x="280" y="59" on="1"/>
        <pt x="370" y="59" on="0"/>
        <pt x="474" y="165" on="0"/>
        <pt x="486" y="258" on="1"/>
        <pt x="549" y="724" on="1"/>
      </contour>
    </TTGlyph>
    <TTGlyph name="Uacute" xMin="46" yMin="-10" xMax="623" yMax="910">
      <component glyphName="acute" x="303" y="186" flags="0x4"/>
      <component glyphName="U" x="0" y="0" flags="0x4"/>
    </TTGlyph>
    <TTGlyph name="Ucircumflex" xMin="46" yMin="-10" xMax="623" yMax="913">
      <component glyphName="circumflex" x="253" y="189" flags="0x4"/>
      <component glyphName="U" x="0" y="0" flags="0x4"/>
    </TTGlyph>
    <TTGlyph name="Udieresis" xMin="46" yMin="-10" xMax="623" yMax="873">
      <component glyphName="dieresis" x="243" y="192" flags="0x4"/>
      <component glyphName="U" x="0" y="0" flags="0x4"/>
    </TTGlyph>
    <TTGlyph name="Ugrave" xMin="46" yMin="-10" xMax="623" yMax="910">
      <component glyphName="grave" x="179" y="186" flags="0x4"/>
      <component glyphName="U" x="0" y="0" flags="0x4"/>
    </TTGlyph>
    <TTGlyph name="V" xMin="44" yMin="-3" xMax="578" yMax="724">
      <contour>
        <pt x="578" y="724" on="1"/>
        <pt x="241" y="-3" on="1"/>
        <pt x="185" y="-3" on="1"/>
        <pt x="44" y="724" on="1"/>
        <pt x="139" y="724" on="1"/>
        <pt x="242" y="163" on="1"/>
        <pt x="501" y="724" on="1"/>
      </contour>
    </TTGlyph>
    <TTGlyph name="W" xMin="44" yMin="-3" xMax="854" yMax="724">
      <contour>
        <pt x="854" y="724" on="1"/>
        <pt x="567" y="-3" on="1"/>
        <pt x="494" y="-3" on="1"/>
        <pt x="425" y="537" on="1"/>
        <pt x="212" y="-3" on="1"/>
        <pt x="139" y="-3" on="1"/>
        <pt x="44" y="724" on="1"/>
        <pt x="138" y="724" on="1"/>
        <pt x="208" y="172" on="1"/>
        <pt x="424" y="724" on="1"/>
        <pt x="494" y="724" on="1"/>
        <pt x="563" y="172" on="1"/>
        <pt x="780" y="724" on="1"/>
      </contour>
    </TTGlyph>
    <TTGlyph name="X" xMin="-33" yMin="0" xMax="578" yMax="724">
      <contour>
        <pt x="578" y="724" on="1"/>
        <pt x="332" y="389" on="1"/>
        <pt x="502" y="0" on="1"/>
        <pt x="398" y="0" on="1"/>
        <pt x="267" y="298" on="1"/>
        <pt x="51" y="0" on="1"/>
        <pt x="-33" y="0" on="1"/>
        <pt x="236" y="372" on="1"/>
        <pt x="83" y="724" on="1"/>
        <pt x="185" y="724" on="1"/>
        <pt x="301" y="460" on="1"/>
        <pt x="493" y="724" on="1"/>
      </contour>
    </TTGlyph>
    <TTGlyph name="Y" xMin="42" yMin="0" xMax="538" yMax="724">
      <contour>
        <pt x="538" y="724" on="1"/>
        <pt x="290" y="358" on="1"/>
        <pt x="242" y="0" on="1"/>
        <pt x="151" y="0" on="1"/>
        <pt x="199" y="359" on="1"/>
        <pt x="42" y="724" on="1"/>
        <pt x="145" y="724" on="1"/>
        <pt x="267" y="444" on="1"/>
        <pt x="454" y="724" on="1"/>
      </contour>
    </TTGlyph>
    <TTGlyph name="Yacute" xMin="42" yMin="0" xMax="538" yMax="910">
      <component glyphName="acute" x="218" y="186" flags="0x4"/>
      <component glyphName="Y" x="0" y="0" flags="0x4"/>
    </TTGlyph>
    <TTGlyph name="Ydieresis" xMin="42" yMin="0" xMax="538" yMax="873">
      <component glyphName="dieresis" x="165" y="192" flags="0x4"/>
      <component glyphName="Y" x="0" y="0" flags="0x4"/>
    </TTGlyph>
    <TTGlyph name="Z" xMin="-17" yMin="0" xMax="546" yMax="724">
      <contour>
        <pt x="546" y="724" on="1"/>
        <pt x="537" y="657" on="1"/>
        <pt x="99" y="69" on="1"/>
        <pt x="470" y="69" on="1"/>
        <pt x="454" y="0" on="1"/>
        <pt x="-17" y="0" on="1"/>
        <pt x="-8" y="67" on="1"/>
        <pt x="430" y="655" on="1"/>
        <pt x="92" y="655" on="1"/>
        <pt x="101" y="724" on="1"/>
      </contour>
    </TTGlyph>
    <TTGlyph name="Zcaron" xMin="-17" yMin="0" xMax="546" yMax="935">
      <component glyphName="caron" x="203" y="211" flags="0x4"/>
      <component glyphName="Z" x="0" y="0" flags="0x4"/>
    </TTGlyph>
    <TTGlyph name="a" xMin="37" yMin="-13" xMax="500" yMax="503">
      <contour>
        <pt x="500" y="12" on="1"/>
        <pt x="458" y="-11" on="0"/>
        <pt x="425" y="-11" on="1"/>
        <pt x="390" y="-11" on="0"/>
        <pt x="347" y="37" on="0"/>
        <pt x="346" y="74" on="1"/>
        <pt x="342" y="74" on="1"/>
        <pt x="285" y="-13" on="0"/>
        <pt x="194" y="-13" on="1"/>
        <pt x="117" y="-13" on="0"/>
        <pt x="37" y="94" on="0"/>
        <pt x="37" y="178" on="1"/>
        <pt x="37" y="233" on="0"/>
        <pt x="75" y="347" on="0"/>
        <pt x="142" y="442" on="0"/>
        <pt x="243" y="503" on="0"/>
        <pt x="300" y="503" on="1"/>
        <pt x="372" y="503" on="0"/>
        <pt x="409" y="456" on="1"/>
        <pt x="430" y="495" on="1"/>
        <pt x="474" y="495" on="1"/>
        <pt x="418" y="115" on="1"/>
        <pt x="416" y="101" on="0"/>
        <pt x="416" y="94" on="1"/>
        <pt x="416" y="54" on="0"/>
        <pt x="449" y="54" on="1"/>
        <pt x="465" y="54" on="0"/>
        <pt x="489" y="62" on="1"/>
      </contour>
      <contour>
        <pt x="382" y="403" on="1"/>
        <pt x="349" y="441" on="0"/>
        <pt x="303" y="441" on="1"/>
        <pt x="247" y="441" on="0"/>
        <pt x="164" y="346" on="0"/>
        <pt x="130" y="228" on="0"/>
        <pt x="130" y="174" on="1"/>
        <pt x="130" y="124" on="0"/>
        <pt x="167" y="49" on="0"/>
        <pt x="210" y="49" on="1"/>
        <pt x="254" y="49" on="0"/>
        <pt x="321" y="127" on="0"/>
        <pt x="358" y="236" on="0"/>
        <pt x="368" y="307" on="1"/>
      </contour>
    </TTGlyph>
    <TTGlyph name="aacute" xMin="37" yMin="-13" xMax="501" yMax="724">
      <component glyphName="acute" x="227" y="0" flags="0x4"/>
      <component glyphName="a" x="0" y="0" flags="0x4"/>
    </TTGlyph>
    <TTGlyph name="acircumflex" xMin="37" yMin="-13" xMax="500" yMax="724">
      <component glyphName="circumflex" x="192" y="0" flags="0x4"/>
      <component glyphName="a" x="0" y="0" flags="0x4"/>
    </TTGlyph>
    <TTGlyph name="acute" xMin="45" yMin="577" xMax="274" yMax="724">
      <contour>
        <pt x="274" y="724" on="1"/>
        <pt x="119" y="577" on="1"/>
        <pt x="45" y="577" on="1"/>
        <pt x="145" y="724" on="1"/>
      </contour>
    </TTGlyph>
    <TTGlyph name="adieresis" xMin="37" yMin="-13" xMax="500" yMax="728">
      <component glyphName="dieresis" x="190" y="47" flags="0x4"/>
      <component glyphName="a" x="0" y="0" flags="0x4"/>
    </TTGlyph>
    <TTGlyph name="ae" xMin="36" yMin="-13" xMax="677" yMax="505">
      <contour>
        <pt x="677" y="399" on="1"/>
        <pt x="677" y="308" on="0"/>
        <pt x="580" y="249" on="1"/>
        <pt x="507" y="205" on="0"/>
        <pt x="372" y="203" on="1"/>
        <pt x="372" y="198" on="1"/>
        <pt x="372" y="138" on="0"/>
        <pt x="432" y="58" on="0"/>
        <pt x="489" y="58" on="1"/>
        <pt x="564" y="58" on="0"/>
        <pt x="628" y="103" on="1"/>
        <pt x="657" y="44" on="1"/>
        <pt x="576" y="-12" on="0"/>
        <pt x="484" y="-12" on="1"/>
        <pt x="387" y="-12" on="0"/>
        <pt x="332" y="54" on="1"/>
        <pt x="275" y="-13" on="0"/>
        <pt x="193" y="-13" on="1"/>
        <pt x="116" y="-13" on="0"/>
        <pt x="36" y="99" on="0"/>
        <pt x="36" y="185" on="1"/>
        <pt x="36" y="254" on="0"/>
        <pt x="98" y="400" on="0"/>
        <pt x="220" y="505" on="0"/>
        <pt x="294" y="505" on="1"/>
        <pt x="367" y="505" on="0"/>
        <pt x="405" y="454" on="1"/>
        <pt x="467" y="505" on="0"/>
        <pt x="550" y="505" on="1"/>
        <pt x="605" y="505" on="0"/>
        <pt x="677" y="453" on="0"/>
      </contour>
      <contour>
        <pt x="593" y="387" on="1"/>
        <pt x="593" y="391" on="1"/>
        <pt x="591" y="443" on="0"/>
        <pt x="537" y="443" on="1"/>
        <pt x="479" y="443" on="0"/>
        <pt x="382" y="323" on="0"/>
        <pt x="377" y="261" on="1"/>
        <pt x="405" y="261" on="0"/>
        <pt x="470" y="273" on="0"/>
        <pt x="544" y="298" on="0"/>
        <pt x="593" y="351" on="0"/>
      </contour>
      <contour>
        <pt x="365" y="416" on="1"/>
        <pt x="332" y="443" on="0"/>
        <pt x="290" y="443" on="1"/>
        <pt x="252" y="443" on="0"/>
        <pt x="188" y="388" on="0"/>
        <pt x="150" y="305" on="0"/>
        <pt x="129" y="216" on="0"/>
        <pt x="129" y="178" on="1"/>
        <pt x="129" y="129" on="0"/>
        <pt x="165" y="50" on="0"/>
        <pt x="206" y="50" on="1"/>
        <pt x="263" y="50" on="0"/>
        <pt x="303" y="102" on="1"/>
        <pt x="286" y="144" on="0"/>
        <pt x="286" y="193" on="1"/>
        <pt x="286" y="323" on="0"/>
      </contour>
    </TTGlyph>
    <TTGlyph name="agrave" xMin="37" yMin="-13" xMax="500" yMax="724">
      <component glyphName="a" x="0" y="0" flags="0x204"/>
      <component glyphName="grave" x="113" y="0" flags="0x4"/>
    </TTGlyph>
    <TTGlyph name="ampersand" xMin="37" yMin="-13" xMax="654" yMax="689">
      <contour>
        <pt x="654" y="303" on="1"/>
        <pt x="651" y="210" on="0"/>
        <pt x="547" y="210" on="1"/>
        <pt x="532" y="210" on="1"/>
        <pt x="506" y="110" on="0"/>
        <pt x="345" y="-13" on="0"/>
        <pt x="230" y="-13" on="1"/>
        <pt x="151" y="-13" on="0"/>
        <pt x="37" y="92" on="0"/>
        <pt x="37" y="171" on="1"/>
        <pt x="37" y="309" on="0"/>
        <pt x="149" y="397" on="1"/>
        <pt x="128" y="433" on="0"/>
        <pt x="128" y="476" on="1"/>
        <pt x="128" y="574" on="0"/>
        <pt x="280" y="689" on="0"/>
        <pt x="387" y="689" on="1"/>
        <pt x="432" y="689" on="0"/>
        <pt x="530" y="658" on="0"/>
        <pt x="553" y="631" on="1"/>
        <pt x="511" y="584" on="1"/>
        <pt x="463" y="630" on="0"/>
        <pt x="397" y="630" on="1"/>
        <pt x="313" y="630" on="0"/>
        <pt x="212" y="536" on="0"/>
        <pt x="212" y="459" on="1"/>
        <pt x="212" y="449" on="0"/>
        <pt x="216" y="436" on="1"/>
        <pt x="274" y="462" on="0"/>
        <pt x="334" y="462" on="1"/>
        <pt x="381" y="462" on="0"/>
        <pt x="434" y="428" on="0"/>
        <pt x="434" y="396" on="1"/>
        <pt x="434" y="362" on="0"/>
        <pt x="364" y="311" on="0"/>
        <pt x="310" y="311" on="1"/>
        <pt x="244" y="311" on="0"/>
        <pt x="193" y="350" on="1"/>
        <pt x="162" y="315" on="0"/>
        <pt x="129" y="225" on="0"/>
        <pt x="129" y="186" on="1"/>
        <pt x="129" y="128" on="0"/>
        <pt x="198" y="61" on="0"/>
        <pt x="256" y="61" on="1"/>
        <pt x="334" y="61" on="0"/>
        <pt x="457" y="150" on="0"/>
        <pt x="457" y="187" on="1"/>
        <pt x="457" y="228" on="0"/>
        <pt x="411" y="228" on="1"/>
        <pt x="393" y="228" on="0"/>
        <pt x="371" y="204" on="0"/>
        <pt x="369" y="192" on="1"/>
        <pt x="308" y="192" on="1"/>
        <pt x="310" y="236" on="0"/>
        <pt x="379" y="281" on="0"/>
        <pt x="421" y="281" on="1"/>
        <pt x="553" y="270" on="1"/>
        <pt x="569" y="270" on="0"/>
        <pt x="592" y="287" on="0"/>
        <pt x="593" y="303" on="1"/>
      </contour>
      <contour>
        <pt x="364" y="391" on="1"/>
        <pt x="364" y="410" on="0"/>
        <pt x="326" y="410" on="1"/>
        <pt x="282" y="410" on="0"/>
        <pt x="243" y="389" on="1"/>
        <pt x="268" y="364" on="0"/>
        <pt x="305" y="364" on="1"/>
        <pt x="335" y="364" on="0"/>
        <pt x="364" y="380" on="0"/>
      </contour>
    </TTGlyph>
    <TTGlyph name="approxequal" xMin="83" yMin="91" xMax="571" yMax="416">
      <contour>
        <pt x="133" y="290" on="1"/>
        <pt x="83" y="322" on="1"/>
        <pt x="96" y="350" on="0"/>
        <pt x="169" y="416" on="0"/>
        <pt x="217" y="416" on="1"/>
        <pt x="266" y="416" on="0"/>
        <pt x="400" y="347" on="0"/>
        <pt x="433" y="347" on="1"/>
        <pt x="463" y="347" on="0"/>
        <pt x="513" y="391" on="0"/>
        <pt x="520" y="408" on="1"/>
        <pt x="554" y="387" on="0"/>
        <pt x="571" y="376" on="1"/>
        <pt x="563" y="360" on="0"/>
        <pt x="533" y="323" on="0"/>
        <pt x="470" y="282" on="0"/>
        <pt x="436" y="282" on="1"/>
        <pt x="388" y="282" on="0"/>
        <pt x="254" y="351" on="0"/>
        <pt x="220" y="351" on="1"/>
        <pt x="174" y="351" on="0"/>
      </contour>
      <contour>
        <pt x="133" y="99" on="1"/>
        <pt x="83" y="131" on="1"/>
        <pt x="96" y="159" on="0"/>
        <pt x="169" y="225" on="0"/>
        <pt x="217" y="225" on="1"/>
        <pt x="266" y="225" on="0"/>
        <pt x="400" y="156" on="0"/>
        <pt x="433" y="156" on="1"/>
        <pt x="463" y="156" on="0"/>
        <pt x="513" y="200" on="0"/>
        <pt x="520" y="217" on="1"/>
        <pt x="554" y="196" on="0"/>
        <pt x="571" y="185" on="1"/>
        <pt x="563" y="169" on="0"/>
        <pt x="533" y="132" on="0"/>
        <pt x="470" y="91" on="0"/>
        <pt x="436" y="91" on="1"/>
        <pt x="388" y="91" on="0"/>
        <pt x="254" y="160" on="0"/>
        <pt x="220" y="160" on="1"/>
        <pt x="174" y="160" on="0"/>
      </contour>
    </TTGlyph>
    <TTGlyph name="aring" xMin="37" yMin="-13" xMax="500" yMax="750">
      <component glyphName="ring" x="192" y="0" flags="0x4"/>
      <component glyphName="a" x="0" y="0" flags="0x4"/>
    </TTGlyph>
    <TTGlyph name="asciicircum" xMin="56" yMin="0" xMax="563" yMax="491">
      <contour>
        <pt x="563" y="0" on="1"/>
        <pt x="487" y="0" on="1"/>
        <pt x="310" y="400" on="1"/>
        <pt x="133" y="0" on="1"/>
        <pt x="56" y="0" on="1"/>
        <pt x="272" y="491" on="1"/>
        <pt x="345" y="491" on="1"/>
      </contour>
    </TTGlyph>
    <TTGlyph name="asciitilde" xMin="44" yMin="203" xMax="515" yMax="343">
      <contour>
        <pt x="515" y="297" on="1"/>
        <pt x="492" y="261" on="0"/>
        <pt x="417" y="204" on="0"/>
        <pt x="380" y="204" on="1"/>
        <pt x="342" y="204" on="0"/>
        <pt x="211" y="271" on="0"/>
        <pt x="175" y="271" on="1"/>
        <pt x="150" y="271" on="0"/>
        <pt x="108" y="230" on="0"/>
        <pt x="96" y="203" on="1"/>
        <pt x="44" y="247" on="1"/>
        <pt x="62" y="287" on="0"/>
        <pt x="134" y="343" on="0"/>
        <pt x="175" y="343" on="1"/>
        <pt x="220" y="343" on="0"/>
        <pt x="357" y="277" on="0"/>
        <pt x="380" y="277" on="1"/>
        <pt x="406" y="277" on="0"/>
        <pt x="451" y="316" on="0"/>
        <pt x="466" y="343" on="1"/>
      </contour>
    </TTGlyph>
    <TTGlyph name="asterisk" xMin="75" yMin="377" xMax="440" yMax="724">
      <contour>
        <pt x="440" y="565" on="1"/>
        <pt x="299" y="537" on="1"/>
        <pt x="293" y="580" on="1"/>
        <pt x="421" y="642" on="1"/>
      </contour>
      <contour>
        <pt x="317" y="724" on="1"/>
        <pt x="280" y="587" on="1"/>
        <pt x="238" y="587" on="1"/>
        <pt x="238" y="724" on="1"/>
      </contour>
      <contour>
        <pt x="375" y="425" on="1"/>
        <pt x="306" y="377" on="1"/>
        <pt x="255" y="501" on="1"/>
        <pt x="290" y="523" on="1"/>
      </contour>
      <contour>
        <pt x="227" y="578" on="1"/>
        <pt x="208" y="542" on="1"/>
        <pt x="75" y="563" on="1"/>
        <pt x="106" y="638" on="1"/>
      </contour>
      <contour>
        <pt x="240" y="500" on="1"/>
        <pt x="155" y="379" on="1"/>
        <pt x="100" y="425" on="1"/>
        <pt x="209" y="526" on="1"/>
      </contour>
    </TTGlyph>
    <TTGlyph name="at" xMin="51" yMin="-128" xMax="779" yMax="616">
      <contour>
        <pt x="446" y="-75" on="1"/>
        <pt x="458" y="-116" on="1"/>
        <pt x="413" y="-128" on="0"/>
        <pt x="366" y="-128" on="1"/>
        <pt x="229" y="-128" on="0"/>
        <pt x="51" y="55" on="0"/>
        <pt x="51" y="192" on="1"/>
        <pt x="51" y="297" on="0"/>
        <pt x="146" y="488" on="0"/>
        <pt x="334" y="616" on="0"/>
        <pt x="453" y="616" on="1"/>
        <pt x="591" y="616" on="0"/>
        <pt x="779" y="452" on="0"/>
        <pt x="779" y="311" on="1"/>
        <pt x="779" y="210" on="0"/>
        <pt x="674" y="52" on="0"/>
        <pt x="590" y="52" on="1"/>
        <pt x="515" y="52" on="0"/>
        <pt x="487" y="113" on="1"/>
        <pt x="486" y="114" on="0"/>
        <pt x="484" y="114" on="1"/>
        <pt x="463" y="84" on="0"/>
        <pt x="400" y="50" on="0"/>
        <pt x="369" y="50" on="1"/>
        <pt x="308" y="50" on="0"/>
        <pt x="248" y="133" on="0"/>
        <pt x="248" y="197" on="1"/>
        <pt x="248" y="249" on="0"/>
        <pt x="293" y="358" on="0"/>
        <pt x="389" y="440" on="0"/>
        <pt x="449" y="440" on="1"/>
        <pt x="500" y="440" on="0"/>
        <pt x="533" y="404" on="1"/>
        <pt x="539" y="413" on="0"/>
        <pt x="549" y="433" on="1"/>
        <pt x="586" y="433" on="1"/>
        <pt x="546" y="169" on="0"/>
        <pt x="546" y="147" on="1"/>
        <pt x="546" y="95" on="0"/>
        <pt x="592" y="95" on="1"/>
        <pt x="653" y="95" on="0"/>
        <pt x="729" y="226" on="0"/>
        <pt x="729" y="311" on="1"/>
        <pt x="729" y="432" on="0"/>
        <pt x="571" y="574" on="0"/>
        <pt x="453" y="574" on="1"/>
        <pt x="374" y="574" on="0"/>
        <pt x="238" y="507" on="0"/>
        <pt x="150" y="398" on="0"/>
        <pt x="101" y="262" on="0"/>
        <pt x="101" y="192" on="1"/>
        <pt x="101" y="73" on="0"/>
        <pt x="251" y="-86" on="0"/>
        <pt x="366" y="-86" on="1"/>
        <pt x="405" y="-86" on="0"/>
      </contour>
      <contour>
        <pt x="510" y="359" on="1"/>
        <pt x="481" y="391" on="0"/>
        <pt x="446" y="391" on="1"/>
        <pt x="406" y="391" on="0"/>
        <pt x="346" y="317" on="0"/>
        <pt x="322" y="231" on="0"/>
        <pt x="322" y="195" on="1"/>
        <pt x="322" y="99" on="0"/>
        <pt x="383" y="99" on="1"/>
        <pt x="416" y="99" on="0"/>
        <pt x="464" y="151" on="0"/>
        <pt x="492" y="248" on="0"/>
        <pt x="504" y="310" on="0"/>
      </contour>
    </TTGlyph>
    <TTGlyph name="atilde" xMin="37" yMin="-13" xMax="500" yMax="723">
      <component glyphName="tilde" x="184" y="40" flags="0x4"/>
      <component glyphName="a" x="0" y="0" flags="0x4"/>
    </TTGlyph>
    <TTGlyph name="b" xMin="37" yMin="-13" xMax="463" yMax="764">
      <contour>
        <pt x="463" y="318" on="1"/>
        <pt x="463" y="181" on="0"/>
        <pt x="298" y="-13" on="0"/>
        <pt x="162" y="-13" on="1"/>
        <pt x="130" y="-13" on="0"/>
        <pt x="59" y="11" on="0"/>
        <pt x="37" y="33" on="1"/>
        <pt x="124" y="707" on="1"/>
        <pt x="124" y="764" on="1"/>
        <pt x="212" y="764" on="1"/>
        <pt x="169" y="444" on="1"/>
        <pt x="238" y="503" on="0"/>
        <pt x="304" y="503" on="1"/>
        <pt x="383" y="503" on="0"/>
        <pt x="463" y="398" on="0"/>
      </contour>
      <contour>
        <pt x="375" y="322" on="1"/>
        <pt x="375" y="441" on="0"/>
        <pt x="290" y="441" on="1"/>
        <pt x="255" y="441" on="0"/>
        <pt x="182" y="398" on="0"/>
        <pt x="159" y="367" on="1"/>
        <pt x="126" y="109" on="1"/>
        <pt x="125" y="101" on="0"/>
        <pt x="125" y="98" on="1"/>
        <pt x="125" y="49" on="0"/>
        <pt x="183" y="49" on="1"/>
        <pt x="243" y="49" on="0"/>
        <pt x="334" y="142" on="0"/>
        <pt x="375" y="263" on="0"/>
      </contour>
    </TTGlyph>
    <TTGlyph name="backslash" xMin="5" yMin="0" xMax="321" yMax="724">
      <contour>
        <pt x="321" y="0" on="1"/>
        <pt x="257" y="0" on="1"/>
        <pt x="5" y="724" on="1"/>
        <pt x="72" y="724" on="1"/>
      </contour>
    </TTGlyph>
    <TTGlyph name="bar" xMin="84" yMin="-109" xMax="152" yMax="742">
      <contour>
        <pt x="152" y="-109" on="1"/>
        <pt x="84" y="-109" on="1"/>
        <pt x="84" y="742" on="1"/>
        <pt x="152" y="742" on="1"/>
      </contour>
    </TTGlyph>
    <TTGlyph name="braceleft" xMin="62" yMin="-137" xMax="350" yMax="730">
      <contour>
        <pt x="350" y="730" on="1"/>
        <pt x="343" y="683" on="1"/>
        <pt x="291" y="683" on="0"/>
        <pt x="253" y="643" on="0"/>
        <pt x="246" y="591" on="1"/>
        <pt x="223" y="426" on="1"/>
        <pt x="208" y="319" on="0"/>
        <pt x="142" y="296" on="1"/>
        <pt x="189" y="275" on="0"/>
        <pt x="189" y="209" on="1"/>
        <pt x="189" y="190" on="0"/>
        <pt x="186" y="166" on="1"/>
        <pt x="163" y="1" on="1"/>
        <pt x="160" y="-17" on="0"/>
        <pt x="160" y="-31" on="1"/>
        <pt x="160" y="-64" on="0"/>
        <pt x="194" y="-90" on="0"/>
        <pt x="234" y="-90" on="1"/>
        <pt x="227" y="-137" on="1"/>
        <pt x="149" y="-137" on="0"/>
        <pt x="84" y="-79" on="0"/>
        <pt x="84" y="-17" on="1"/>
        <pt x="84" y="1" on="0"/>
        <pt x="88" y="26" on="1"/>
        <pt x="110" y="179" on="1"/>
        <pt x="113" y="194" on="0"/>
        <pt x="113" y="211" on="1"/>
        <pt x="113" y="274" on="0"/>
        <pt x="62" y="274" on="1"/>
        <pt x="69" y="320" on="1"/>
        <pt x="128" y="321" on="0"/>
        <pt x="142" y="412" on="1"/>
        <pt x="165" y="568" on="1"/>
        <pt x="177" y="651" on="0"/>
        <pt x="260" y="730" on="0"/>
      </contour>
    </TTGlyph>
    <TTGlyph name="braceright" xMin="2" yMin="-137" xMax="292" yMax="734">
      <contour>
        <pt x="121" y="734" on="1"/>
        <pt x="145" y="734" on="1"/>
        <pt x="268" y="734" on="0"/>
        <pt x="268" y="612" on="1"/>
        <pt x="268" y="594" on="0"/>
        <pt x="265" y="571" on="1"/>
        <pt x="242" y="407" on="1"/>
        <pt x="240" y="393" on="0"/>
        <pt x="240" y="385" on="1"/>
        <pt x="240" y="322" on="0"/>
        <pt x="292" y="322" on="1"/>
        <pt x="286" y="275" on="1"/>
        <pt x="224" y="275" on="0"/>
        <pt x="211" y="179" on="1"/>
        <pt x="189" y="26" on="1"/>
        <pt x="177" y="-54" on="0"/>
        <pt x="99" y="-137" on="0"/>
        <pt x="23" y="-137" on="1"/>
        <pt x="2" y="-137" on="1"/>
        <pt x="8" y="-91" on="1"/>
        <pt x="62" y="-91" on="0"/>
        <pt x="100" y="-56" on="0"/>
        <pt x="107" y="-2" on="1"/>
        <pt x="129" y="168" on="1"/>
        <pt x="143" y="273" on="0"/>
        <pt x="213" y="300" on="1"/>
        <pt x="163" y="319" on="0"/>
        <pt x="163" y="386" on="1"/>
        <pt x="163" y="401" on="0"/>
        <pt x="167" y="429" on="1"/>
        <pt x="190" y="606" on="1"/>
        <pt x="192" y="626" on="0"/>
        <pt x="192" y="631" on="1"/>
        <pt x="192" y="666" on="0"/>
        <pt x="158" y="688" on="0"/>
        <pt x="115" y="688" on="1"/>
      </contour>
    </TTGlyph>
    <TTGlyph name="bracketleft" xMin="42" yMin="-130" xMax="361" yMax="724">
      <contour>
        <pt x="361" y="724" on="1"/>
        <pt x="354" y="675" on="1"/>
        <pt x="234" y="675" on="1"/>
        <pt x="128" y="-81" on="1"/>
        <pt x="248" y="-81" on="1"/>
        <pt x="240" y="-130" on="1"/>
        <pt x="42" y="-130" on="1"/>
        <pt x="163" y="724" on="1"/>
      </contour>
    </TTGlyph>
    <TTGlyph name="bracketright" xMin="-10" yMin="-128" xMax="309" yMax="724">
      <contour>
        <pt x="309" y="724" on="1"/>
        <pt x="188" y="-128" on="1"/>
        <pt x="-10" y="-128" on="1"/>
        <pt x="-2" y="-79" on="1"/>
        <pt x="118" y="-79" on="1"/>
        <pt x="224" y="676" on="1"/>
        <pt x="103" y="676" on="1"/>
        <pt x="111" y="724" on="1"/>
      </contour>
    </TTGlyph>
    <TTGlyph name="breve" xMin="15" yMin="589" xMax="280" yMax="724">
      <contour>
        <pt x="280" y="724" on="1"/>
        <pt x="245" y="589" on="0"/>
        <pt x="129" y="589" on="1"/>
        <pt x="76" y="589" on="0"/>
        <pt x="15" y="652" on="0"/>
        <pt x="15" y="711" on="1"/>
        <pt x="15" y="724" on="1"/>
        <pt x="62" y="724" on="1"/>
        <pt x="67" y="657" on="0"/>
        <pt x="137" y="657" on="1"/>
        <pt x="207" y="657" on="0"/>
        <pt x="233" y="724" on="1"/>
      </contour>
    </TTGlyph>
    <TTGlyph name="brokenbar" xMin="84" yMin="-115" xMax="152" yMax="742">
      <contour>
        <pt x="152" y="393" on="1"/>
        <pt x="84" y="393" on="1"/>
        <pt x="84" y="742" on="1"/>
        <pt x="152" y="742" on="1"/>
      </contour>
      <contour>
        <pt x="152" y="-115" on="1"/>
        <pt x="84" y="-115" on="1"/>
        <pt x="84" y="233" on="1"/>
        <pt x="152" y="233" on="1"/>
      </contour>
    </TTGlyph>
    <TTGlyph name="bullet" xMin="46" yMin="201" xMax="359" yMax="513">
      <contour>
        <pt x="46" y="357" on="1"/>
        <pt x="46" y="421" on="0"/>
        <pt x="136" y="513" on="0"/>
        <pt x="202" y="513" on="1"/>
        <pt x="268" y="513" on="0"/>
        <pt x="359" y="422" on="0"/>
        <pt x="359" y="292" on="0"/>
        <pt x="270" y="201" on="0"/>
        <pt x="204" y="201" on="1"/>
        <pt x="138" y="201" on="0"/>
        <pt x="46" y="292" on="0"/>
      </contour>
    </TTGlyph>
    <TTGlyph name="c" xMin="36" yMin="-13" xMax="430" yMax="503">
      <contour>
        <pt x="430" y="452" on="1"/>
        <pt x="380" y="397" on="1"/>
        <pt x="336" y="441" on="0"/>
        <pt x="279" y="441" on="1"/>
        <pt x="229" y="441" on="0"/>
        <pt x="155" y="361" on="0"/>
        <pt x="123" y="259" on="0"/>
        <pt x="123" y="210" on="1"/>
        <pt x="123" y="148" on="0"/>
        <pt x="178" y="56" on="0"/>
        <pt x="234" y="56" on="1"/>
        <pt x="268" y="56" on="0"/>
        <pt x="320" y="76" on="0"/>
        <pt x="355" y="100" on="1"/>
        <pt x="383" y="36" on="1"/>
        <pt x="334" y="9" on="0"/>
        <pt x="268" y="-13" on="0"/>
        <pt x="221" y="-13" on="1"/>
        <pt x="132" y="-13" on="0"/>
        <pt x="36" y="105" on="0"/>
        <pt x="36" y="197" on="1"/>
        <pt x="36" y="322" on="0"/>
        <pt x="179" y="503" on="0"/>
        <pt x="297" y="503" on="1"/>
        <pt x="373" y="503" on="0"/>
      </contour>
    </TTGlyph>
    <TTGlyph name="caron" xMin="12" yMin="553" xMax="289" yMax="724">
      <contour>
        <pt x="289" y="724" on="1"/>
        <pt x="166" y="553" on="1"/>
        <pt x="85" y="553" on="1"/>
        <pt x="12" y="724" on="1"/>
        <pt x="77" y="724" on="1"/>
        <pt x="135" y="625" on="1"/>
        <pt x="222" y="724" on="1"/>
      </contour>
    </TTGlyph>
    <TTGlyph name="ccedilla" xMin="36" yMin="-218" xMax="430" yMax="503">
      <component glyphName="cedilla" x="73" y="0" flags="0x4"/>
      <component glyphName="c" x="0" y="0" flags="0x4"/>
    </TTGlyph>
    <TTGlyph name="cedilla" xMin="65" yMin="-218" xMax="209" yMax="8">
      <contour>
        <pt x="209" y="-117" on="1"/>
        <pt x="209" y="-167" on="0"/>
        <pt x="154" y="-194" on="1"/>
        <pt x="125" y="-209" on="0"/>
        <pt x="72" y="-218" on="1"/>
        <pt x="65" y="-186" on="1"/>
        <pt x="74" y="-184" on="0"/>
        <pt x="100" y="-176" on="0"/>
        <pt x="137" y="-142" on="0"/>
        <pt x="137" y="-119" on="1"/>
        <pt x="137" y="-87" on="0"/>
        <pt x="90" y="-71" on="1"/>
        <pt x="136" y="8" on="1"/>
        <pt x="181" y="8" on="1"/>
        <pt x="151" y="-46" on="1"/>
        <pt x="209" y="-64" on="0"/>
      </contour>
    </TTGlyph>
    <TTGlyph name="cent" xMin="36" yMin="-122" xMax="430" yMax="615">
      <contour>
        <pt x="430" y="454" on="1"/>
        <pt x="380" y="397" on="1"/>
        <pt x="334" y="441" on="0"/>
        <pt x="279" y="441" on="1"/>
        <pt x="217" y="441" on="0"/>
        <pt x="135" y="325" on="0"/>
        <pt x="126" y="254" on="1"/>
        <pt x="123" y="233" on="0"/>
        <pt x="123" y="210" on="1"/>
        <pt x="123" y="150" on="0"/>
        <pt x="181" y="55" on="0"/>
        <pt x="234" y="55" on="1"/>
        <pt x="268" y="55" on="0"/>
        <pt x="319" y="75" on="0"/>
        <pt x="355" y="100" on="1"/>
        <pt x="383" y="35" on="1"/>
        <pt x="336" y="8" on="0"/>
        <pt x="272" y="-13" on="0"/>
        <pt x="229" y="-13" on="1"/>
        <pt x="209" y="-122" on="1"/>
        <pt x="131" y="-122" on="1"/>
        <pt x="167" y="-6" on="1"/>
        <pt x="105" y="12" on="0"/>
        <pt x="36" y="122" on="0"/>
        <pt x="36" y="197" on="1"/>
        <pt x="36" y="314" on="0"/>
        <pt x="161" y="491" on="0"/>
        <pt x="266" y="504" on="1"/>
        <pt x="288" y="615" on="1"/>
        <pt x="366" y="615" on="1"/>
        <pt x="330" y="502" on="1"/>
        <pt x="390" y="490" on="0"/>
      </contour>
    </TTGlyph>
    <TTGlyph name="circumflex" xMin="-11" yMin="574" xMax="266" yMax="724">
      <contour>
        <pt x="266" y="574" on="1"/>
        <pt x="201" y="574" on="1"/>
        <pt x="137" y="653" on="1"/>
        <pt x="54" y="574" on="1"/>
        <pt x="-11" y="574" on="1"/>
        <pt x="107" y="724" on="1"/>
        <pt x="186" y="724" on="1"/>
      </contour>
    </TTGlyph>
    <TTGlyph name="colon" xMin="35" yMin="-13" xMax="212" yMax="428">
      <contour>
        <pt x="101" y="-13" on="1"/>
        <pt x="73" y="-13" on="0"/>
        <pt x="35" y="26" on="0"/>
        <pt x="35" y="54" on="1"/>
        <pt x="35" y="81" on="0"/>
        <pt x="73" y="120" on="0"/>
        <pt x="100" y="120" on="1"/>
        <pt x="128" y="120" on="0"/>
        <pt x="167" y="82" on="0"/>
        <pt x="167" y="26" on="0"/>
        <pt x="128" y="-13" on="0"/>
      </contour>
      <contour>
        <pt x="146" y="295" on="1"/>
        <pt x="118" y="295" on="0"/>
        <pt x="80" y="334" on="0"/>
        <pt x="80" y="362" on="1"/>
        <pt x="80" y="389" on="0"/>
        <pt x="118" y="428" on="0"/>
        <pt x="145" y="428" on="1"/>
        <pt x="173" y="428" on="0"/>
        <pt x="212" y="390" on="0"/>
        <pt x="212" y="334" on="0"/>
        <pt x="173" y="295" on="0"/>
      </contour>
    </TTGlyph>
    <TTGlyph name="comma" xMin="18" yMin="-125" xMax="171" yMax="120">
      <contour>
        <pt x="171" y="50" on="1"/>
        <pt x="171" y="0" on="0"/>
        <pt x="99" y="-91" on="0"/>
        <pt x="48" y="-125" on="1"/>
        <pt x="18" y="-92" on="1"/>
        <pt x="24" y="-87" on="1"/>
        <pt x="76" y="-45" on="0"/>
        <pt x="76" y="-18" on="1"/>
        <pt x="76" y="-11" on="0"/>
        <pt x="36" y="33" on="0"/>
        <pt x="36" y="54" on="1"/>
        <pt x="36" y="85" on="0"/>
        <pt x="76" y="120" on="0"/>
        <pt x="105" y="120" on="1"/>
        <pt x="136" y="120" on="0"/>
        <pt x="171" y="80" on="0"/>
      </contour>
    </TTGlyph>
    <TTGlyph name="copyright" xMin="44" yMin="-22" xMax="588" yMax="522">
      <contour>
        <pt x="508" y="442" on="1"/>
        <pt x="588" y="362" on="0"/>
        <pt x="588" y="138" on="0"/>
        <pt x="428" y="-22" on="0"/>
        <pt x="316" y="-22" on="1"/>
        <pt x="204" y="-22" on="0"/>
        <pt x="44" y="138" on="0"/>
        <pt x="44" y="362" on="0"/>
        <pt x="204" y="522" on="0"/>
        <pt x="316" y="522" on="1"/>
        <pt x="428" y="522" on="0"/>
      </contour>
      <contour>
        <pt x="480" y="85" on="1"/>
        <pt x="549" y="154" on="0"/>
        <pt x="549" y="346" on="0"/>
        <pt x="412" y="483" on="0"/>
        <pt x="316" y="483" on="1"/>
        <pt x="220" y="483" on="0"/>
        <pt x="83" y="346" on="0"/>
        <pt x="83" y="154" on="0"/>
        <pt x="220" y="17" on="0"/>
        <pt x="316" y="17" on="1"/>
        <pt x="412" y="17" on="0"/>
      </contour>
      <contour>
        <pt x="400" y="162" on="1"/>
        <pt x="426" y="119" on="1"/>
        <pt x="371" y="88" on="0"/>
        <pt x="318" y="88" on="1"/>
        <pt x="250" y="88" on="0"/>
        <pt x="171" y="181" on="0"/>
        <pt x="171" y="251" on="1"/>
        <pt x="171" y="323" on="0"/>
        <pt x="255" y="414" on="0"/>
        <pt x="326" y="414" on="1"/>
        <pt x="370" y="414" on="0"/>
        <pt x="421" y="381" on="1"/>
        <pt x="391" y="343" on="1"/>
        <pt x="359" y="370" on="0"/>
        <pt x="318" y="370" on="1"/>
        <pt x="277" y="370" on="0"/>
        <pt x="232" y="299" on="0"/>
        <pt x="232" y="256" on="1"/>
        <pt x="232" y="211" on="0"/>
        <pt x="278" y="134" on="0"/>
        <pt x="321" y="134" on="1"/>
        <pt x="358" y="134" on="0"/>
      </contour>
    </TTGlyph>
    <TTGlyph name="currency" xMin="47" yMin="114" xMax="485" yMax="551">
      <contour>
        <pt x="427" y="218" on="1"/>
        <pt x="485" y="162" on="1"/>
        <pt x="468" y="146" on="0"/>
        <pt x="436" y="114" on="1"/>
        <pt x="399" y="148" on="0"/>
        <pt x="382" y="167" on="1"/>
        <pt x="332" y="125" on="0"/>
        <pt x="266" y="125" on="1"/>
        <pt x="202" y="125" on="0"/>
        <pt x="149" y="167" on="1"/>
        <pt x="143" y="161" on="0"/>
        <pt x="122" y="140" on="0"/>
        <pt x="104" y="122" on="0"/>
        <pt x="96" y="114" on="1"/>
        <pt x="47" y="163" on="1"/>
        <pt x="103" y="219" on="1"/>
        <pt x="72" y="271" on="0"/>
        <pt x="72" y="332" on="1"/>
        <pt x="72" y="392" on="0"/>
        <pt x="104" y="445" on="1"/>
        <pt x="47" y="502" on="1"/>
        <pt x="72" y="526" on="0"/>
        <pt x="96" y="551" on="1"/>
        <pt x="150" y="496" on="1"/>
        <pt x="202" y="538" on="0"/>
        <pt x="266" y="538" on="1"/>
        <pt x="331" y="538" on="0"/>
        <pt x="381" y="497" on="1"/>
        <pt x="436" y="551" on="1"/>
        <pt x="485" y="502" on="1"/>
        <pt x="427" y="445" on="1"/>
        <pt x="460" y="391" on="0"/>
        <pt x="460" y="332" on="1"/>
        <pt x="460" y="272" on="0"/>
      </contour>
      <contour>
        <pt x="266" y="186" on="1"/>
        <pt x="316" y="186" on="0"/>
        <pt x="388" y="268" on="0"/>
        <pt x="388" y="332" on="1"/>
        <pt x="388" y="393" on="0"/>
        <pt x="318" y="477" on="0"/>
        <pt x="266" y="477" on="1"/>
        <pt x="214" y="477" on="0"/>
        <pt x="145" y="393" on="0"/>
        <pt x="145" y="332" on="1"/>
        <pt x="145" y="269" on="0"/>
        <pt x="217" y="186" on="0"/>
      </contour>
    </TTGlyph>
    <TTGlyph name="d" xMin="36" yMin="-13" xMax="509" yMax="764">
      <contour>
        <pt x="509" y="764" on="1"/>
        <pt x="416" y="104" on="1"/>
        <pt x="415" y="95" on="0"/>
        <pt x="415" y="92" on="1"/>
        <pt x="415" y="54" on="0"/>
        <pt x="448" y="54" on="1"/>
        <pt x="456" y="54" on="0"/>
        <pt x="476" y="58" on="0"/>
        <pt x="482" y="60" on="1"/>
        <pt x="488" y="62" on="1"/>
        <pt x="499" y="12" on="1"/>
        <pt x="455" y="-11" on="0"/>
        <pt x="424" y="-11" on="1"/>
        <pt x="389" y="-11" on="0"/>
        <pt x="345" y="36" on="0"/>
        <pt x="345" y="70" on="1"/>
        <pt x="345" y="74" on="1"/>
        <pt x="341" y="74" on="1"/>
        <pt x="280" y="-13" on="0"/>
        <pt x="194" y="-13" on="1"/>
        <pt x="114" y="-13" on="0"/>
        <pt x="36" y="94" on="0"/>
        <pt x="36" y="176" on="1"/>
        <pt x="36" y="250" on="0"/>
        <pt x="98" y="398" on="0"/>
        <pt x="223" y="503" on="0"/>
        <pt x="299" y="503" on="1"/>
        <pt x="353" y="503" on="0"/>
        <pt x="388" y="464" on="1"/>
        <pt x="422" y="710" on="1"/>
        <pt x="422" y="764" on="1"/>
      </contour>
      <contour>
        <pt x="377" y="383" on="1"/>
        <pt x="379" y="404" on="1"/>
        <pt x="349" y="441" on="0"/>
        <pt x="301" y="441" on="1"/>
        <pt x="246" y="441" on="0"/>
        <pt x="163" y="344" on="0"/>
        <pt x="128" y="226" on="0"/>
        <pt x="128" y="173" on="1"/>
        <pt x="128" y="123" on="0"/>
        <pt x="165" y="50" on="0"/>
        <pt x="210" y="50" on="1"/>
        <pt x="240" y="50" on="0"/>
        <pt x="289" y="82" on="0"/>
        <pt x="323" y="145" on="0"/>
        <pt x="347" y="203" on="0"/>
        <pt x="364" y="296" on="0"/>
        <pt x="372" y="343" on="0"/>
      </contour>
    </TTGlyph>
    <TTGlyph name="dagger" xMin="46" yMin="-133" xMax="459" yMax="730">
      <contour>
        <pt x="459" y="481" on="1"/>
        <pt x="398" y="445" on="1"/>
        <pt x="267" y="468" on="1"/>
        <pt x="272" y="353" on="0"/>
        <pt x="272" y="335" on="1"/>
        <pt x="272" y="314" on="0"/>
        <pt x="271" y="309" on="1"/>
        <pt x="270" y="302" on="0"/>
        <pt x="243" y="162" on="1"/>
        <pt x="185" y="-133" on="1"/>
        <pt x="149" y="-133" on="1"/>
        <pt x="173" y="162" on="1"/>
        <pt x="175" y="181" on="0"/>
        <pt x="179" y="276" on="0"/>
        <pt x="184" y="309" on="1"/>
        <pt x="185" y="317" on="0"/>
        <pt x="234" y="468" on="1"/>
        <pt x="99" y="445" on="1"/>
        <pt x="46" y="485" on="1"/>
        <pt x="110" y="524" on="1"/>
        <pt x="238" y="498" on="1"/>
        <pt x="232" y="657" on="1"/>
        <pt x="285" y="730" on="1"/>
        <pt x="321" y="657" on="1"/>
        <pt x="271" y="498" on="1"/>
        <pt x="409" y="524" on="1"/>
      </contour>
    </TTGlyph>
    <TTGlyph name="daggerdbl" xMin="34" yMin="-130" xMax="498" yMax="730">
      <contour>
        <pt x="498" y="481" on="1"/>
        <pt x="437" y="445" on="1"/>
        <pt x="307" y="468" on="1"/>
        <pt x="307" y="461" on="0"/>
        <pt x="312" y="336" on="0"/>
        <pt x="312" y="318" on="1"/>
        <pt x="312" y="309" on="1"/>
        <pt x="310" y="295" on="0"/>
        <pt x="291" y="226" on="0"/>
        <pt x="265" y="136" on="0"/>
        <pt x="263" y="129" on="1"/>
        <pt x="393" y="150" on="1"/>
        <pt x="447" y="112" on="1"/>
        <pt x="382" y="74" on="1"/>
        <pt x="260" y="99" on="1"/>
        <pt x="260" y="-60" on="1"/>
        <pt x="210" y="-130" on="1"/>
        <pt x="171" y="-60" on="1"/>
        <pt x="222" y="99" on="1"/>
        <pt x="86" y="74" on="1"/>
        <pt x="34" y="116" on="1"/>
        <pt x="97" y="150" on="1"/>
        <pt x="226" y="129" on="1"/>
        <pt x="226" y="140" on="0"/>
        <pt x="223" y="248" on="0"/>
        <pt x="223" y="273" on="1"/>
        <pt x="223" y="301" on="0"/>
        <pt x="225" y="317" on="0"/>
        <pt x="274" y="468" on="1"/>
        <pt x="138" y="445" on="1"/>
        <pt x="86" y="485" on="1"/>
        <pt x="149" y="524" on="1"/>
        <pt x="278" y="498" on="1"/>
        <pt x="272" y="657" on="1"/>
        <pt x="324" y="730" on="1"/>
        <pt x="361" y="657" on="1"/>
        <pt x="311" y="498" on="1"/>
        <pt x="448" y="524" on="1"/>
      </contour>
    </TTGlyph>
    <TTGlyph name="degree" xMin="20" yMin="443" xMax="322" yMax="743">
      <contour>
        <pt x="322" y="593" on="1"/>
        <pt x="322" y="530" on="0"/>
        <pt x="234" y="443" on="0"/>
        <pt x="171" y="443" on="1"/>
        <pt x="108" y="443" on="0"/>
        <pt x="20" y="530" on="0"/>
        <pt x="20" y="593" on="1"/>
        <pt x="20" y="655" on="0"/>
        <pt x="108" y="743" on="0"/>
        <pt x="170" y="743" on="1"/>
        <pt x="233" y="743" on="0"/>
        <pt x="322" y="655" on="0"/>
      </contour>
      <contour>
        <pt x="259" y="593" on="1"/>
        <pt x="259" y="630" on="0"/>
        <pt x="207" y="683" on="0"/>
        <pt x="171" y="683" on="1"/>
        <pt x="135" y="683" on="0"/>
        <pt x="83" y="630" on="0"/>
        <pt x="83" y="593" on="1"/>
        <pt x="83" y="555" on="0"/>
        <pt x="134" y="503" on="0"/>
        <pt x="170" y="503" on="1"/>
        <pt x="206" y="503" on="0"/>
        <pt x="259" y="555" on="0"/>
      </contour>
    </TTGlyph>
    <TTGlyph name="dieresis" xMin="1" yMin="567" xMax="278" yMax="681">
      <contour>
        <pt x="278" y="624" on="1"/>
        <pt x="278" y="601" on="0"/>
        <pt x="244" y="567" on="0"/>
        <pt x="221" y="567" on="1"/>
        <pt x="198" y="567" on="0"/>
        <pt x="164" y="601" on="0"/>
        <pt x="164" y="647" on="0"/>
        <pt x="198" y="681" on="0"/>
        <pt x="221" y="681" on="1"/>
        <pt x="245" y="681" on="0"/>
        <pt x="278" y="648" on="0"/>
      </contour>
      <contour>
        <pt x="115" y="624" on="1"/>
        <pt x="115" y="601" on="0"/>
        <pt x="81" y="567" on="0"/>
        <pt x="58" y="567" on="1"/>
        <pt x="35" y="567" on="0"/>
        <pt x="1" y="601" on="0"/>
        <pt x="1" y="647" on="0"/>
        <pt x="35" y="681" on="0"/>
        <pt x="58" y="681" on="1"/>
        <pt x="82" y="681" on="0"/>
        <pt x="115" y="648" on="0"/>
      </contour>
    </TTGlyph>
    <TTGlyph name="divide" xMin="68" yMin="27" xMax="567" yMax="461">
      <contour>
        <pt x="377" y="400" on="1"/>
        <pt x="377" y="375" on="0"/>
        <pt x="341" y="340" on="0"/>
        <pt x="316" y="340" on="1"/>
        <pt x="291" y="340" on="0"/>
        <pt x="255" y="375" on="0"/>
        <pt x="255" y="400" on="1"/>
        <pt x="255" y="426" on="0"/>
        <pt x="290" y="461" on="0"/>
        <pt x="316" y="461" on="1"/>
        <pt x="342" y="461" on="0"/>
        <pt x="377" y="426" on="0"/>
      </contour>
      <contour>
        <pt x="567" y="210" on="1"/>
        <pt x="68" y="210" on="1"/>
        <pt x="68" y="276" on="1"/>
        <pt x="567" y="276" on="1"/>
      </contour>
      <contour>
        <pt x="316" y="147" on="1"/>
        <pt x="342" y="147" on="0"/>
        <pt x="377" y="112" on="0"/>
        <pt x="377" y="62" on="0"/>
        <pt x="342" y="27" on="0"/>
        <pt x="316" y="27" on="1"/>
        <pt x="290" y="27" on="0"/>
        <pt x="255" y="62" on="0"/>
        <pt x="255" y="112" on="0"/>
        <pt x="291" y="147" on="0"/>
      </contour>
    </TTGlyph>
    <TTGlyph name="dollar" xMin="12" yMin="-124" xMax="373" yMax="613">
      <contour>
        <pt x="373" y="466" on="1"/>
        <pt x="337" y="405" on="1"/>
        <pt x="286" y="440" on="0"/>
        <pt x="240" y="440" on="1"/>
        <pt x="203" y="440" on="0"/>
        <pt x="147" y="399" on="0"/>
        <pt x="147" y="363" on="1"/>
        <pt x="147" y="341" on="0"/>
        <pt x="186" y="304" on="0"/>
        <pt x="242" y="273" on="0"/>
        <pt x="298" y="237" on="0"/>
        <pt x="337" y="177" on="0"/>
        <pt x="337" y="138" on="1"/>
        <pt x="337" y="73" on="0"/>
        <pt x="249" y="-7" on="0"/>
        <pt x="183" y="-14" on="1"/>
        <pt x="163" y="-124" on="1"/>
        <pt x="85" y="-124" on="1"/>
        <pt x="119" y="-13" on="1"/>
        <pt x="72" y="-7" on="0"/>
        <pt x="12" y="25" on="1"/>
        <pt x="56" y="89" on="1"/>
        <pt x="108" y="47" on="0"/>
        <pt x="155" y="47" on="1"/>
        <pt x="193" y="47" on="0"/>
        <pt x="254" y="92" on="0"/>
        <pt x="254" y="129" on="1"/>
        <pt x="254" y="155" on="0"/>
        <pt x="215" y="196" on="0"/>
        <pt x="159" y="227" on="0"/>
        <pt x="103" y="261" on="0"/>
        <pt x="64" y="317" on="0"/>
        <pt x="64" y="353" on="1"/>
        <pt x="64" y="419" on="0"/>
        <pt x="153" y="496" on="0"/>
        <pt x="220" y="502" on="1"/>
        <pt x="242" y="613" on="1"/>
        <pt x="320" y="613" on="1"/>
        <pt x="285" y="500" on="1"/>
        <pt x="331" y="494" on="0"/>
      </contour>
    </TTGlyph>
    <TTGlyph name="dotaccent" xMin="76" yMin="561" xMax="210" yMax="689">
      <contour>
        <pt x="150" y="689" on="1"/>
        <pt x="179" y="689" on="0"/>
        <pt x="210" y="654" on="0"/>
        <pt x="210" y="606" on="0"/>
        <pt x="167" y="561" on="0"/>
        <pt x="134" y="561" on="1"/>
        <pt x="105" y="561" on="0"/>
        <pt x="76" y="596" on="0"/>
        <pt x="76" y="618" on="1"/>
        <pt x="76" y="642" on="0"/>
        <pt x="118" y="689" on="0"/>
      </contour>
    </TTGlyph>
    <TTGlyph name="dotlessi" xMin="40" yMin="0" xMax="186" yMax="490">
      <contour>
        <pt x="186" y="490" on="1"/>
        <pt x="128" y="58" on="1"/>
        <pt x="128" y="0" on="1"/>
        <pt x="40" y="0" on="1"/>
        <pt x="98" y="433" on="1"/>
        <pt x="98" y="490" on="1"/>
      </contour>
    </TTGlyph>
    <TTGlyph name="e" xMin="37" yMin="-13" xMax="428" yMax="503">
      <contour>
        <pt x="428" y="397" on="1"/>
        <pt x="428" y="306" on="0"/>
        <pt x="330" y="248" on="1"/>
        <pt x="256" y="204" on="0"/>
        <pt x="122" y="202" on="1"/>
        <pt x="122" y="197" on="1"/>
        <pt x="122" y="138" on="0"/>
        <pt x="182" y="57" on="0"/>
        <pt x="239" y="57" on="1"/>
        <pt x="312" y="57" on="0"/>
        <pt x="378" y="102" on="1"/>
        <pt x="407" y="43" on="1"/>
        <pt x="328" y="-13" on="0"/>
        <pt x="234" y="-13" on="1"/>
        <pt x="144" y="-13" on="0"/>
        <pt x="37" y="101" on="0"/>
        <pt x="37" y="192" on="1"/>
        <pt x="37" y="313" on="0"/>
        <pt x="183" y="503" on="0"/>
        <pt x="300" y="503" on="1"/>
        <pt x="356" y="503" on="0"/>
        <pt x="428" y="451" on="0"/>
      </contour>
      <contour>
        <pt x="344" y="390" on="1"/>
        <pt x="344" y="415" on="0"/>
        <pt x="313" y="441" on="0"/>
        <pt x="287" y="441" on="1"/>
        <pt x="228" y="441" on="0"/>
        <pt x="133" y="322" on="0"/>
        <pt x="127" y="260" on="1"/>
        <pt x="221" y="260" on="0"/>
        <pt x="275" y="293" on="1"/>
        <pt x="302" y="310" on="0"/>
        <pt x="344" y="363" on="0"/>
      </contour>
    </TTGlyph>
    <TTGlyph name="eacute" xMin="37" yMin="-13" xMax="484" yMax="724">
      <component glyphName="acute" x="210" y="0" flags="0x4"/>
      <component glyphName="e" x="0" y="0" flags="0x4"/>
    </TTGlyph>
    <TTGlyph name="ecircumflex" xMin="37" yMin="-13" xMax="428" yMax="724">
      <component glyphName="circumflex" x="157" y="0" flags="0x4"/>
      <component glyphName="e" x="0" y="0" flags="0x4"/>
    </TTGlyph>
    <TTGlyph name="edieresis" xMin="37" yMin="-13" xMax="428" yMax="728">
      <component glyphName="dieresis" x="145" y="47" flags="0x4"/>
      <component glyphName="e" x="0" y="0" flags="0x4"/>
    </TTGlyph>
    <TTGlyph name="egrave" xMin="37" yMin="-13" xMax="428" yMax="724">
      <component glyphName="e" x="0" y="0" flags="0x4"/>
      <component glyphName="grave" x="90" y="0" flags="0x4"/>
    </TTGlyph>
    <TTGlyph name="eight" xMin="24" yMin="-13" xMax="436" yMax="722">
      <contour>
        <pt x="436" y="585" on="1"/>
        <pt x="436" y="524" on="0"/>
        <pt x="365" y="427" on="0"/>
        <pt x="302" y="377" on="1"/>
        <pt x="335" y="340" on="0"/>
        <pt x="371" y="294" on="0"/>
        <pt x="405" y="218" on="0"/>
        <pt x="405" y="180" on="1"/>
        <pt x="405" y="90" on="0"/>
        <pt x="286" y="-13" on="0"/>
        <pt x="190" y="-13" on="1"/>
        <pt x="103" y="-13" on="0"/>
        <pt x="24" y="76" on="0"/>
        <pt x="24" y="140" on="1"/>
        <pt x="24" y="175" on="0"/>
        <pt x="49" y="239" on="0"/>
        <pt x="102" y="299" on="0"/>
        <pt x="146" y="339" on="0"/>
        <pt x="184" y="369" on="1"/>
        <pt x="100" y="462" on="0"/>
        <pt x="100" y="544" on="1"/>
        <pt x="100" y="571" on="0"/>
        <pt x="121" y="630" on="0"/>
        <pt x="162" y="686" on="0"/>
        <pt x="238" y="722" on="0"/>
        <pt x="286" y="722" on="1"/>
        <pt x="333" y="722" on="0"/>
        <pt x="399" y="690" on="0"/>
        <pt x="426" y="640" on="0"/>
        <pt x="436" y="603" on="0"/>
      </contour>
      <contour>
        <pt x="358" y="582" on="1"/>
        <pt x="358" y="611" on="0"/>
        <pt x="324" y="663" on="0"/>
        <pt x="288" y="663" on="1"/>
        <pt x="238" y="663" on="0"/>
        <pt x="191" y="592" on="0"/>
        <pt x="191" y="556" on="1"/>
        <pt x="191" y="524" on="0"/>
        <pt x="224" y="467" on="0"/>
        <pt x="259" y="427" on="1"/>
        <pt x="358" y="510" on="0"/>
      </contour>
      <contour>
        <pt x="315" y="177" on="1"/>
        <pt x="315" y="228" on="0"/>
        <pt x="227" y="320" on="1"/>
        <pt x="167" y="274" on="0"/>
        <pt x="104" y="193" on="0"/>
        <pt x="104" y="97" on="0"/>
        <pt x="160" y="46" on="0"/>
        <pt x="199" y="46" on="1"/>
        <pt x="245" y="46" on="0"/>
        <pt x="315" y="113" on="0"/>
      </contour>
    </TTGlyph>
    <TTGlyph name="ellipsis" xMin="36" yMin="-13" xMax="559" yMax="120">
      <component glyphName="period" x="1" y="0" flags="0x4"/>
      <component glyphName="period" x="196" y="0" flags="0x4"/>
      <component glyphName="period" x="392" y="0" flags="0x4"/>
    </TTGlyph>
    <TTGlyph name="emdash" xMin="28" yMin="228" xMax="873" yMax="285">
      <contour>
        <pt x="873" y="285" on="1"/>
        <pt x="864" y="228" on="1"/>
        <pt x="28" y="228" on="1"/>
        <pt x="37" y="285" on="1"/>
      </contour>
    </TTGlyph>
    <TTGlyph name="endash" xMin="28" yMin="228" xMax="523" yMax="285">
      <contour>
        <pt x="523" y="285" on="1"/>
        <pt x="514" y="228" on="1"/>
        <pt x="28" y="228" on="1"/>
        <pt x="37" y="285" on="1"/>
      </contour>
    </TTGlyph>
    <TTGlyph name="equal" xMin="68" yMin="115" xMax="567" yMax="373">
      <contour>
        <pt x="567" y="305" on="1"/>
        <pt x="68" y="305" on="1"/>
        <pt x="68" y="373" on="1"/>
        <pt x="567" y="373" on="1"/>
      </contour>
      <contour>
        <pt x="567" y="115" on="1"/>
        <pt x="68" y="115" on="1"/>
        <pt x="68" y="184" on="1"/>
        <pt x="567" y="184" on="1"/>
      </contour>
    </TTGlyph>
    <TTGlyph name="eth" xMin="37" yMin="-10" xMax="471" yMax="772">
      <contour>
        <pt x="444" y="729" on="1"/>
        <pt x="341" y="673" on="1"/>
        <pt x="471" y="475" on="0"/>
        <pt x="471" y="302" on="1"/>
        <pt x="471" y="222" on="0"/>
        <pt x="412" y="81" on="0"/>
        <pt x="295" y="-10" on="0"/>
        <pt x="220" y="-10" on="1"/>
        <pt x="133" y="-10" on="0"/>
        <pt x="37" y="108" on="0"/>
        <pt x="37" y="199" on="1"/>
        <pt x="37" y="320" on="0"/>
        <pt x="179" y="505" on="0"/>
        <pt x="288" y="505" on="1"/>
        <pt x="320" y="505" on="0"/>
        <pt x="351" y="492" on="1"/>
        <pt x="321" y="573" on="0"/>
        <pt x="279" y="640" on="1"/>
        <pt x="171" y="582" on="1"/>
        <pt x="146" y="622" on="1"/>
        <pt x="254" y="680" on="1"/>
        <pt x="236" y="706" on="0"/>
        <pt x="207" y="739" on="1"/>
        <pt x="264" y="772" on="1"/>
        <pt x="302" y="728" on="0"/>
        <pt x="313" y="712" on="1"/>
        <pt x="423" y="771" on="1"/>
      </contour>
      <contour>
        <pt x="383" y="247" on="1"/>
        <pt x="386" y="268" on="0"/>
        <pt x="386" y="293" on="1"/>
        <pt x="386" y="357" on="0"/>
        <pt x="336" y="445" on="0"/>
        <pt x="280" y="445" on="1"/>
        <pt x="236" y="445" on="0"/>
        <pt x="170" y="389" on="0"/>
        <pt x="137" y="304" on="0"/>
        <pt x="121" y="229" on="0"/>
        <pt x="121" y="200" on="1"/>
        <pt x="121" y="137" on="0"/>
        <pt x="171" y="50" on="0"/>
        <pt x="227" y="50" on="1"/>
        <pt x="274" y="50" on="0"/>
        <pt x="345" y="118" on="0"/>
        <pt x="377" y="201" on="0"/>
      </contour>
    </TTGlyph>
    <TTGlyph name="exclam" xMin="35" yMin="-14" xMax="245" yMax="725">
      <contour>
        <pt x="244" y="667" on="1"/>
        <pt x="153" y="207" on="1"/>
        <pt x="95" y="216" on="1"/>
        <pt x="132" y="683" on="1"/>
        <pt x="133" y="701" on="0"/>
        <pt x="165" y="725" on="0"/>
        <pt x="186" y="725" on="1"/>
        <pt x="209" y="725" on="0"/>
        <pt x="245" y="699" on="0"/>
        <pt x="245" y="677" on="1"/>
      </contour>
      <contour>
        <pt x="101" y="-14" on="1"/>
        <pt x="73" y="-14" on="0"/>
        <pt x="35" y="25" on="0"/>
        <pt x="35" y="53" on="1"/>
        <pt x="35" y="80" on="0"/>
        <pt x="73" y="119" on="0"/>
        <pt x="100" y="119" on="1"/>
        <pt x="128" y="119" on="0"/>
        <pt x="167" y="81" on="0"/>
        <pt x="167" y="25" on="0"/>
        <pt x="128" y="-14" on="0"/>
      </contour>
    </TTGlyph>
    <TTGlyph name="exclamdown" xMin="20" yMin="-235" xMax="230" yMax="503">
      <contour>
        <pt x="21" y="-177" on="1"/>
        <pt x="112" y="283" on="1"/>
        <pt x="170" y="274" on="1"/>
        <pt x="133" y="-193" on="1"/>
        <pt x="132" y="-211" on="0"/>
        <pt x="100" y="-235" on="0"/>
        <pt x="79" y="-235" on="1"/>
        <pt x="56" y="-235" on="0"/>
        <pt x="20" y="-209" on="0"/>
        <pt x="20" y="-187" on="1"/>
      </contour>
      <contour>
        <pt x="164" y="370" on="1"/>
        <pt x="136" y="370" on="0"/>
        <pt x="98" y="409" on="0"/>
        <pt x="98" y="437" on="1"/>
        <pt x="98" y="464" on="0"/>
        <pt x="136" y="503" on="0"/>
        <pt x="163" y="503" on="1"/>
        <pt x="191" y="503" on="0"/>
        <pt x="230" y="465" on="0"/>
        <pt x="230" y="409" on="0"/>
        <pt x="191" y="370" on="0"/>
      </contour>
    </TTGlyph>
    <TTGlyph name="f" xMin="-155" yMin="-230" xMax="457" yMax="770">
      <contour>
        <pt x="457" y="731" on="1"/>
        <pt x="418" y="672" on="1"/>
        <pt x="385" y="707" on="0"/>
        <pt x="343" y="707" on="1"/>
        <pt x="304" y="707" on="0"/>
        <pt x="249" y="670" on="0"/>
        <pt x="218" y="602" on="0"/>
        <pt x="202" y="535" on="0"/>
        <pt x="197" y="490" on="1"/>
        <pt x="309" y="490" on="1"/>
        <pt x="301" y="427" on="1"/>
        <pt x="189" y="427" on="1"/>
        <pt x="122" y="-61" on="1"/>
        <pt x="98" y="-230" on="0"/>
        <pt x="-43" y="-230" on="1"/>
        <pt x="-105" y="-230" on="0"/>
        <pt x="-155" y="-198" on="1"/>
        <pt x="-115" y="-141" on="1"/>
        <pt x="-93" y="-156" on="0"/>
        <pt x="-68" y="-166" on="0"/>
        <pt x="-45" y="-166" on="1"/>
        <pt x="29" y="-166" on="0"/>
        <pt x="44" y="-52" on="1"/>
        <pt x="109" y="427" on="1"/>
        <pt x="38" y="427" on="1"/>
        <pt x="46" y="490" on="1"/>
        <pt x="118" y="490" on="1"/>
        <pt x="124" y="538" on="0"/>
        <pt x="140" y="612" on="0"/>
        <pt x="173" y="688" on="0"/>
        <pt x="219" y="738" on="0"/>
        <pt x="291" y="770" on="0"/>
        <pt x="337" y="770" on="1"/>
        <pt x="400" y="770" on="0"/>
      </contour>
    </TTGlyph>
    <TTGlyph name="fi" xMin="-155" yMin="-230" xMax="491" yMax="771">
      <contour>
        <pt x="491" y="658" on="1"/>
        <pt x="414" y="635" on="1"/>
        <pt x="410" y="670" on="0"/>
        <pt x="369" y="707" on="0"/>
        <pt x="336" y="707" on="1"/>
        <pt x="288" y="707" on="0"/>
        <pt x="218" y="624" on="0"/>
        <pt x="202" y="513" on="1"/>
        <pt x="200" y="501" on="0"/>
        <pt x="199" y="490" on="1"/>
        <pt x="460" y="490" on="1"/>
        <pt x="404" y="62" on="1"/>
        <pt x="404" y="0" on="1"/>
        <pt x="315" y="0" on="1"/>
        <pt x="372" y="427" on="1"/>
        <pt x="189" y="427" on="1"/>
        <pt x="122" y="-62" on="1"/>
        <pt x="112" y="-141" on="0"/>
        <pt x="25" y="-230" on="0"/>
        <pt x="-43" y="-230" on="1"/>
        <pt x="-107" y="-230" on="0"/>
        <pt x="-155" y="-199" on="1"/>
        <pt x="-115" y="-142" on="1"/>
        <pt x="-93" y="-157" on="0"/>
        <pt x="-69" y="-166" on="0"/>
        <pt x="-45" y="-166" on="1"/>
        <pt x="29" y="-166" on="0"/>
        <pt x="44" y="-52" on="1"/>
        <pt x="109" y="427" on="1"/>
        <pt x="38" y="427" on="1"/>
        <pt x="47" y="490" on="1"/>
        <pt x="119" y="490" on="1"/>
        <pt x="129" y="558" on="0"/>
        <pt x="155" y="649" on="0"/>
        <pt x="202" y="731" on="0"/>
        <pt x="282" y="771" on="0"/>
        <pt x="339" y="771" on="1"/>
        <pt x="398" y="771" on="0"/>
        <pt x="480" y="713" on="0"/>
      </contour>
    </TTGlyph>
    <TTGlyph name="five" xMin="-26" yMin="-207" xMax="328" yMax="490">
      <contour>
        <pt x="328" y="490" on="1"/>
        <pt x="304" y="406" on="1"/>
        <pt x="136" y="406" on="1"/>
        <pt x="105" y="327" on="1"/>
        <pt x="131" y="313" on="0"/>
        <pt x="180" y="274" on="0"/>
        <pt x="236" y="213" on="0"/>
        <pt x="270" y="128" on="0"/>
        <pt x="270" y="80" on="1"/>
        <pt x="270" y="13" on="0"/>
        <pt x="212" y="-96" on="0"/>
        <pt x="129" y="-155" on="0"/>
        <pt x="46" y="-195" on="0"/>
        <pt x="17" y="-201" on="1"/>
        <pt x="-12" y="-207" on="1"/>
        <pt x="-26" y="-155" on="1"/>
        <pt x="184" y="-86" on="0"/>
        <pt x="184" y="75" on="1"/>
        <pt x="184" y="135" on="0"/>
        <pt x="87" y="250" on="0"/>
        <pt x="18" y="283" on="1"/>
        <pt x="103" y="490" on="1"/>
      </contour>
    </TTGlyph>
    <TTGlyph name="fl" xMin="-154" yMin="-230" xMax="514" yMax="772">
      <contour>
        <pt x="514" y="766" on="1"/>
        <pt x="420" y="63" on="1"/>
        <pt x="420" y="0" on="1"/>
        <pt x="330" y="0" on="1"/>
        <pt x="418" y="646" on="1"/>
        <pt x="418" y="673" on="0"/>
        <pt x="377" y="709" on="0"/>
        <pt x="345" y="709" on="1"/>
        <pt x="320" y="709" on="0"/>
        <pt x="282" y="695" on="0"/>
        <pt x="241" y="657" on="0"/>
        <pt x="210" y="575" on="0"/>
        <pt x="202" y="513" on="1"/>
        <pt x="201" y="501" on="0"/>
        <pt x="199" y="490" on="1"/>
        <pt x="311" y="490" on="1"/>
        <pt x="302" y="427" on="1"/>
        <pt x="190" y="427" on="1"/>
        <pt x="123" y="-62" on="1"/>
        <pt x="100" y="-230" on="0"/>
        <pt x="-42" y="-230" on="1"/>
        <pt x="-106" y="-230" on="0"/>
        <pt x="-154" y="-199" on="1"/>
        <pt x="-114" y="-141" on="1"/>
        <pt x="-93" y="-156" on="0"/>
        <pt x="-68" y="-166" on="0"/>
        <pt x="-44" y="-166" on="1"/>
        <pt x="30" y="-166" on="0"/>
        <pt x="45" y="-52" on="1"/>
        <pt x="109" y="427" on="1"/>
        <pt x="38" y="427" on="1"/>
        <pt x="47" y="490" on="1"/>
        <pt x="119" y="490" on="1"/>
        <pt x="125" y="538" on="0"/>
        <pt x="140" y="608" on="0"/>
        <pt x="172" y="688" on="0"/>
        <pt x="217" y="738" on="0"/>
        <pt x="292" y="772" on="0"/>
        <pt x="341" y="772" on="1"/>
        <pt x="404" y="772" on="0"/>
        <pt x="445" y="740" on="1"/>
      </contour>
    </TTGlyph>
    <TTGlyph name="florin" xMin="-108" yMin="-230" xMax="632" yMax="772">
      <contour>
        <pt x="632" y="732" on="1"/>
        <pt x="585" y="674" on="1"/>
        <pt x="558" y="709" on="0"/>
        <pt x="516" y="709" on="1"/>
        <pt x="478" y="709" on="0"/>
        <pt x="417" y="672" on="0"/>
        <pt x="376" y="601" on="0"/>
        <pt x="351" y="536" on="0"/>
        <pt x="339" y="490" on="1"/>
        <pt x="452" y="490" on="1"/>
        <pt x="434" y="427" on="1"/>
        <pt x="322" y="427" on="1"/>
        <pt x="188" y="-62" on="1"/>
        <pt x="141" y="-230" on="0"/>
        <pt x="0" y="-230" on="1"/>
        <pt x="-66" y="-230" on="0"/>
        <pt x="-108" y="-198" on="1"/>
        <pt x="-62" y="-142" on="1"/>
        <pt x="-35" y="-160" on="1"/>
        <pt x="-22" y="-166" on="0"/>
        <pt x="5" y="-166" on="1"/>
        <pt x="79" y="-166" on="0"/>
        <pt x="111" y="-52" on="1"/>
        <pt x="241" y="427" on="1"/>
        <pt x="170" y="427" on="1"/>
        <pt x="188" y="490" on="1"/>
        <pt x="260" y="490" on="1"/>
        <pt x="272" y="538" on="0"/>
        <pt x="299" y="612" on="0"/>
        <pt x="342" y="689" on="0"/>
        <pt x="395" y="740" on="0"/>
        <pt x="471" y="772" on="0"/>
        <pt x="517" y="772" on="1"/>
        <pt x="582" y="772" on="0"/>
      </contour>
    </TTGlyph>
    <TTGlyph name="four" xMin="-3" yMin="-183" xMax="453" yMax="490">
      <contour>
        <pt x="453" y="69" on="1"/>
        <pt x="441" y="0" on="1"/>
        <pt x="348" y="0" on="1"/>
        <pt x="323" y="-183" on="1"/>
        <pt x="244" y="-183" on="1"/>
        <pt x="269" y="0" on="1"/>
        <pt x="-3" y="0" on="1"/>
        <pt x="-3" y="41" on="1"/>
        <pt x="320" y="490" on="1"/>
        <pt x="414" y="490" on="1"/>
        <pt x="358" y="69" on="1"/>
      </contour>
      <contour>
        <pt x="322" y="391" on="1"/>
        <pt x="90" y="69" on="1"/>
        <pt x="278" y="69" on="1"/>
      </contour>
    </TTGlyph>
    <TTGlyph name="fraction" xMin="-99" yMin="-22" xMax="356" yMax="753">
      <contour>
        <pt x="-40" y="-22" on="1"/>
        <pt x="-99" y="-22" on="1"/>
        <pt x="297" y="753" on="1"/>
        <pt x="356" y="753" on="1"/>
      </contour>
    </TTGlyph>
    <TTGlyph name="g" xMin="18" yMin="-230" xMax="477" yMax="512">
      <contour>
        <pt x="477" y="512" on="1"/>
        <pt x="419" y="93" on="1"/>
        <pt x="412" y="43" on="0"/>
        <pt x="394" y="-37" on="0"/>
        <pt x="356" y="-128" on="0"/>
        <pt x="304" y="-189" on="0"/>
        <pt x="221" y="-230" on="0"/>
        <pt x="168" y="-230" on="1"/>
        <pt x="93" y="-230" on="0"/>
        <pt x="18" y="-185" on="1"/>
        <pt x="59" y="-122" on="1"/>
        <pt x="109" y="-168" on="0"/>
        <pt x="159" y="-168" on="1"/>
        <pt x="294" y="-168" on="0"/>
        <pt x="339" y="74" on="1"/>
        <pt x="336" y="75" on="1"/>
        <pt x="286" y="-13" on="0"/>
        <pt x="197" y="-13" on="1"/>
        <pt x="120" y="-13" on="0"/>
        <pt x="39" y="95" on="0"/>
        <pt x="39" y="176" on="1"/>
        <pt x="39" y="253" on="0"/>
        <pt x="102" y="401" on="0"/>
        <pt x="230" y="503" on="0"/>
        <pt x="311" y="503" on="1"/>
        <pt x="356" y="503" on="0"/>
        <pt x="403" y="481" on="1"/>
      </contour>
      <contour>
        <pt x="386" y="422" on="1"/>
        <pt x="352" y="441" on="0"/>
        <pt x="313" y="441" on="1"/>
        <pt x="254" y="441" on="0"/>
        <pt x="167" y="349" on="0"/>
        <pt x="131" y="231" on="0"/>
        <pt x="131" y="173" on="1"/>
        <pt x="131" y="123" on="0"/>
        <pt x="170" y="49" on="0"/>
        <pt x="213" y="49" on="1"/>
        <pt x="330" y="49" on="0"/>
        <pt x="370" y="315" on="1"/>
      </contour>
    </TTGlyph>
    <TTGlyph name="germandbls" xMin="-155" yMin="-230" xMax="489" yMax="733">
      <contour>
        <pt x="489" y="181" on="1"/>
        <pt x="489" y="89" on="0"/>
        <pt x="372" y="-13" on="0"/>
        <pt x="280" y="-13" on="1"/>
        <pt x="225" y="-13" on="0"/>
        <pt x="182" y="8" on="1"/>
        <pt x="206" y="66" on="1"/>
        <pt x="245" y="52" on="0"/>
        <pt x="281" y="52" on="1"/>
        <pt x="334" y="52" on="0"/>
        <pt x="402" y="121" on="0"/>
        <pt x="402" y="175" on="1"/>
        <pt x="402" y="205" on="0"/>
        <pt x="369" y="257" on="0"/>
        <pt x="322" y="294" on="0"/>
        <pt x="275" y="329" on="0"/>
        <pt x="242" y="371" on="0"/>
        <pt x="242" y="393" on="1"/>
        <pt x="242" y="423" on="0"/>
        <pt x="294" y="456" on="1"/>
        <pt x="307" y="464" on="0"/>
        <pt x="323" y="475" on="1"/>
        <pt x="400" y="526" on="0"/>
        <pt x="400" y="596" on="1"/>
        <pt x="400" y="628" on="0"/>
        <pt x="366" y="666" on="0"/>
        <pt x="335" y="666" on="1"/>
        <pt x="273" y="666" on="0"/>
        <pt x="207" y="562" on="0"/>
        <pt x="197" y="488" on="1"/>
        <pt x="122" y="-61" on="1"/>
        <pt x="99" y="-230" on="0"/>
        <pt x="-43" y="-230" on="1"/>
        <pt x="-105" y="-230" on="0"/>
        <pt x="-155" y="-198" on="1"/>
        <pt x="-115" y="-141" on="1"/>
        <pt x="-93" y="-157" on="0"/>
        <pt x="-69" y="-166" on="0"/>
        <pt x="-45" y="-166" on="1"/>
        <pt x="29" y="-166" on="0"/>
        <pt x="44" y="-52" on="1"/>
        <pt x="109" y="427" on="1"/>
        <pt x="37" y="427" on="1"/>
        <pt x="45" y="490" on="1"/>
        <pt x="117" y="490" on="1"/>
        <pt x="132" y="596" on="0"/>
        <pt x="241" y="733" on="0"/>
        <pt x="342" y="733" on="1"/>
        <pt x="404" y="733" on="0"/>
        <pt x="484" y="662" on="0"/>
        <pt x="484" y="600" on="1"/>
        <pt x="484" y="499" on="0"/>
        <pt x="398" y="447" on="1"/>
        <pt x="397" y="447" on="0"/>
        <pt x="340" y="416" on="1"/>
        <pt x="316" y="405" on="0"/>
        <pt x="316" y="397" on="1"/>
        <pt x="316" y="387" on="0"/>
        <pt x="341" y="371" on="1"/>
        <pt x="347" y="367" on="0"/>
        <pt x="388" y="341" on="0"/>
        <pt x="400" y="333" on="1"/>
        <pt x="489" y="270" on="0"/>
      </contour>
    </TTGlyph>
    <TTGlyph name="grave" xMin="50" yMin="577" xMax="250" yMax="724">
      <contour>
        <pt x="250" y="577" on="1"/>
        <pt x="177" y="577" on="1"/>
        <pt x="50" y="724" on="1"/>
        <pt x="168" y="724" on="1"/>
      </contour>
    </TTGlyph>
    <TTGlyph name="greater" xMin="68" yMin="-7" xMax="566" yMax="494">
      <contour>
        <pt x="566" y="208" on="1"/>
        <pt x="68" y="-7" on="1"/>
        <pt x="68" y="68" on="1"/>
        <pt x="473" y="243" on="1"/>
        <pt x="68" y="418" on="1"/>
        <pt x="68" y="494" on="1"/>
        <pt x="566" y="281" on="1"/>
      </contour>
    </TTGlyph>
    <TTGlyph name="greaterequal" xMin="69" yMin="0" xMax="567" yMax="497">
      <contour>
        <pt x="567" y="250" on="1"/>
        <pt x="69" y="76" on="1"/>
        <pt x="69" y="151" on="1"/>
        <pt x="471" y="286" on="1"/>
        <pt x="69" y="421" on="1"/>
        <pt x="69" y="497" on="1"/>
        <pt x="567" y="324" on="1"/>
      </contour>
      <contour>
        <pt x="567" y="0" on="1"/>
        <pt x="69" y="0" on="1"/>
        <pt x="69" y="69" on="1"/>
        <pt x="567" y="69" on="1"/>
      </contour>
    </TTGlyph>
    <TTGlyph name="guillemotleft" xMin="45" yMin="172" xMax="422" yMax="493">
      <contour>
        <pt x="422" y="482" on="1"/>
        <pt x="283" y="331" on="1"/>
        <pt x="380" y="181" on="1"/>
        <pt x="320" y="172" on="1"/>
        <pt x="193" y="332" on="1"/>
        <pt x="360" y="493" on="1"/>
      </contour>
      <contour>
        <pt x="272" y="482" on="1"/>
        <pt x="135" y="331" on="1"/>
        <pt x="231" y="181" on="1"/>
        <pt x="172" y="172" on="1"/>
        <pt x="45" y="332" on="1"/>
        <pt x="212" y="493" on="1"/>
      </contour>
    </TTGlyph>
    <TTGlyph name="guillemotright" xMin="45" yMin="172" xMax="422" yMax="493">
      <contour>
        <pt x="422" y="333" on="1"/>
        <pt x="254" y="172" on="1"/>
        <pt x="194" y="183" on="1"/>
        <pt x="332" y="334" on="1"/>
        <pt x="235" y="485" on="1"/>
        <pt x="295" y="493" on="1"/>
      </contour>
      <contour>
        <pt x="274" y="333" on="1"/>
        <pt x="106" y="172" on="1"/>
        <pt x="45" y="183" on="1"/>
        <pt x="184" y="334" on="1"/>
        <pt x="86" y="485" on="1"/>
        <pt x="147" y="493" on="1"/>
      </contour>
    </TTGlyph>
    <TTGlyph name="guilsinglleft" xMin="56" yMin="169" xMax="264" yMax="490">
      <contour>
        <pt x="264" y="178" on="1"/>
        <pt x="205" y="169" on="1"/>
        <pt x="56" y="329" on="1"/>
        <pt x="201" y="490" on="1"/>
        <pt x="262" y="479" on="1"/>
        <pt x="146" y="329" on="1"/>
      </contour>
    </TTGlyph>
    <TTGlyph name="guilsinglright" xMin="54" yMin="167" xMax="262" yMax="488">
      <contour>
        <pt x="262" y="327" on="1"/>
        <pt x="113" y="167" on="1"/>
        <pt x="54" y="176" on="1"/>
        <pt x="172" y="327" on="1"/>
        <pt x="56" y="477" on="1"/>
        <pt x="117" y="488" on="1"/>
      </contour>
    </TTGlyph>
    <TTGlyph name="h" xMin="39" yMin="0" xMax="453" yMax="764">
      <contour>
        <pt x="450" y="328" on="1"/>
        <pt x="415" y="58" on="1"/>
        <pt x="417" y="0" on="1"/>
        <pt x="326" y="0" on="1"/>
        <pt x="366" y="302" on="1"/>
        <pt x="370" y="334" on="0"/>
        <pt x="370" y="354" on="1"/>
        <pt x="370" y="431" on="0"/>
        <pt x="306" y="431" on="1"/>
        <pt x="249" y="431" on="0"/>
        <pt x="168" y="365" on="1"/>
        <pt x="119" y="0" on="1"/>
        <pt x="39" y="0" on="1"/>
        <pt x="134" y="707" on="1"/>
        <pt x="134" y="764" on="1"/>
        <pt x="222" y="764" on="1"/>
        <pt x="175" y="428" on="1"/>
        <pt x="250" y="503" on="0"/>
        <pt x="327" y="503" on="1"/>
        <pt x="453" y="503" on="0"/>
        <pt x="453" y="373" on="1"/>
        <pt x="453" y="352" on="0"/>
      </contour>
    </TTGlyph>
    <TTGlyph name="hungarumlaut" xMin="-12" yMin="557" xMax="337" yMax="724">
      <contour>
        <pt x="337" y="724" on="1"/>
        <pt x="182" y="557" on="1"/>
        <pt x="122" y="557" on="1"/>
        <pt x="224" y="724" on="1"/>
      </contour>
      <contour>
        <pt x="202" y="724" on="1"/>
        <pt x="48" y="557" on="1"/>
        <pt x="-12" y="557" on="1"/>
        <pt x="89" y="724" on="1"/>
      </contour>
    </TTGlyph>
    <TTGlyph name="hyphen" xMin="34" yMin="222" xMax="286" yMax="293">
      <contour>
        <pt x="286" y="293" on="1"/>
        <pt x="275" y="222" on="1"/>
        <pt x="34" y="222" on="1"/>
        <pt x="45" y="293" on="1"/>
      </contour>
    </TTGlyph>
    <TTGlyph name="i" xMin="40" yMin="0" xMax="227" yMax="719">
      <contour>
        <pt x="227" y="668" on="1"/>
        <pt x="227" y="642" on="0"/>
        <pt x="188" y="602" on="0"/>
        <pt x="161" y="602" on="1"/>
        <pt x="139" y="602" on="0"/>
        <pt x="110" y="631" on="0"/>
        <pt x="110" y="652" on="1"/>
        <pt x="110" y="677" on="0"/>
        <pt x="150" y="719" on="0"/>
        <pt x="176" y="719" on="1"/>
        <pt x="198" y="719" on="0"/>
        <pt x="227" y="689" on="0"/>
      </contour>
      <contour>
        <pt x="186" y="490" on="1"/>
        <pt x="128" y="58" on="1"/>
        <pt x="128" y="0" on="1"/>
        <pt x="40" y="0" on="1"/>
        <pt x="98" y="433" on="1"/>
        <pt x="98" y="490" on="1"/>
      </contour>
    </TTGlyph>
    <TTGlyph name="iacute" xMin="40" yMin="0" xMax="334" yMax="724">
      <component glyphName="dotlessi" x="0" y="0" flags="0x204"/>
      <component glyphName="acute" x="60" y="0" flags="0x4"/>
    </TTGlyph>
    <TTGlyph name="icircumflex" xMin="10" yMin="0" xMax="287" yMax="724">
      <component glyphName="circumflex" x="21" y="0" flags="0x4"/>
      <component glyphName="dotlessi" x="0" y="0" flags="0x4"/>
    </TTGlyph>
    <TTGlyph name="idieresis" xMin="11" yMin="0" xMax="288" yMax="728">
      <component glyphName="dotlessi" x="0" y="0" flags="0x204"/>
      <component glyphName="dieresis" x="10" y="47" flags="0x4"/>
    </TTGlyph>
    <TTGlyph name="igrave" xMin="-11" yMin="0" xMax="189" yMax="724">
      <component glyphName="dotlessi" x="0" y="0" flags="0x204"/>
      <component glyphName="grave" x="-61" y="0" flags="0x4"/>
    </TTGlyph>
    <TTGlyph name="infinity" xMin="78" yMin="82" xMax="734" yMax="414">
      <contour>
        <pt x="581" y="82" on="1"/>
        <pt x="529" y="82" on="0"/>
        <pt x="448" y="143" on="0"/>
        <pt x="406" y="197" on="1"/>
        <pt x="364" y="143" on="0"/>
        <pt x="283" y="82" on="0"/>
        <pt x="231" y="82" on="1"/>
        <pt x="162" y="82" on="0"/>
        <pt x="78" y="175" on="0"/>
        <pt x="78" y="321" on="0"/>
        <pt x="162" y="414" on="0"/>
        <pt x="232" y="414" on="1"/>
        <pt x="283" y="414" on="0"/>
        <pt x="364" y="353" on="0"/>
        <pt x="406" y="300" on="1"/>
        <pt x="448" y="353" on="0"/>
        <pt x="529" y="414" on="0"/>
        <pt x="580" y="414" on="1"/>
        <pt x="650" y="414" on="0"/>
        <pt x="734" y="321" on="0"/>
        <pt x="734" y="175" on="0"/>
        <pt x="650" y="82" on="0"/>
      </contour>
      <contour>
        <pt x="580" y="333" on="1"/>
        <pt x="543" y="333" on="0"/>
        <pt x="481" y="287" on="0"/>
        <pt x="448" y="248" on="1"/>
        <pt x="518" y="164" on="0"/>
        <pt x="582" y="164" on="1"/>
        <pt x="621" y="164" on="0"/>
        <pt x="668" y="209" on="0"/>
        <pt x="668" y="287" on="0"/>
        <pt x="619" y="333" on="0"/>
      </contour>
      <contour>
        <pt x="364" y="248" on="1"/>
        <pt x="343" y="273" on="0"/>
        <pt x="310" y="305" on="0"/>
        <pt x="258" y="333" on="0"/>
        <pt x="232" y="333" on="1"/>
        <pt x="193" y="333" on="0"/>
        <pt x="144" y="287" on="0"/>
        <pt x="144" y="209" on="0"/>
        <pt x="191" y="164" on="0"/>
        <pt x="230" y="164" on="1"/>
        <pt x="294" y="164" on="0"/>
      </contour>
    </TTGlyph>
    <TTGlyph name="integral" xMin="-7" yMin="-226" xMax="268" yMax="734">
      <contour>
        <pt x="-7" y="-226" on="1"/>
        <pt x="-7" y="-169" on="1"/>
        <pt x="41" y="-169" on="0"/>
        <pt x="92" y="-101" on="0"/>
        <pt x="92" y="-56" on="1"/>
        <pt x="92" y="544" on="1"/>
        <pt x="92" y="734" on="0"/>
        <pt x="268" y="734" on="1"/>
        <pt x="268" y="676" on="1"/>
        <pt x="221" y="676" on="0"/>
        <pt x="175" y="609" on="0"/>
        <pt x="175" y="563" on="1"/>
        <pt x="175" y="-36" on="1"/>
        <pt x="175" y="-128" on="0"/>
        <pt x="84" y="-226" on="0"/>
      </contour>
    </TTGlyph>
    <TTGlyph name="j" xMin="-164" yMin="-230" xMax="229" yMax="718">
      <contour>
        <pt x="229" y="668" on="1"/>
        <pt x="229" y="642" on="0"/>
        <pt x="190" y="601" on="0"/>
        <pt x="163" y="601" on="1"/>
        <pt x="140" y="601" on="0"/>
        <pt x="112" y="631" on="0"/>
        <pt x="112" y="652" on="1"/>
        <pt x="112" y="678" on="0"/>
        <pt x="150" y="718" on="0"/>
        <pt x="177" y="718" on="1"/>
        <pt x="200" y="718" on="0"/>
        <pt x="229" y="689" on="0"/>
      </contour>
      <contour>
        <pt x="189" y="490" on="1"/>
        <pt x="114" y="-61" on="1"/>
        <pt x="91" y="-230" on="0"/>
        <pt x="-51" y="-230" on="1"/>
        <pt x="-112" y="-230" on="0"/>
        <pt x="-164" y="-198" on="1"/>
        <pt x="-124" y="-141" on="1"/>
        <pt x="-92" y="-166" on="0"/>
        <pt x="-54" y="-166" on="1"/>
        <pt x="20" y="-166" on="0"/>
        <pt x="35" y="-52" on="1"/>
        <pt x="102" y="433" on="1"/>
        <pt x="102" y="490" on="1"/>
      </contour>
    </TTGlyph>
    <TTGlyph name="k" xMin="39" yMin="0" xMax="444" yMax="764">
      <contour>
        <pt x="444" y="490" on="1"/>
        <pt x="237" y="286" on="1"/>
        <pt x="406" y="0" on="1"/>
        <pt x="312" y="0" on="1"/>
        <pt x="155" y="267" on="1"/>
        <pt x="119" y="0" on="1"/>
        <pt x="39" y="0" on="1"/>
        <pt x="135" y="707" on="1"/>
        <pt x="135" y="764" on="1"/>
        <pt x="223" y="764" on="1"/>
        <pt x="159" y="293" on="1"/>
        <pt x="357" y="490" on="1"/>
      </contour>
    </TTGlyph>
    <TTGlyph name="l" xMin="39" yMin="0" xMax="223" yMax="764">
      <contour>
        <pt x="223" y="764" on="1"/>
        <pt x="128" y="58" on="1"/>
        <pt x="128" y="0" on="1"/>
        <pt x="39" y="0" on="1"/>
        <pt x="135" y="707" on="1"/>
        <pt x="135" y="764" on="1"/>
      </contour>
    </TTGlyph>
    <TTGlyph name="less" xMin="68" yMin="-7" xMax="566" yMax="494">
      <contour>
        <pt x="566" y="-7" on="1"/>
        <pt x="68" y="208" on="1"/>
        <pt x="68" y="281" on="1"/>
        <pt x="566" y="494" on="1"/>
        <pt x="566" y="418" on="1"/>
        <pt x="161" y="243" on="1"/>
        <pt x="566" y="68" on="1"/>
      </contour>
    </TTGlyph>
    <TTGlyph name="lessequal" xMin="68" yMin="0" xMax="566" yMax="497">
      <contour>
        <pt x="566" y="76" on="1"/>
        <pt x="68" y="250" on="1"/>
        <pt x="68" y="324" on="1"/>
        <pt x="566" y="497" on="1"/>
        <pt x="566" y="421" on="1"/>
        <pt x="164" y="286" on="1"/>
        <pt x="566" y="151" on="1"/>
      </contour>
      <contour>
        <pt x="566" y="0" on="1"/>
        <pt x="68" y="0" on="1"/>
        <pt x="68" y="69" on="1"/>
        <pt x="566" y="69" on="1"/>
      </contour>
    </TTGlyph>
    <TTGlyph name="logicalnot" xMin="72" yMin="89" xMax="565" yMax="339">
      <contour>
        <pt x="565" y="89" on="1"/>
        <pt x="504" y="89" on="1"/>
        <pt x="504" y="279" on="1"/>
        <pt x="72" y="279" on="1"/>
        <pt x="72" y="339" on="1"/>
        <pt x="565" y="339" on="1"/>
      </contour>
    </TTGlyph>
    <TTGlyph name="lozenge" xMin="37" yMin="-11" xMax="467" yMax="732">
      <contour>
        <pt x="402" y="360" on="1"/>
        <pt x="251" y="651" on="1"/>
        <pt x="151" y="457" on="0"/>
        <pt x="102" y="360" on="1"/>
        <pt x="219" y="129" on="0"/>
        <pt x="252" y="65" on="1"/>
        <pt x="269" y="98" on="0"/>
        <pt x="373" y="305" on="0"/>
      </contour>
      <contour>
        <pt x="272" y="-11" on="1"/>
        <pt x="232" y="-11" on="1"/>
        <pt x="37" y="360" on="1"/>
        <pt x="66" y="416" on="0"/>
        <pt x="131" y="540" on="0"/>
        <pt x="210" y="691" on="0"/>
        <pt x="232" y="732" on="1"/>
        <pt x="272" y="732" on="1"/>
        <pt x="294" y="691" on="0"/>
        <pt x="373" y="540" on="0"/>
        <pt x="438" y="416" on="0"/>
        <pt x="467" y="360" on="1"/>
      </contour>
    </TTGlyph>
    <TTGlyph name="lslash" xMin="2" yMin="0" xMax="251" yMax="764">
      <contour>
        <pt x="241" y="371" on="1"/>
        <pt x="165" y="337" on="1"/>
        <pt x="128" y="58" on="1"/>
        <pt x="128" y="0" on="1"/>
        <pt x="39" y="0" on="1"/>
        <pt x="79" y="298" on="1"/>
        <pt x="2" y="264" on="1"/>
        <pt x="12" y="332" on="1"/>
        <pt x="88" y="366" on="1"/>
        <pt x="135" y="707" on="1"/>
        <pt x="135" y="764" on="1"/>
        <pt x="223" y="764" on="1"/>
        <pt x="174" y="405" on="1"/>
        <pt x="251" y="439" on="1"/>
      </contour>
    </TTGlyph>
    <TTGlyph name="m" xMin="41" yMin="0" xMax="722" yMax="503">
      <contour>
        <pt x="719" y="329" on="1"/>
        <pt x="683" y="58" on="1"/>
        <pt x="683" y="0" on="1"/>
        <pt x="596" y="0" on="1"/>
        <pt x="636" y="303" on="1"/>
        <pt x="640" y="335" on="0"/>
        <pt x="640" y="353" on="1"/>
        <pt x="640" y="431" on="0"/>
        <pt x="575" y="431" on="1"/>
        <pt x="522" y="431" on="0"/>
        <pt x="444" y="364" on="1"/>
        <pt x="444" y="348" on="0"/>
        <pt x="441" y="329" on="1"/>
        <pt x="398" y="0" on="1"/>
        <pt x="318" y="0" on="1"/>
        <pt x="358" y="303" on="1"/>
        <pt x="362" y="335" on="0"/>
        <pt x="362" y="355" on="1"/>
        <pt x="362" y="431" on="0"/>
        <pt x="298" y="431" on="1"/>
        <pt x="250" y="431" on="0"/>
        <pt x="169" y="365" on="1"/>
        <pt x="120" y="0" on="1"/>
        <pt x="41" y="0" on="1"/>
        <pt x="88" y="359" on="1"/>
        <pt x="91" y="382" on="0"/>
        <pt x="91" y="402" on="1"/>
        <pt x="91" y="426" on="0"/>
        <pt x="84" y="470" on="0"/>
        <pt x="80" y="480" on="1"/>
        <pt x="76" y="490" on="1"/>
        <pt x="164" y="500" on="1"/>
        <pt x="173" y="473" on="0"/>
        <pt x="173" y="428" on="1"/>
        <pt x="257" y="503" on="0"/>
        <pt x="320" y="503" on="1"/>
        <pt x="412" y="503" on="0"/>
        <pt x="439" y="421" on="1"/>
        <pt x="530" y="503" on="0"/>
        <pt x="597" y="503" on="1"/>
        <pt x="722" y="503" on="0"/>
        <pt x="722" y="373" on="1"/>
        <pt x="722" y="353" on="0"/>
      </contour>
    </TTGlyph>
    <TTGlyph name="macron" xMin="-8" yMin="598" xMax="282" yMax="657">
      <contour>
        <pt x="282" y="598" on="1"/>
        <pt x="-8" y="598" on="1"/>
        <pt x="-8" y="657" on="1"/>
        <pt x="282" y="657" on="1"/>
      </contour>
    </TTGlyph>
    <TTGlyph name="minus" xMin="72" yMin="216" xMax="564" yMax="277">
      <component glyphName="uni00AD" x="0" y="0" flags="0x204"/>
    </TTGlyph>
    <TTGlyph name="mu" xMin="53" yMin="-186" xMax="526" yMax="490">
      <contour>
        <pt x="511" y="490" on="1"/>
        <pt x="455" y="70" on="1"/>
        <pt x="455" y="59" on="0"/>
        <pt x="466" y="59" on="1"/>
        <pt x="475" y="59" on="0"/>
        <pt x="500" y="65" on="0"/>
        <pt x="508" y="68" on="1"/>
        <pt x="516" y="71" on="1"/>
        <pt x="526" y="20" on="1"/>
        <pt x="466" y="-12" on="0"/>
        <pt x="426" y="-12" on="1"/>
        <pt x="401" y="-12" on="0"/>
        <pt x="376" y="24" on="0"/>
        <pt x="376" y="52" on="1"/>
        <pt x="376" y="58" on="1"/>
        <pt x="348" y="33" on="0"/>
        <pt x="261" y="-13" on="0"/>
        <pt x="222" y="-13" on="1"/>
        <pt x="191" y="-13" on="0"/>
        <pt x="161" y="1" on="1"/>
        <pt x="135" y="-186" on="1"/>
        <pt x="53" y="-186" on="1"/>
        <pt x="136" y="433" on="1"/>
        <pt x="132" y="490" on="1"/>
        <pt x="224" y="490" on="1"/>
        <pt x="183" y="189" on="1"/>
        <pt x="179" y="157" on="0"/>
        <pt x="179" y="141" on="1"/>
        <pt x="179" y="61" on="0"/>
        <pt x="244" y="61" on="1"/>
        <pt x="283" y="61" on="0"/>
        <pt x="364" y="109" on="0"/>
        <pt x="382" y="127" on="1"/>
        <pt x="423" y="433" on="1"/>
        <pt x="419" y="490" on="1"/>
      </contour>
    </TTGlyph>
    <TTGlyph name="multiply" xMin="71" yMin="50" xMax="463" yMax="442">
      <contour>
        <pt x="463" y="94" on="1"/>
        <pt x="419" y="50" on="1"/>
        <pt x="267" y="202" on="1"/>
        <pt x="115" y="50" on="1"/>
        <pt x="71" y="94" on="1"/>
        <pt x="224" y="246" on="1"/>
        <pt x="71" y="398" on="1"/>
        <pt x="115" y="442" on="1"/>
        <pt x="267" y="290" on="1"/>
        <pt x="419" y="442" on="1"/>
        <pt x="463" y="398" on="1"/>
        <pt x="310" y="246" on="1"/>
      </contour>
    </TTGlyph>
    <TTGlyph name="n" xMin="41" yMin="0" xMax="454" yMax="503">
      <contour>
        <pt x="451" y="329" on="1"/>
        <pt x="415" y="58" on="1"/>
        <pt x="415" y="0" on="1"/>
        <pt x="327" y="0" on="1"/>
        <pt x="368" y="303" on="1"/>
        <pt x="373" y="346" on="0"/>
        <pt x="373" y="357" on="1"/>
        <pt x="373" y="431" on="0"/>
        <pt x="308" y="431" on="1"/>
        <pt x="246" y="431" on="0"/>
        <pt x="170" y="365" on="1"/>
        <pt x="121" y="0" on="1"/>
        <pt x="41" y="0" on="1"/>
        <pt x="88" y="350" on="1"/>
        <pt x="92" y="375" on="0"/>
        <pt x="92" y="402" on="1"/>
        <pt x="92" y="428" on="0"/>
        <pt x="84" y="472" on="0"/>
        <pt x="80" y="481" on="1"/>
        <pt x="76" y="490" on="1"/>
        <pt x="164" y="500" on="1"/>
        <pt x="171" y="475" on="0"/>
        <pt x="173" y="428" on="1"/>
        <pt x="257" y="503" on="0"/>
        <pt x="330" y="503" on="1"/>
        <pt x="454" y="503" on="0"/>
        <pt x="454" y="373" on="1"/>
        <pt x="454" y="353" on="0"/>
      </contour>
    </TTGlyph>
    <TTGlyph name="nine" xMin="-7" yMin="-215" xMax="461" yMax="503">
      <contour>
        <pt x="461" y="305" on="1"/>
        <pt x="461" y="280" on="0"/>
        <pt x="458" y="256" on="1"/>
        <pt x="439" y="120" on="0"/>
        <pt x="271" y="-91" on="0"/>
        <pt x="142" y="-162" on="1"/>
        <pt x="87" y="-192" on="0"/>
        <pt x="16" y="-215" on="1"/>
        <pt x="-7" y="-163" on="1"/>
        <pt x="258" y="-55" on="0"/>
        <pt x="338" y="136" on="1"/>
        <pt x="274" y="87" on="0"/>
        <pt x="198" y="87" on="1"/>
        <pt x="131" y="87" on="0"/>
        <pt x="43" y="190" on="0"/>
        <pt x="43" y="256" on="1"/>
        <pt x="43" y="354" on="0"/>
        <pt x="181" y="503" on="0"/>
        <pt x="279" y="503" on="1"/>
        <pt x="365" y="503" on="0"/>
        <pt x="461" y="392" on="0"/>
      </contour>
      <contour>
        <pt x="374" y="307" on="1"/>
        <pt x="374" y="365" on="0"/>
        <pt x="324" y="441" on="0"/>
        <pt x="270" y="441" on="1"/>
        <pt x="209" y="441" on="0"/>
        <pt x="130" y="329" on="0"/>
        <pt x="130" y="264" on="1"/>
        <pt x="130" y="218" on="0"/>
        <pt x="183" y="155" on="0"/>
        <pt x="229" y="155" on="1"/>
        <pt x="293" y="155" on="0"/>
        <pt x="364" y="222" on="1"/>
        <pt x="374" y="262" on="0"/>
      </contour>
    </TTGlyph>
    <TTGlyph name="notequal" xMin="72" yMin="-10" xMax="565" yMax="506">
      <contour>
        <pt x="565" y="119" on="1"/>
        <pt x="304" y="119" on="1"/>
        <pt x="258" y="-10" on="1"/>
        <pt x="193" y="-10" on="1"/>
        <pt x="239" y="119" on="1"/>
        <pt x="72" y="119" on="1"/>
        <pt x="72" y="181" on="1"/>
        <pt x="262" y="181" on="1"/>
        <pt x="310" y="312" on="1"/>
        <pt x="72" y="312" on="1"/>
        <pt x="72" y="374" on="1"/>
        <pt x="332" y="374" on="1"/>
        <pt x="380" y="506" on="1"/>
        <pt x="444" y="506" on="1"/>
        <pt x="396" y="374" on="1"/>
        <pt x="565" y="374" on="1"/>
        <pt x="565" y="312" on="1"/>
        <pt x="374" y="312" on="1"/>
        <pt x="326" y="181" on="1"/>
        <pt x="565" y="181" on="1"/>
      </contour>
    </TTGlyph>
    <TTGlyph name="ntilde" xMin="41" yMin="0" xMax="461" yMax="728">
      <component glyphName="tilde" x="172" y="45" flags="0x4"/>
      <component glyphName="n" x="0" y="0" flags="0x4"/>
    </TTGlyph>
    <TTGlyph name="numbersign" xMin="57" yMin="0" xMax="584" yMax="716">
      <contour>
        <pt x="584" y="426" on="1"/>
        <pt x="453" y="426" on="1"/>
        <pt x="435" y="296" on="1"/>
        <pt x="559" y="296" on="1"/>
        <pt x="559" y="241" on="1"/>
        <pt x="428" y="241" on="1"/>
        <pt x="394" y="0" on="1"/>
        <pt x="333" y="0" on="1"/>
        <pt x="366" y="241" on="1"/>
        <pt x="245" y="241" on="1"/>
        <pt x="211" y="0" on="1"/>
        <pt x="151" y="0" on="1"/>
        <pt x="184" y="241" on="1"/>
        <pt x="57" y="241" on="1"/>
        <pt x="57" y="296" on="1"/>
        <pt x="192" y="296" on="1"/>
        <pt x="209" y="426" on="1"/>
        <pt x="83" y="426" on="1"/>
        <pt x="83" y="483" on="1"/>
        <pt x="217" y="483" on="1"/>
        <pt x="248" y="716" on="1"/>
        <pt x="310" y="716" on="1"/>
        <pt x="278" y="483" on="1"/>
        <pt x="400" y="483" on="1"/>
        <pt x="431" y="716" on="1"/>
        <pt x="491" y="716" on="1"/>
        <pt x="460" y="483" on="1"/>
        <pt x="584" y="483" on="1"/>
      </contour>
      <contour>
        <pt x="392" y="426" on="1"/>
        <pt x="270" y="426" on="1"/>
        <pt x="253" y="296" on="1"/>
        <pt x="374" y="296" on="1"/>
      </contour>
    </TTGlyph>
    <TTGlyph name="o" xMin="37" yMin="-13" xMax="472" yMax="503">
      <contour>
        <pt x="472" y="294" on="1"/>
        <pt x="472" y="173" on="0"/>
        <pt x="333" y="-13" on="0"/>
        <pt x="220" y="-13" on="1"/>
        <pt x="131" y="-13" on="0"/>
        <pt x="37" y="108" on="0"/>
        <pt x="37" y="197" on="1"/>
        <pt x="37" y="275" on="0"/>
        <pt x="94" y="412" on="0"/>
        <pt x="211" y="503" on="0"/>
        <pt x="288" y="503" on="1"/>
        <pt x="378" y="503" on="0"/>
        <pt x="472" y="383" on="0"/>
      </contour>
      <contour>
        <pt x="387" y="293" on="1"/>
        <pt x="387" y="353" on="0"/>
        <pt x="336" y="441" on="0"/>
        <pt x="281" y="441" on="1"/>
        <pt x="229" y="441" on="0"/>
        <pt x="153" y="358" on="0"/>
        <pt x="122" y="254" on="0"/>
        <pt x="122" y="202" on="1"/>
        <pt x="122" y="143" on="0"/>
        <pt x="174" y="49" on="0"/>
        <pt x="227" y="49" on="1"/>
        <pt x="268" y="49" on="0"/>
        <pt x="332" y="97" on="0"/>
        <pt x="368" y="173" on="0"/>
        <pt x="387" y="255" on="0"/>
      </contour>
    </TTGlyph>
    <TTGlyph name="oacute" xMin="37" yMin="-13" xMax="483" yMax="724">
      <component glyphName="acute" x="209" y="0" flags="0x4"/>
      <component glyphName="o" x="0" y="0" flags="0x4"/>
    </TTGlyph>
    <TTGlyph name="ocircumflex" xMin="37" yMin="-13" xMax="472" yMax="724">
      <component glyphName="circumflex" x="162" y="0" flags="0x4"/>
      <component glyphName="o" x="0" y="0" flags="0x4"/>
    </TTGlyph>
    <TTGlyph name="odieresis" xMin="37" yMin="-13" xMax="472" yMax="726">
      <component glyphName="dieresis" x="172" y="45" flags="0x4"/>
      <component glyphName="o" x="0" y="0" flags="0x4"/>
    </TTGlyph>
    <TTGlyph name="oe" xMin="36" yMin="-14" xMax="764" yMax="503">
      <contour>
        <pt x="764" y="397" on="1"/>
        <pt x="764" y="350" on="0"/>
        <pt x="710" y="273" on="0"/>
        <pt x="667" y="247" on="1"/>
        <pt x="593" y="203" on="0"/>
        <pt x="459" y="201" on="1"/>
        <pt x="459" y="196" on="1"/>
        <pt x="459" y="137" on="0"/>
        <pt x="519" y="56" on="0"/>
        <pt x="576" y="56" on="1"/>
        <pt x="649" y="56" on="0"/>
        <pt x="715" y="101" on="1"/>
        <pt x="744" y="42" on="1"/>
        <pt x="665" y="-14" on="0"/>
        <pt x="571" y="-14" on="1"/>
        <pt x="453" y="-14" on="0"/>
        <pt x="401" y="79" on="1"/>
        <pt x="330" y="-14" on="0"/>
        <pt x="220" y="-14" on="1"/>
        <pt x="132" y="-14" on="0"/>
        <pt x="36" y="107" on="0"/>
        <pt x="36" y="197" on="1"/>
        <pt x="36" y="271" on="0"/>
        <pt x="94" y="409" on="0"/>
        <pt x="212" y="503" on="0"/>
        <pt x="288" y="503" on="1"/>
        <pt x="400" y="503" on="0"/>
        <pt x="447" y="407" on="1"/>
        <pt x="522" y="503" on="0"/>
        <pt x="637" y="503" on="1"/>
        <pt x="693" y="503" on="0"/>
        <pt x="764" y="451" on="0"/>
      </contour>
      <contour>
        <pt x="681" y="393" on="1"/>
        <pt x="681" y="412" on="0"/>
        <pt x="652" y="441" on="0"/>
        <pt x="626" y="441" on="1"/>
        <pt x="579" y="441" on="0"/>
        <pt x="500" y="366" on="0"/>
        <pt x="465" y="285" on="0"/>
        <pt x="465" y="259" on="1"/>
        <pt x="562" y="259" on="0"/>
        <pt x="681" y="341" on="0"/>
      </contour>
      <contour>
        <pt x="386" y="293" on="1"/>
        <pt x="386" y="352" on="0"/>
        <pt x="336" y="441" on="0"/>
        <pt x="281" y="441" on="1"/>
        <pt x="241" y="441" on="0"/>
        <pt x="177" y="393" on="0"/>
        <pt x="141" y="318" on="0"/>
        <pt x="122" y="239" on="0"/>
        <pt x="122" y="202" on="1"/>
        <pt x="122" y="144" on="0"/>
        <pt x="173" y="49" on="0"/>
        <pt x="227" y="49" on="1"/>
        <pt x="268" y="49" on="0"/>
        <pt x="332" y="98" on="0"/>
        <pt x="368" y="175" on="0"/>
        <pt x="386" y="256" on="0"/>
      </contour>
    </TTGlyph>
    <TTGlyph name="ogonek" xMin="36" yMin="-201" xMax="252" yMax="23">
      <contour>
        <pt x="252" y="11" on="1"/>
        <pt x="118" y="-51" on="0"/>
        <pt x="118" y="-111" on="1"/>
        <pt x="118" y="-146" on="0"/>
        <pt x="159" y="-146" on="1"/>
        <pt x="182" y="-146" on="0"/>
        <pt x="240" y="-114" on="1"/>
        <pt x="251" y="-151" on="1"/>
        <pt x="179" y="-201" on="0"/>
        <pt x="117" y="-201" on="1"/>
        <pt x="77" y="-201" on="0"/>
        <pt x="36" y="-163" on="0"/>
        <pt x="36" y="-132" on="1"/>
        <pt x="36" y="-95" on="0"/>
        <pt x="108" y="-26" on="0"/>
        <pt x="193" y="13" on="0"/>
        <pt x="234" y="23" on="1"/>
      </contour>
    </TTGlyph>
    <TTGlyph name="ograve" xMin="37" yMin="-13" xMax="472" yMax="724">
      <component glyphName="o" x="0" y="0" flags="0x204"/>
      <component glyphName="grave" x="85" y="0" flags="0x4"/>
    </TTGlyph>
    <TTGlyph name="one" xMin="38" yMin="0" xMax="344" yMax="493">
      <contour>
        <pt x="344" y="67" on="1"/>
        <pt x="335" y="0" on="1"/>
        <pt x="38" y="0" on="1"/>
        <pt x="46" y="67" on="1"/>
        <pt x="157" y="67" on="1"/>
        <pt x="202" y="401" on="1"/>
        <pt x="92" y="370" on="1"/>
        <pt x="86" y="417" on="1"/>
        <pt x="246" y="493" on="1"/>
        <pt x="294" y="493" on="1"/>
        <pt x="237" y="67" on="1"/>
      </contour>
    </TTGlyph>
    <TTGlyph name="onehalf" xMin="43" yMin="-22" xMax="936" yMax="753">
      <contour>
        <pt x="331" y="248" on="1"/>
        <pt x="43" y="248" on="1"/>
        <pt x="50" y="307" on="1"/>
        <pt x="168" y="307" on="1"/>
        <pt x="214" y="652" on="1"/>
        <pt x="95" y="617" on="1"/>
        <pt x="84" y="666" on="1"/>
        <pt x="170" y="695" on="0"/>
        <pt x="253" y="732" on="1"/>
        <pt x="301" y="732" on="1"/>
        <pt x="244" y="307" on="1"/>
        <pt x="339" y="307" on="1"/>
      </contour>
      <contour>
        <pt x="320" y="-22" on="1"/>
        <pt x="261" y="-22" on="1"/>
        <pt x="613" y="665" on="0"/>
        <pt x="657" y="753" on="1"/>
        <pt x="717" y="753" on="1"/>
        <pt x="641" y="605" on="0"/>
        <pt x="363" y="62" on="0"/>
      </contour>
      <contour>
        <pt x="876" y="0" on="1"/>
        <pt x="569" y="0" on="1"/>
        <pt x="569" y="38" on="1"/>
        <pt x="571" y="39" on="0"/>
        <pt x="591" y="54" on="1"/>
        <pt x="627" y="82" on="0"/>
        <pt x="704" y="151" on="0"/>
        <pt x="794" y="243" on="0"/>
        <pt x="852" y="336" on="0"/>
        <pt x="852" y="370" on="1"/>
        <pt x="852" y="398" on="0"/>
        <pt x="817" y="431" on="0"/>
        <pt x="786" y="431" on="1"/>
        <pt x="760" y="431" on="0"/>
        <pt x="702" y="409" on="0"/>
        <pt x="671" y="389" on="0"/>
        <pt x="661" y="381" on="1"/>
        <pt x="636" y="429" on="1"/>
        <pt x="718" y="494" on="0"/>
        <pt x="812" y="494" on="1"/>
        <pt x="875" y="494" on="0"/>
        <pt x="936" y="434" on="0"/>
        <pt x="936" y="387" on="1"/>
        <pt x="936" y="338" on="0"/>
        <pt x="873" y="230" on="0"/>
        <pt x="776" y="139" on="0"/>
        <pt x="714" y="89" on="0"/>
        <pt x="689" y="72" on="1"/>
        <pt x="903" y="72" on="1"/>
      </contour>
    </TTGlyph>
    <TTGlyph name="onequarter" xMin="43" yMin="-22" xMax="880" yMax="753">
      <contour>
        <pt x="320" y="-22" on="1"/>
        <pt x="262" y="-22" on="1"/>
        <pt x="614" y="665" on="0"/>
        <pt x="658" y="753" on="1"/>
        <pt x="718" y="753" on="1"/>
        <pt x="673" y="665" on="0"/>
        <pt x="512" y="352" on="0"/>
        <pt x="379" y="92" on="0"/>
      </contour>
      <contour>
        <pt x="332" y="248" on="1"/>
        <pt x="43" y="248" on="1"/>
        <pt x="51" y="307" on="1"/>
        <pt x="168" y="307" on="1"/>
        <pt x="215" y="652" on="1"/>
        <pt x="95" y="617" on="1"/>
        <pt x="85" y="666" on="1"/>
        <pt x="179" y="698" on="0"/>
        <pt x="254" y="732" on="1"/>
        <pt x="301" y="732" on="1"/>
        <pt x="244" y="307" on="1"/>
        <pt x="339" y="307" on="1"/>
      </contour>
      <contour>
        <pt x="786" y="0" on="1"/>
        <pt x="710" y="0" on="1"/>
        <pt x="725" y="110" on="1"/>
        <pt x="512" y="110" on="1"/>
        <pt x="512" y="150" on="1"/>
        <pt x="563" y="213" on="0"/>
        <pt x="746" y="446" on="0"/>
        <pt x="775" y="483" on="1"/>
        <pt x="851" y="483" on="1"/>
        <pt x="809" y="169" on="1"/>
        <pt x="880" y="169" on="1"/>
        <pt x="856" y="110" on="1"/>
        <pt x="801" y="110" on="1"/>
      </contour>
      <contour>
        <pt x="733" y="169" on="1"/>
        <pt x="749" y="289" on="1"/>
        <pt x="766" y="398" on="1"/>
        <pt x="751" y="374" on="0"/>
        <pt x="705" y="309" on="0"/>
        <pt x="674" y="268" on="0"/>
        <pt x="605" y="181" on="0"/>
        <pt x="596" y="169" on="1"/>
      </contour>
    </TTGlyph>
    <TTGlyph name="onesuperior" xMin="64" yMin="434" xMax="361" yMax="918">
      <contour>
        <pt x="353" y="434" on="1"/>
        <pt x="64" y="434" on="1"/>
        <pt x="72" y="493" on="1"/>
        <pt x="190" y="493" on="1"/>
        <pt x="236" y="838" on="1"/>
        <pt x="116" y="803" on="1"/>
        <pt x="115" y="812" on="0"/>
        <pt x="107" y="847" on="0"/>
        <pt x="106" y="852" on="1"/>
        <pt x="186" y="879" on="0"/>
        <pt x="276" y="918" on="1"/>
        <pt x="323" y="918" on="1"/>
        <pt x="266" y="493" on="1"/>
        <pt x="361" y="493" on="1"/>
      </contour>
    </TTGlyph>
    <TTGlyph name="ordfeminine" xMin="32" yMin="277" xMax="333" yMax="721">
      <contour>
        <pt x="333" y="401" on="1"/>
        <pt x="303" y="386" on="0"/>
        <pt x="285" y="386" on="1"/>
        <pt x="262" y="386" on="0"/>
        <pt x="232" y="417" on="0"/>
        <pt x="230" y="442" on="1"/>
        <pt x="194" y="385" on="0"/>
        <pt x="134" y="385" on="1"/>
        <pt x="84" y="385" on="0"/>
        <pt x="32" y="455" on="0"/>
        <pt x="32" y="509" on="1"/>
        <pt x="32" y="586" on="0"/>
        <pt x="130" y="721" on="0"/>
        <pt x="203" y="721" on="1"/>
        <pt x="251" y="721" on="0"/>
        <pt x="274" y="691" on="1"/>
        <pt x="288" y="716" on="1"/>
        <pt x="316" y="716" on="1"/>
        <pt x="280" y="468" on="1"/>
        <pt x="279" y="464" on="0"/>
        <pt x="279" y="455" on="1"/>
        <pt x="279" y="429" on="0"/>
        <pt x="300" y="429" on="1"/>
        <pt x="313" y="429" on="0"/>
        <pt x="326" y="434" on="1"/>
      </contour>
      <contour>
        <pt x="272" y="331" on="1"/>
        <pt x="264" y="277" on="1"/>
        <pt x="55" y="277" on="1"/>
        <pt x="64" y="331" on="1"/>
      </contour>
      <contour>
        <pt x="257" y="656" on="1"/>
        <pt x="235" y="681" on="0"/>
        <pt x="205" y="681" on="1"/>
        <pt x="169" y="681" on="0"/>
        <pt x="115" y="619" on="0"/>
        <pt x="92" y="542" on="0"/>
        <pt x="92" y="507" on="1"/>
        <pt x="92" y="475" on="0"/>
        <pt x="116" y="425" on="0"/>
        <pt x="144" y="425" on="1"/>
        <pt x="219" y="425" on="0"/>
        <pt x="247" y="594" on="1"/>
      </contour>
    </TTGlyph>
    <TTGlyph name="ordmasculine" xMin="33" yMin="277" xMax="322" yMax="722">
      <contour>
        <pt x="322" y="582" on="1"/>
        <pt x="322" y="505" on="0"/>
        <pt x="231" y="383" on="0"/>
        <pt x="155" y="383" on="1"/>
        <pt x="96" y="383" on="0"/>
        <pt x="33" y="462" on="0"/>
        <pt x="33" y="522" on="1"/>
        <pt x="33" y="598" on="0"/>
        <pt x="126" y="722" on="0"/>
        <pt x="200" y="722" on="1"/>
        <pt x="259" y="722" on="0"/>
        <pt x="322" y="642" on="0"/>
      </contour>
      <contour>
        <pt x="254" y="331" on="1"/>
        <pt x="245" y="277" on="1"/>
        <pt x="37" y="277" on="1"/>
        <pt x="45" y="331" on="1"/>
      </contour>
      <contour>
        <pt x="261" y="579" on="1"/>
        <pt x="261" y="618" on="0"/>
        <pt x="230" y="674" on="0"/>
        <pt x="194" y="674" on="1"/>
        <pt x="147" y="674" on="0"/>
        <pt x="94" y="580" on="0"/>
        <pt x="94" y="529" on="1"/>
        <pt x="94" y="490" on="0"/>
        <pt x="126" y="431" on="0"/>
        <pt x="161" y="431" on="1"/>
        <pt x="209" y="431" on="0"/>
        <pt x="261" y="526" on="0"/>
      </contour>
    </TTGlyph>
    <TTGlyph name="oslash" xMin="26" yMin="-67" xMax="502" yMax="550">
      <contour>
        <pt x="502" y="522" on="1"/>
        <pt x="443" y="443" on="1"/>
        <pt x="488" y="387" on="0"/>
        <pt x="488" y="299" on="1"/>
        <pt x="488" y="225" on="0"/>
        <pt x="432" y="85" on="0"/>
        <pt x="313" y="-12" on="0"/>
        <pt x="235" y="-12" on="1"/>
        <pt x="173" y="-12" on="0"/>
        <pt x="133" y="18" on="1"/>
        <pt x="68" y="-67" on="1"/>
        <pt x="26" y="-37" on="1"/>
        <pt x="96" y="54" on="1"/>
        <pt x="53" y="109" on="0"/>
        <pt x="53" y="196" on="1"/>
        <pt x="53" y="250" on="0"/>
        <pt x="88" y="359" on="0"/>
        <pt x="150" y="449" on="0"/>
        <pt x="248" y="506" on="0"/>
        <pt x="306" y="506" on="1"/>
        <pt x="364" y="506" on="0"/>
        <pt x="405" y="480" on="1"/>
        <pt x="457" y="550" on="1"/>
      </contour>
      <contour>
        <pt x="362" y="420" on="1"/>
        <pt x="336" y="443" on="0"/>
        <pt x="299" y="443" on="1"/>
        <pt x="247" y="443" on="0"/>
        <pt x="169" y="362" on="0"/>
        <pt x="136" y="256" on="0"/>
        <pt x="136" y="204" on="1"/>
        <pt x="136" y="153" on="0"/>
        <pt x="148" y="128" on="1"/>
      </contour>
      <contour>
        <pt x="405" y="296" on="1"/>
        <pt x="405" y="339" on="0"/>
        <pt x="394" y="372" on="1"/>
        <pt x="176" y="79" on="1"/>
        <pt x="202" y="51" on="0"/>
        <pt x="241" y="51" on="1"/>
        <pt x="295" y="51" on="0"/>
        <pt x="373" y="135" on="0"/>
        <pt x="405" y="243" on="0"/>
      </contour>
    </TTGlyph>
    <TTGlyph name="otilde" xMin="37" yMin="-13" xMax="472" yMax="726">
      <component glyphName="tilde" x="165" y="43" flags="0x4"/>
      <component glyphName="o" x="0" y="0" flags="0x4"/>
    </TTGlyph>
    <TTGlyph name="p" xMin="13" yMin="-224" xMax="479" yMax="503">
      <contour>
        <pt x="479" y="308" on="1"/>
        <pt x="479" y="231" on="0"/>
        <pt x="417" y="85" on="0"/>
        <pt x="297" y="-13" on="0"/>
        <pt x="223" y="-13" on="1"/>
        <pt x="196" y="-13" on="0"/>
        <pt x="141" y="9" on="0"/>
        <pt x="126" y="23" on="1"/>
        <pt x="101" y="-169" on="1"/>
        <pt x="101" y="-224" on="1"/>
        <pt x="13" y="-224" on="1"/>
        <pt x="86" y="333" on="1"/>
        <pt x="92" y="381" on="0"/>
        <pt x="92" y="405" on="1"/>
        <pt x="92" y="447" on="0"/>
        <pt x="78" y="490" on="1"/>
        <pt x="166" y="501" on="1"/>
        <pt x="174" y="455" on="0"/>
        <pt x="174" y="432" on="1"/>
        <pt x="174" y="424" on="1"/>
        <pt x="228" y="503" on="0"/>
        <pt x="321" y="503" on="1"/>
        <pt x="398" y="503" on="0"/>
        <pt x="479" y="392" on="0"/>
      </contour>
      <contour>
        <pt x="386" y="314" on="1"/>
        <pt x="386" y="365" on="0"/>
        <pt x="348" y="441" on="0"/>
        <pt x="301" y="441" on="1"/>
        <pt x="181" y="441" on="0"/>
        <pt x="145" y="178" on="1"/>
        <pt x="142" y="160" on="0"/>
        <pt x="136" y="97" on="0"/>
        <pt x="134" y="88" on="1"/>
        <pt x="149" y="71" on="0"/>
        <pt x="201" y="49" on="0"/>
        <pt x="226" y="49" on="1"/>
        <pt x="300" y="49" on="0"/>
        <pt x="386" y="219" on="0"/>
      </contour>
    </TTGlyph>
    <TTGlyph name="paragraph" xMin="5" yMin="-231" xMax="523" yMax="764">
      <contour>
        <pt x="523" y="764" on="1"/>
        <pt x="515" y="710" on="1"/>
        <pt x="459" y="710" on="1"/>
        <pt x="351" y="-63" on="1"/>
        <pt x="345" y="-108" on="0"/>
        <pt x="272" y="-174" on="0"/>
        <pt x="227" y="-174" on="1"/>
        <pt x="222" y="-174" on="0"/>
        <pt x="208" y="-172" on="1"/>
        <pt x="168" y="-231" on="0"/>
        <pt x="101" y="-231" on="1"/>
        <pt x="60" y="-231" on="0"/>
        <pt x="5" y="-177" on="0"/>
        <pt x="5" y="-136" on="1"/>
        <pt x="5" y="-85" on="0"/>
        <pt x="82" y="-9" on="0"/>
        <pt x="133" y="-9" on="1"/>
        <pt x="125" y="-63" on="1"/>
        <pt x="99" y="-63" on="0"/>
        <pt x="59" y="-102" on="0"/>
        <pt x="59" y="-128" on="1"/>
        <pt x="59" y="-149" on="0"/>
        <pt x="88" y="-177" on="0"/>
        <pt x="109" y="-177" on="1"/>
        <pt x="133" y="-177" on="0"/>
        <pt x="170" y="-143" on="0"/>
        <pt x="173" y="-120" on="1"/>
        <pt x="242" y="378" on="1"/>
        <pt x="171" y="378" on="0"/>
        <pt x="78" y="467" on="0"/>
        <pt x="78" y="538" on="1"/>
        <pt x="78" y="644" on="0"/>
        <pt x="223" y="764" on="0"/>
        <pt x="331" y="764" on="1"/>
      </contour>
      <contour>
        <pt x="405" y="710" on="1"/>
        <pt x="344" y="710" on="1"/>
        <pt x="228" y="-120" on="1"/>
        <pt x="232" y="-120" on="1"/>
        <pt x="256" y="-120" on="0"/>
        <pt x="294" y="-86" on="0"/>
        <pt x="297" y="-63" on="1"/>
      </contour>
    </TTGlyph>
    <TTGlyph name="parenleft" xMin="59" yMin="-140" xMax="356" yMax="737">
      <contour>
        <pt x="356" y="727" on="1"/>
        <pt x="141" y="491" on="0"/>
        <pt x="141" y="189" on="1"/>
        <pt x="141" y="18" on="0"/>
        <pt x="234" y="-130" on="1"/>
        <pt x="169" y="-140" on="1"/>
        <pt x="59" y="20" on="0"/>
        <pt x="59" y="210" on="1"/>
        <pt x="59" y="353" on="0"/>
        <pt x="184" y="625" on="0"/>
        <pt x="292" y="737" on="1"/>
      </contour>
    </TTGlyph>
    <TTGlyph name="parenright" xMin="0" yMin="-140" xMax="297" yMax="737">
      <contour>
        <pt x="297" y="386" on="1"/>
        <pt x="297" y="243" on="0"/>
        <pt x="173" y="-28" on="0"/>
        <pt x="65" y="-140" on="1"/>
        <pt x="0" y="-130" on="1"/>
        <pt x="215" y="105" on="0"/>
        <pt x="215" y="407" on="1"/>
        <pt x="215" y="579" on="0"/>
        <pt x="122" y="727" on="1"/>
        <pt x="187" y="737" on="1"/>
        <pt x="297" y="577" on="0"/>
      </contour>
    </TTGlyph>
    <TTGlyph name="partialdiff" xMin="37" yMin="-10" xMax="487" yMax="734">
      <contour>
        <pt x="388" y="355" on="1"/>
        <pt x="392" y="386" on="0"/>
        <pt x="392" y="452" on="1"/>
        <pt x="392" y="554" on="0"/>
        <pt x="313" y="661" on="0"/>
        <pt x="255" y="661" on="1"/>
        <pt x="227" y="661" on="0"/>
        <pt x="176" y="646" on="0"/>
        <pt x="165" y="639" on="1"/>
        <pt x="154" y="632" on="1"/>
        <pt x="139" y="668" on="0"/>
        <pt x="130" y="683" on="1"/>
        <pt x="136" y="689" on="0"/>
        <pt x="159" y="706" on="0"/>
        <pt x="235" y="734" on="0"/>
        <pt x="277" y="734" on="1"/>
        <pt x="373" y="734" on="0"/>
        <pt x="487" y="580" on="0"/>
        <pt x="487" y="439" on="1"/>
        <pt x="487" y="335" on="0"/>
        <pt x="445" y="171" on="0"/>
        <pt x="383" y="75" on="0"/>
        <pt x="302" y="12" on="0"/>
        <pt x="233" y="-10" on="0"/>
        <pt x="202" y="-10" on="1"/>
        <pt x="175" y="-10" on="0"/>
        <pt x="121" y="6" on="0"/>
        <pt x="69" y="41" on="0"/>
        <pt x="37" y="109" on="0"/>
        <pt x="37" y="155" on="1"/>
        <pt x="37" y="220" on="0"/>
        <pt x="85" y="323" on="0"/>
        <pt x="158" y="380" on="0"/>
        <pt x="233" y="410" on="0"/>
        <pt x="265" y="410" on="1"/>
        <pt x="345" y="410" on="0"/>
      </contour>
      <contour>
        <pt x="377" y="290" on="1"/>
        <pt x="336" y="340" on="0"/>
        <pt x="269" y="340" on="1"/>
        <pt x="209" y="340" on="0"/>
        <pt x="125" y="228" on="0"/>
        <pt x="125" y="162" on="1"/>
        <pt x="125" y="119" on="0"/>
        <pt x="168" y="57" on="0"/>
        <pt x="212" y="57" on="1"/>
        <pt x="271" y="57" on="0"/>
        <pt x="357" y="191" on="0"/>
      </contour>
    </TTGlyph>
    <TTGlyph name="percent" xMin="45" yMin="-13" xMax="746" yMax="709">
      <contour>
        <pt x="746" y="226" on="1"/>
        <pt x="746" y="176" on="0"/>
        <pt x="705" y="72" on="0"/>
        <pt x="619" y="-5" on="0"/>
        <pt x="566" y="-5" on="1"/>
        <pt x="501" y="-5" on="0"/>
        <pt x="429" y="89" on="0"/>
        <pt x="429" y="154" on="1"/>
        <pt x="429" y="242" on="0"/>
        <pt x="529" y="384" on="0"/>
        <pt x="615" y="384" on="1"/>
        <pt x="678" y="384" on="0"/>
        <pt x="746" y="290" on="0"/>
      </contour>
      <contour>
        <pt x="644" y="709" on="1"/>
        <pt x="205" y="-13" on="1"/>
        <pt x="137" y="-13" on="1"/>
        <pt x="543" y="653" on="1"/>
        <pt x="334" y="653" on="1"/>
        <pt x="361" y="610" on="0"/>
        <pt x="361" y="553" on="1"/>
        <pt x="361" y="503" on="0"/>
        <pt x="320" y="399" on="0"/>
        <pt x="235" y="322" on="0"/>
        <pt x="182" y="322" on="1"/>
        <pt x="117" y="322" on="0"/>
        <pt x="45" y="416" on="0"/>
        <pt x="45" y="481" on="1"/>
        <pt x="45" y="568" on="0"/>
        <pt x="144" y="709" on="0"/>
        <pt x="230" y="709" on="1"/>
      </contour>
      <contour>
        <pt x="673" y="224" on="1"/>
        <pt x="673" y="263" on="0"/>
        <pt x="642" y="326" on="0"/>
        <pt x="609" y="326" on="1"/>
        <pt x="563" y="326" on="0"/>
        <pt x="501" y="212" on="0"/>
        <pt x="501" y="158" on="1"/>
        <pt x="501" y="120" on="0"/>
        <pt x="537" y="55" on="0"/>
        <pt x="571" y="55" on="1"/>
        <pt x="618" y="55" on="0"/>
        <pt x="673" y="169" on="0"/>
      </contour>
      <contour>
        <pt x="288" y="552" on="1"/>
        <pt x="288" y="590" on="0"/>
        <pt x="257" y="653" on="0"/>
        <pt x="225" y="653" on="1"/>
        <pt x="179" y="653" on="0"/>
        <pt x="117" y="541" on="0"/>
        <pt x="117" y="485" on="1"/>
        <pt x="117" y="446" on="0"/>
        <pt x="153" y="382" on="0"/>
        <pt x="187" y="382" on="1"/>
        <pt x="234" y="382" on="0"/>
        <pt x="288" y="497" on="0"/>
      </contour>
    </TTGlyph>
    <TTGlyph name="period" xMin="35" yMin="-13" xMax="167" yMax="120">
      <contour>
        <pt x="101" y="-13" on="1"/>
        <pt x="73" y="-13" on="0"/>
        <pt x="35" y="26" on="0"/>
        <pt x="35" y="54" on="1"/>
        <pt x="35" y="81" on="0"/>
        <pt x="73" y="120" on="0"/>
        <pt x="100" y="120" on="1"/>
        <pt x="128" y="120" on="0"/>
        <pt x="167" y="82" on="0"/>
        <pt x="167" y="26" on="0"/>
        <pt x="128" y="-13" on="0"/>
      </contour>
    </TTGlyph>
    <TTGlyph name="periodcentered" xMin="82" yMin="189" xMax="214" yMax="322">
      <contour>
        <pt x="148" y="189" on="1"/>
        <pt x="120" y="189" on="0"/>
        <pt x="82" y="228" on="0"/>
        <pt x="82" y="256" on="1"/>
        <pt x="82" y="283" on="0"/>
        <pt x="120" y="322" on="0"/>
        <pt x="147" y="322" on="1"/>
        <pt x="175" y="322" on="0"/>
        <pt x="214" y="284" on="0"/>
        <pt x="214" y="228" on="0"/>
        <pt x="175" y="189" on="0"/>
      </contour>
    </TTGlyph>
    <TTGlyph name="perthousand" xMin="45" yMin="-13" xMax="1008" yMax="711">
      <contour>
        <pt x="1008" y="226" on="1"/>
        <pt x="1008" y="176" on="0"/>
        <pt x="967" y="72" on="0"/>
        <pt x="881" y="-5" on="0"/>
        <pt x="828" y="-5" on="1"/>
        <pt x="763" y="-5" on="0"/>
        <pt x="691" y="89" on="0"/>
        <pt x="691" y="154" on="1"/>
        <pt x="691" y="242" on="0"/>
        <pt x="791" y="384" on="0"/>
        <pt x="877" y="384" on="1"/>
        <pt x="940" y="384" on="0"/>
        <pt x="1008" y="290" on="0"/>
      </contour>
      <contour>
        <pt x="674" y="226" on="1"/>
        <pt x="674" y="176" on="0"/>
        <pt x="633" y="72" on="0"/>
        <pt x="547" y="-5" on="0"/>
        <pt x="494" y="-5" on="1"/>
        <pt x="429" y="-5" on="0"/>
        <pt x="357" y="89" on="0"/>
        <pt x="357" y="154" on="1"/>
        <pt x="357" y="242" on="0"/>
        <pt x="457" y="384" on="0"/>
        <pt x="543" y="384" on="1"/>
        <pt x="606" y="384" on="0"/>
        <pt x="674" y="290" on="0"/>
      </contour>
      <contour>
        <pt x="608" y="709" on="1"/>
        <pt x="169" y="-13" on="1"/>
        <pt x="101" y="-13" on="1"/>
        <pt x="507" y="653" on="1"/>
        <pt x="334" y="653" on="1"/>
        <pt x="361" y="610" on="0"/>
        <pt x="361" y="553" on="1"/>
        <pt x="361" y="503" on="0"/>
        <pt x="320" y="399" on="0"/>
        <pt x="235" y="322" on="0"/>
        <pt x="182" y="322" on="1"/>
        <pt x="117" y="322" on="0"/>
        <pt x="45" y="416" on="0"/>
        <pt x="45" y="481" on="1"/>
        <pt x="45" y="568" on="0"/>
        <pt x="141" y="711" on="0"/>
        <pt x="223" y="711" on="1"/>
        <pt x="224" y="711" on="0"/>
        <pt x="245" y="710" on="0"/>
        <pt x="270" y="709" on="0"/>
        <pt x="275" y="709" on="1"/>
      </contour>
      <contour>
        <pt x="935" y="224" on="1"/>
        <pt x="935" y="263" on="0"/>
        <pt x="904" y="326" on="0"/>
        <pt x="871" y="326" on="1"/>
        <pt x="825" y="326" on="0"/>
        <pt x="763" y="212" on="0"/>
        <pt x="763" y="158" on="1"/>
        <pt x="763" y="120" on="0"/>
        <pt x="799" y="55" on="0"/>
        <pt x="833" y="55" on="1"/>
        <pt x="880" y="55" on="0"/>
        <pt x="935" y="169" on="0"/>
      </contour>
      <contour>
        <pt x="288" y="552" on="1"/>
        <pt x="288" y="590" on="0"/>
        <pt x="257" y="653" on="0"/>
        <pt x="225" y="653" on="1"/>
        <pt x="179" y="653" on="0"/>
        <pt x="117" y="541" on="0"/>
        <pt x="117" y="485" on="1"/>
        <pt x="117" y="446" on="0"/>
        <pt x="153" y="382" on="0"/>
        <pt x="187" y="382" on="1"/>
        <pt x="234" y="382" on="0"/>
        <pt x="288" y="497" on="0"/>
      </contour>
      <contour>
        <pt x="601" y="224" on="1"/>
        <pt x="601" y="263" on="0"/>
        <pt x="570" y="326" on="0"/>
        <pt x="537" y="326" on="1"/>
        <pt x="491" y="326" on="0"/>
        <pt x="429" y="212" on="0"/>
        <pt x="429" y="158" on="1"/>
        <pt x="429" y="120" on="0"/>
        <pt x="465" y="55" on="0"/>
        <pt x="499" y="55" on="1"/>
        <pt x="546" y="55" on="0"/>
        <pt x="601" y="169" on="0"/>
      </contour>
    </TTGlyph>
    <TTGlyph name="pi" xMin="69" yMin="-31" xMax="646" yMax="512">
      <contour>
        <pt x="628" y="512" on="1"/>
        <pt x="646" y="471" on="1"/>
        <pt x="605" y="426" on="0"/>
        <pt x="530" y="422" on="1"/>
        <pt x="449" y="241" on="0"/>
        <pt x="449" y="131" on="1"/>
        <pt x="449" y="58" on="0"/>
        <pt x="495" y="58" on="1"/>
        <pt x="514" y="58" on="0"/>
        <pt x="537" y="68" on="1"/>
        <pt x="540" y="61" on="0"/>
        <pt x="550" y="29" on="0"/>
        <pt x="553" y="21" on="1"/>
        <pt x="512" y="-12" on="0"/>
        <pt x="461" y="-12" on="1"/>
        <pt x="412" y="-12" on="0"/>
        <pt x="369" y="62" on="0"/>
        <pt x="369" y="118" on="1"/>
        <pt x="369" y="276" on="0"/>
        <pt x="459" y="422" on="1"/>
        <pt x="297" y="422" on="1"/>
        <pt x="284" y="331" on="1"/>
        <pt x="278" y="288" on="0"/>
        <pt x="268" y="229" on="0"/>
        <pt x="248" y="146" on="0"/>
        <pt x="220" y="86" on="0"/>
        <pt x="181" y="25" on="0"/>
        <pt x="123" y="-19" on="0"/>
        <pt x="87" y="-31" on="1"/>
        <pt x="78" y="-10" on="0"/>
        <pt x="69" y="6" on="1"/>
        <pt x="113" y="30" on="0"/>
        <pt x="171" y="119" on="0"/>
        <pt x="178" y="172" on="1"/>
        <pt x="207" y="386" on="1"/>
        <pt x="208" y="393" on="0"/>
        <pt x="216" y="416" on="0"/>
        <pt x="217" y="422" on="1"/>
        <pt x="181" y="419" on="0"/>
        <pt x="126" y="376" on="0"/>
        <pt x="114" y="342" on="1"/>
        <pt x="84" y="350" on="0"/>
        <pt x="71" y="355" on="1"/>
        <pt x="82" y="416" on="0"/>
        <pt x="175" y="490" on="0"/>
        <pt x="244" y="490" on="1"/>
        <pt x="531" y="490" on="1"/>
        <pt x="589" y="490" on="0"/>
      </contour>
    </TTGlyph>
    <TTGlyph name="plus" xMin="68" yMin="0" xMax="567" yMax="490">
      <contour>
        <pt x="567" y="211" on="1"/>
        <pt x="352" y="211" on="1"/>
        <pt x="352" y="0" on="1"/>
        <pt x="282" y="0" on="1"/>
        <pt x="282" y="211" on="1"/>
        <pt x="68" y="211" on="1"/>
        <pt x="68" y="280" on="1"/>
        <pt x="282" y="280" on="1"/>
        <pt x="282" y="490" on="1"/>
        <pt x="352" y="490" on="1"/>
        <pt x="352" y="280" on="1"/>
        <pt x="567" y="280" on="1"/>
      </contour>
    </TTGlyph>
    <TTGlyph name="plusminus" xMin="68" yMin="0" xMax="567" yMax="490">
      <contour>
        <pt x="567" y="251" on="1"/>
        <pt x="352" y="251" on="1"/>
        <pt x="352" y="80" on="1"/>
        <pt x="282" y="80" on="1"/>
        <pt x="282" y="251" on="1"/>
        <pt x="68" y="251" on="1"/>
        <pt x="68" y="320" on="1"/>
        <pt x="282" y="320" on="1"/>
        <pt x="282" y="490" on="1"/>
        <pt x="352" y="490" on="1"/>
        <pt x="352" y="320" on="1"/>
        <pt x="567" y="320" on="1"/>
      </contour>
      <contour>
        <pt x="567" y="0" on="1"/>
        <pt x="68" y="0" on="1"/>
        <pt x="68" y="68" on="1"/>
        <pt x="567" y="68" on="1"/>
      </contour>
    </TTGlyph>
    <TTGlyph name="product" xMin="31" yMin="-228" xMax="803" yMax="724">
      <contour>
        <pt x="686" y="-228" on="1"/>
        <pt x="590" y="-228" on="1"/>
        <pt x="590" y="655" on="1"/>
        <pt x="243" y="655" on="1"/>
        <pt x="243" y="-228" on="1"/>
        <pt x="147" y="-228" on="1"/>
        <pt x="147" y="655" on="1"/>
        <pt x="31" y="655" on="1"/>
        <pt x="31" y="724" on="1"/>
        <pt x="803" y="724" on="1"/>
        <pt x="803" y="655" on="1"/>
        <pt x="686" y="655" on="1"/>
      </contour>
    </TTGlyph>
    <TTGlyph name="q" xMin="36" yMin="-224" xMax="477" yMax="522">
      <contour>
        <pt x="477" y="522" on="1"/>
        <pt x="384" y="-167" on="1"/>
        <pt x="384" y="-224" on="1"/>
        <pt x="296" y="-224" on="1"/>
        <pt x="337" y="67" on="1"/>
        <pt x="280" y="-13" on="0"/>
        <pt x="194" y="-13" on="1"/>
        <pt x="114" y="-13" on="0"/>
        <pt x="36" y="94" on="0"/>
        <pt x="36" y="176" on="1"/>
        <pt x="36" y="227" on="0"/>
        <pt x="72" y="339" on="0"/>
        <pt x="136" y="438" on="0"/>
        <pt x="239" y="503" on="0"/>
        <pt x="299" y="503" on="1"/>
        <pt x="359" y="503" on="0"/>
        <pt x="406" y="460" on="1"/>
        <pt x="438" y="522" on="1"/>
      </contour>
      <contour>
        <pt x="384" y="403" on="1"/>
        <pt x="353" y="441" on="0"/>
        <pt x="301" y="441" on="1"/>
        <pt x="245" y="441" on="0"/>
        <pt x="162" y="342" on="0"/>
        <pt x="128" y="224" on="0"/>
        <pt x="128" y="122" on="0"/>
        <pt x="166" y="49" on="0"/>
        <pt x="210" y="49" on="1"/>
        <pt x="239" y="49" on="0"/>
        <pt x="286" y="78" on="0"/>
        <pt x="320" y="135" on="0"/>
        <pt x="345" y="193" on="0"/>
        <pt x="364" y="276" on="0"/>
        <pt x="373" y="330" on="0"/>
        <pt x="379" y="368" on="1"/>
      </contour>
    </TTGlyph>
    <TTGlyph name="question" xMin="35" yMin="-15" xMax="385" yMax="729">
      <contour>
        <pt x="385" y="583" on="1"/>
        <pt x="385" y="529" on="0"/>
        <pt x="334" y="458" on="0"/>
        <pt x="260" y="427" on="0"/>
        <pt x="186" y="404" on="0"/>
        <pt x="135" y="369" on="0"/>
        <pt x="135" y="341" on="1"/>
        <pt x="135" y="315" on="0"/>
        <pt x="180" y="281" on="0"/>
        <pt x="229" y="272" on="0"/>
        <pt x="256" y="271" on="1"/>
        <pt x="237" y="203" on="1"/>
        <pt x="161" y="210" on="0"/>
        <pt x="57" y="277" on="0"/>
        <pt x="57" y="345" on="1"/>
        <pt x="57" y="395" on="0"/>
        <pt x="108" y="459" on="0"/>
        <pt x="181" y="489" on="0"/>
        <pt x="254" y="515" on="0"/>
        <pt x="305" y="563" on="0"/>
        <pt x="305" y="602" on="1"/>
        <pt x="305" y="630" on="0"/>
        <pt x="259" y="664" on="0"/>
        <pt x="229" y="664" on="1"/>
        <pt x="178" y="664" on="0"/>
        <pt x="153" y="650" on="1"/>
        <pt x="136" y="717" on="1"/>
        <pt x="175" y="729" on="0"/>
        <pt x="226" y="729" on="1"/>
        <pt x="297" y="729" on="0"/>
        <pt x="385" y="653" on="0"/>
      </contour>
      <contour>
        <pt x="101" y="-15" on="1"/>
        <pt x="73" y="-15" on="0"/>
        <pt x="35" y="24" on="0"/>
        <pt x="35" y="52" on="1"/>
        <pt x="35" y="79" on="0"/>
        <pt x="73" y="118" on="0"/>
        <pt x="100" y="118" on="1"/>
        <pt x="128" y="118" on="0"/>
        <pt x="167" y="80" on="0"/>
        <pt x="167" y="24" on="0"/>
        <pt x="128" y="-15" on="0"/>
      </contour>
    </TTGlyph>
    <TTGlyph name="questiondown" xMin="35" yMin="-135" xMax="385" yMax="608">
      <contour>
        <pt x="363" y="249" on="1"/>
        <pt x="363" y="199" on="0"/>
        <pt x="312" y="135" on="0"/>
        <pt x="239" y="105" on="0"/>
        <pt x="166" y="79" on="0"/>
        <pt x="115" y="32" on="0"/>
        <pt x="115" y="-7" on="1"/>
        <pt x="115" y="-36" on="0"/>
        <pt x="161" y="-70" on="0"/>
        <pt x="191" y="-70" on="1"/>
        <pt x="241" y="-70" on="0"/>
        <pt x="267" y="-55" on="1"/>
        <pt x="284" y="-122" on="1"/>
        <pt x="246" y="-135" on="0"/>
        <pt x="194" y="-135" on="1"/>
        <pt x="123" y="-135" on="0"/>
        <pt x="35" y="-59" on="0"/>
        <pt x="35" y="12" on="1"/>
        <pt x="35" y="58" on="0"/>
        <pt x="72" y="123" on="0"/>
        <pt x="128" y="154" on="0"/>
        <pt x="192" y="180" on="0"/>
        <pt x="248" y="196" on="0"/>
        <pt x="285" y="229" on="0"/>
        <pt x="285" y="253" on="1"/>
        <pt x="285" y="291" on="0"/>
        <pt x="210" y="323" on="0"/>
        <pt x="164" y="324" on="1"/>
        <pt x="183" y="391" on="1"/>
        <pt x="259" y="384" on="0"/>
        <pt x="363" y="318" on="0"/>
      </contour>
      <contour>
        <pt x="319" y="475" on="1"/>
        <pt x="291" y="475" on="0"/>
        <pt x="253" y="514" on="0"/>
        <pt x="253" y="542" on="1"/>
        <pt x="253" y="569" on="0"/>
        <pt x="291" y="608" on="0"/>
        <pt x="318" y="608" on="1"/>
        <pt x="346" y="608" on="0"/>
        <pt x="385" y="570" on="0"/>
        <pt x="385" y="514" on="0"/>
        <pt x="346" y="475" on="0"/>
      </contour>
    </TTGlyph>
    <TTGlyph name="quotedbl" xMin="70" yMin="436" xMax="314" yMax="724">
      <component glyphName="quotesingle" x="6" y="0" flags="0x4"/>
      <component glyphName="quotesingle" x="145" y="0" flags="0x4"/>
    </TTGlyph>
    <TTGlyph name="quotedblbase" xMin="17" yMin="-125" xMax="360" yMax="120">
      <component glyphName="comma" x="-1" y="0" flags="0x4"/>
      <component glyphName="comma" x="189" y="0" flags="0x4"/>
    </TTGlyph>
    <TTGlyph name="quotedblleft" xMin="45" yMin="480" xMax="388" yMax="726">
      <component glyphName="quoteleft" x="0" y="0" flags="0x4"/>
      <component glyphName="quoteleft" x="190" y="0" flags="0x4"/>
    </TTGlyph>
    <TTGlyph name="quotedblright" xMin="63" yMin="479" xMax="406" yMax="724">
      <contour>
        <pt x="406" y="654" on="1"/>
        <pt x="406" y="605" on="0"/>
        <pt x="334" y="513" on="0"/>
        <pt x="282" y="479" on="1"/>
        <pt x="253" y="512" on="1"/>
        <pt x="255" y="514" on="0"/>
        <pt x="273" y="529" on="0"/>
        <pt x="281" y="537" on="0"/>
        <pt x="296" y="553" on="0"/>
        <pt x="304" y="564" on="0"/>
        <pt x="310" y="579" on="0"/>
        <pt x="310" y="593" on="0"/>
        <pt x="270" y="637" on="0"/>
        <pt x="270" y="658" on="1"/>
        <pt x="270" y="689" on="0"/>
        <pt x="311" y="724" on="0"/>
        <pt x="340" y="724" on="1"/>
        <pt x="370" y="724" on="0"/>
        <pt x="406" y="684" on="0"/>
      </contour>
      <contour>
        <pt x="216" y="654" on="1"/>
        <pt x="216" y="604" on="0"/>
        <pt x="144" y="513" on="0"/>
        <pt x="93" y="479" on="1"/>
        <pt x="63" y="512" on="1"/>
        <pt x="65" y="513" on="0"/>
        <pt x="88" y="533" on="0"/>
        <pt x="98" y="543" on="0"/>
        <pt x="114" y="562" on="0"/>
        <pt x="121" y="578" on="0"/>
        <pt x="121" y="586" on="1"/>
        <pt x="121" y="593" on="0"/>
        <pt x="81" y="637" on="0"/>
        <pt x="81" y="658" on="1"/>
        <pt x="81" y="689" on="0"/>
        <pt x="121" y="724" on="0"/>
        <pt x="150" y="724" on="1"/>
        <pt x="181" y="724" on="0"/>
        <pt x="216" y="684" on="0"/>
      </contour>
    </TTGlyph>
    <TTGlyph name="quoteleft" xMin="45" yMin="480" xMax="198" yMax="726">
      <contour>
        <pt x="198" y="693" on="1"/>
        <pt x="191" y="687" on="1"/>
        <pt x="140" y="643" on="0"/>
        <pt x="140" y="619" on="1"/>
        <pt x="140" y="612" on="0"/>
        <pt x="180" y="568" on="0"/>
        <pt x="180" y="547" on="1"/>
        <pt x="180" y="516" on="0"/>
        <pt x="140" y="480" on="0"/>
        <pt x="111" y="480" on="1"/>
        <pt x="80" y="480" on="0"/>
        <pt x="45" y="521" on="0"/>
        <pt x="45" y="551" on="1"/>
        <pt x="45" y="601" on="0"/>
        <pt x="116" y="692" on="0"/>
        <pt x="168" y="726" on="1"/>
      </contour>
    </TTGlyph>
    <TTGlyph name="quoteright" xMin="63" yMin="479" xMax="216" yMax="724">
      <contour>
        <pt x="216" y="654" on="1"/>
        <pt x="216" y="604" on="0"/>
        <pt x="144" y="513" on="0"/>
        <pt x="93" y="479" on="1"/>
        <pt x="63" y="512" on="1"/>
        <pt x="65" y="513" on="0"/>
        <pt x="88" y="533" on="0"/>
        <pt x="98" y="543" on="0"/>
        <pt x="114" y="562" on="0"/>
        <pt x="121" y="578" on="0"/>
        <pt x="121" y="586" on="1"/>
        <pt x="121" y="593" on="0"/>
        <pt x="81" y="637" on="0"/>
        <pt x="81" y="658" on="1"/>
        <pt x="81" y="689" on="0"/>
        <pt x="121" y="724" on="0"/>
        <pt x="150" y="724" on="1"/>
        <pt x="181" y="724" on="0"/>
        <pt x="216" y="684" on="0"/>
      </contour>
    </TTGlyph>
    <TTGlyph name="quotesinglbase" xMin="18" yMin="-125" xMax="171" yMax="120">
      <contour>
        <pt x="171" y="50" on="1"/>
        <pt x="171" y="1" on="0"/>
        <pt x="99" y="-91" on="0"/>
        <pt x="47" y="-125" on="1"/>
        <pt x="18" y="-92" on="1"/>
        <pt x="20" y="-90" on="0"/>
        <pt x="38" y="-75" on="0"/>
        <pt x="46" y="-67" on="0"/>
        <pt x="61" y="-51" on="0"/>
        <pt x="69" y="-40" on="0"/>
        <pt x="75" y="-25" on="0"/>
        <pt x="75" y="-11" on="0"/>
        <pt x="35" y="33" on="0"/>
        <pt x="35" y="54" on="1"/>
        <pt x="35" y="85" on="0"/>
        <pt x="76" y="120" on="0"/>
        <pt x="105" y="120" on="1"/>
        <pt x="135" y="120" on="0"/>
        <pt x="171" y="80" on="0"/>
      </contour>
    </TTGlyph>
    <TTGlyph name="quotesingle" xMin="64" yMin="436" xMax="169" yMax="724">
      <contour>
        <pt x="169" y="724" on="1"/>
        <pt x="144" y="548" on="1"/>
        <pt x="101" y="436" on="1"/>
        <pt x="73" y="436" on="1"/>
        <pt x="64" y="550" on="1"/>
        <pt x="89" y="724" on="1"/>
      </contour>
    </TTGlyph>
    <TTGlyph name="r" xMin="41" yMin="0" xMax="351" yMax="502">
      <contour>
        <pt x="351" y="502" on="1"/>
        <pt x="319" y="414" on="1"/>
        <pt x="238" y="414" on="0"/>
        <pt x="167" y="327" on="1"/>
        <pt x="124" y="0" on="1"/>
        <pt x="41" y="0" on="1"/>
        <pt x="87" y="358" on="1"/>
        <pt x="90" y="382" on="0"/>
        <pt x="90" y="405" on="1"/>
        <pt x="90" y="461" on="0"/>
        <pt x="73" y="491" on="1"/>
        <pt x="165" y="502" on="1"/>
        <pt x="175" y="471" on="0"/>
        <pt x="175" y="424" on="1"/>
        <pt x="175" y="411" on="1"/>
        <pt x="206" y="450" on="0"/>
        <pt x="300" y="502" on="0"/>
      </contour>
    </TTGlyph>
    <TTGlyph name="radical" xMin="-46" yMin="-230" xMax="647" yMax="948">
      <contour>
        <pt x="291" y="-230" on="1"/>
        <pt x="208" y="-230" on="1"/>
        <pt x="60" y="213" on="1"/>
        <pt x="-26" y="183" on="1"/>
        <pt x="-46" y="245" on="1"/>
        <pt x="117" y="303" on="1"/>
        <pt x="255" y="-112" on="1"/>
        <pt x="575" y="948" on="1"/>
        <pt x="647" y="948" on="1"/>
      </contour>
    </TTGlyph>
    <TTGlyph name="registered" xMin="33" yMin="405" xMax="430" yMax="801">
      <contour>
        <pt x="231" y="405" on="1"/>
        <pt x="148" y="405" on="0"/>
        <pt x="33" y="520" on="0"/>
        <pt x="33" y="686" on="0"/>
        <pt x="148" y="801" on="0"/>
        <pt x="231" y="801" on="1"/>
        <pt x="313" y="801" on="0"/>
        <pt x="430" y="685" on="0"/>
        <pt x="430" y="521" on="0"/>
        <pt x="313" y="405" on="0"/>
      </contour>
      <contour>
        <pt x="348" y="486" on="1"/>
        <pt x="397" y="535" on="0"/>
        <pt x="397" y="671" on="0"/>
        <pt x="299" y="768" on="0"/>
        <pt x="231" y="768" on="1"/>
        <pt x="163" y="768" on="0"/>
        <pt x="66" y="671" on="0"/>
        <pt x="66" y="535" on="0"/>
        <pt x="163" y="438" on="0"/>
        <pt x="231" y="438" on="1"/>
        <pt x="299" y="438" on="0"/>
      </contour>
      <contour>
        <pt x="343" y="492" on="1"/>
        <pt x="283" y="492" on="1"/>
        <pt x="218" y="588" on="1"/>
        <pt x="200" y="588" on="1"/>
        <pt x="200" y="492" on="1"/>
        <pt x="150" y="492" on="1"/>
        <pt x="150" y="717" on="1"/>
        <pt x="238" y="717" on="1"/>
        <pt x="316" y="717" on="0"/>
        <pt x="316" y="653" on="1"/>
        <pt x="316" y="613" on="0"/>
        <pt x="270" y="596" on="1"/>
      </contour>
      <contour>
        <pt x="200" y="625" on="1"/>
        <pt x="224" y="625" on="1"/>
        <pt x="266" y="625" on="0"/>
        <pt x="266" y="655" on="1"/>
        <pt x="266" y="680" on="0"/>
        <pt x="231" y="680" on="1"/>
        <pt x="200" y="680" on="1"/>
      </contour>
    </TTGlyph>
    <TTGlyph name="ring" xMin="42" yMin="551" xMax="241" yMax="750">
      <contour>
        <pt x="212" y="720" on="1"/>
        <pt x="241" y="691" on="0"/>
        <pt x="241" y="609" on="0"/>
        <pt x="182" y="551" on="0"/>
        <pt x="141" y="551" on="1"/>
        <pt x="100" y="551" on="0"/>
        <pt x="42" y="609" on="0"/>
        <pt x="42" y="691" on="0"/>
        <pt x="101" y="750" on="0"/>
        <pt x="142" y="750" on="1"/>
        <pt x="183" y="750" on="0"/>
      </contour>
      <contour>
        <pt x="141" y="602" on="1"/>
        <pt x="161" y="602" on="0"/>
        <pt x="189" y="630" on="0"/>
        <pt x="189" y="670" on="0"/>
        <pt x="160" y="698" on="0"/>
        <pt x="141" y="698" on="1"/>
        <pt x="122" y="698" on="0"/>
        <pt x="93" y="670" on="0"/>
        <pt x="93" y="630" on="0"/>
        <pt x="122" y="602" on="0"/>
      </contour>
    </TTGlyph>
    <TTGlyph name="s" xMin="6" yMin="-13" xMax="361" yMax="503">
      <contour>
        <pt x="361" y="470" on="1"/>
        <pt x="327" y="410" on="1"/>
        <pt x="284" y="441" on="0"/>
        <pt x="235" y="441" on="1"/>
        <pt x="197" y="441" on="0"/>
        <pt x="141" y="400" on="0"/>
        <pt x="141" y="364" on="1"/>
        <pt x="141" y="342" on="0"/>
        <pt x="180" y="305" on="0"/>
        <pt x="236" y="274" on="0"/>
        <pt x="292" y="238" on="0"/>
        <pt x="331" y="178" on="0"/>
        <pt x="331" y="139" on="1"/>
        <pt x="331" y="67" on="0"/>
        <pt x="227" y="-13" on="0"/>
        <pt x="153" y="-13" on="1"/>
        <pt x="75" y="-13" on="0"/>
        <pt x="6" y="28" on="1"/>
        <pt x="49" y="89" on="1"/>
        <pt x="97" y="49" on="0"/>
        <pt x="150" y="49" on="1"/>
        <pt x="190" y="49" on="0"/>
        <pt x="248" y="91" on="0"/>
        <pt x="248" y="130" on="1"/>
        <pt x="248" y="156" on="0"/>
        <pt x="209" y="197" on="0"/>
        <pt x="154" y="228" on="0"/>
        <pt x="98" y="262" on="0"/>
        <pt x="59" y="318" on="0"/>
        <pt x="59" y="354" on="1"/>
        <pt x="59" y="427" on="0"/>
        <pt x="165" y="503" on="0"/>
        <pt x="240" y="503" on="1"/>
        <pt x="306" y="503" on="0"/>
      </contour>
    </TTGlyph>
    <TTGlyph name="scaron" xMin="6" yMin="-13" xMax="396" yMax="724">
      <component glyphName="caron" x="107" y="0" flags="0x4"/>
      <component glyphName="s" x="0" y="0" flags="0x4"/>
    </TTGlyph>
    <TTGlyph name="section" xMin="-15" yMin="-233" xMax="460" yMax="773">
      <contour>
        <pt x="460" y="758" on="1"/>
        <pt x="435" y="692" on="1"/>
        <pt x="402" y="705" on="0"/>
        <pt x="387" y="705" on="1"/>
        <pt x="303" y="705" on="0"/>
        <pt x="303" y="597" on="1"/>
        <pt x="303" y="538" on="0"/>
        <pt x="341" y="107" on="0"/>
        <pt x="341" y="79" on="1"/>
        <pt x="341" y="41" on="0"/>
        <pt x="322" y="-28" on="0"/>
        <pt x="262" y="-93" on="0"/>
        <pt x="214" y="-101" on="1"/>
        <pt x="203" y="-169" on="0"/>
        <pt x="113" y="-233" on="0"/>
        <pt x="56" y="-233" on="1"/>
        <pt x="15" y="-233" on="0"/>
        <pt x="-15" y="-218" on="1"/>
        <pt x="9" y="-157" on="1"/>
        <pt x="10" y="-157" on="0"/>
        <pt x="30" y="-164" on="0"/>
        <pt x="51" y="-169" on="0"/>
        <pt x="56" y="-169" on="1"/>
        <pt x="140" y="-169" on="0"/>
        <pt x="140" y="-60" on="1"/>
        <pt x="140" y="-21" on="0"/>
        <pt x="103" y="409" on="0"/>
        <pt x="103" y="458" on="1"/>
        <pt x="103" y="626" on="0"/>
        <pt x="229" y="641" on="1"/>
        <pt x="238" y="704" on="0"/>
        <pt x="326" y="773" on="0"/>
        <pt x="387" y="773" on="1"/>
        <pt x="399" y="773" on="0"/>
        <pt x="436" y="766" on="0"/>
        <pt x="448" y="762" on="1"/>
      </contour>
      <contour>
        <pt x="262" y="73" on="1"/>
        <pt x="262" y="122" on="0"/>
        <pt x="230" y="510" on="0"/>
        <pt x="227" y="569" on="1"/>
        <pt x="180" y="549" on="0"/>
        <pt x="180" y="465" on="1"/>
        <pt x="180" y="437" on="0"/>
        <pt x="214" y="48" on="0"/>
        <pt x="217" y="-29" on="1"/>
        <pt x="262" y="-7" on="0"/>
      </contour>
    </TTGlyph>
    <TTGlyph name="semicolon" xMin="18" yMin="-125" xMax="214" yMax="428">
      <contour>
        <pt x="148" y="295" on="1"/>
        <pt x="120" y="295" on="0"/>
        <pt x="82" y="334" on="0"/>
        <pt x="82" y="362" on="1"/>
        <pt x="82" y="389" on="0"/>
        <pt x="120" y="428" on="0"/>
        <pt x="147" y="428" on="1"/>
        <pt x="175" y="428" on="0"/>
        <pt x="214" y="390" on="0"/>
        <pt x="214" y="334" on="0"/>
        <pt x="175" y="295" on="0"/>
      </contour>
      <contour>
        <pt x="171" y="50" on="1"/>
        <pt x="171" y="0" on="0"/>
        <pt x="99" y="-91" on="0"/>
        <pt x="48" y="-125" on="1"/>
        <pt x="18" y="-92" on="1"/>
        <pt x="24" y="-87" on="1"/>
        <pt x="76" y="-45" on="0"/>
        <pt x="76" y="-18" on="1"/>
        <pt x="76" y="-11" on="0"/>
        <pt x="36" y="33" on="0"/>
        <pt x="36" y="54" on="1"/>
        <pt x="36" y="85" on="0"/>
        <pt x="76" y="120" on="0"/>
        <pt x="105" y="120" on="1"/>
        <pt x="136" y="120" on="0"/>
        <pt x="171" y="80" on="0"/>
      </contour>
    </TTGlyph>
    <TTGlyph name="seven" xMin="22" yMin="-183" xMax="393" yMax="490">
      <contour>
        <pt x="393" y="449" on="1"/>
        <pt x="129" y="-183" on="1"/>
        <pt x="43" y="-183" on="1"/>
        <pt x="299" y="415" on="1"/>
        <pt x="22" y="415" on="1"/>
        <pt x="41" y="490" on="1"/>
        <pt x="393" y="490" on="1"/>
      </contour>
    </TTGlyph>
    <TTGlyph name="six" xMin="30" yMin="-13" xMax="494" yMax="726">
      <contour>
        <pt x="494" y="677" on="1"/>
        <pt x="378" y="630" on="0"/>
        <pt x="197" y="461" on="0"/>
        <pt x="153" y="354" on="1"/>
        <pt x="217" y="403" on="0"/>
        <pt x="292" y="403" on="1"/>
        <pt x="362" y="403" on="0"/>
        <pt x="449" y="308" on="0"/>
        <pt x="449" y="238" on="1"/>
        <pt x="449" y="134" on="0"/>
        <pt x="315" y="-13" on="0"/>
        <pt x="212" y="-13" on="1"/>
        <pt x="129" y="-13" on="0"/>
        <pt x="30" y="105" on="0"/>
        <pt x="30" y="189" on="1"/>
        <pt x="30" y="211" on="0"/>
        <pt x="33" y="235" on="1"/>
        <pt x="53" y="371" on="0"/>
        <pt x="219" y="588" on="0"/>
        <pt x="346" y="665" on="1"/>
        <pt x="414" y="706" on="0"/>
        <pt x="471" y="726" on="1"/>
      </contour>
      <contour>
        <pt x="361" y="226" on="1"/>
        <pt x="361" y="273" on="0"/>
        <pt x="309" y="335" on="0"/>
        <pt x="263" y="335" on="1"/>
        <pt x="198" y="335" on="0"/>
        <pt x="127" y="268" on="1"/>
        <pt x="117" y="225" on="0"/>
        <pt x="117" y="187" on="1"/>
        <pt x="117" y="130" on="0"/>
        <pt x="170" y="49" on="0"/>
        <pt x="221" y="49" on="1"/>
        <pt x="284" y="49" on="0"/>
        <pt x="361" y="159" on="0"/>
      </contour>
    </TTGlyph>
    <TTGlyph name="slash" xMin="-14" yMin="-8" xMax="307" yMax="724">
      <contour>
        <pt x="307" y="724" on="1"/>
        <pt x="54" y="-8" on="1"/>
        <pt x="-14" y="-8" on="1"/>
        <pt x="241" y="724" on="1"/>
      </contour>
    </TTGlyph>
    <TTGlyph name="sterling" xMin="16" yMin="-2" xMax="547" yMax="732">
      <contour>
        <pt x="547" y="634" on="1"/>
        <pt x="470" y="592" on="1"/>
        <pt x="446" y="663" on="0"/>
        <pt x="385" y="663" on="1"/>
        <pt x="341" y="663" on="0"/>
        <pt x="274" y="599" on="0"/>
        <pt x="267" y="541" on="1"/>
        <pt x="252" y="423" on="1"/>
        <pt x="375" y="423" on="1"/>
        <pt x="365" y="355" on="1"/>
        <pt x="242" y="355" on="1"/>
        <pt x="204" y="67" on="1"/>
        <pt x="482" y="67" on="1"/>
        <pt x="472" y="-2" on="1"/>
        <pt x="16" y="-2" on="1"/>
        <pt x="26" y="67" on="1"/>
        <pt x="115" y="67" on="1"/>
        <pt x="153" y="355" on="1"/>
        <pt x="80" y="355" on="1"/>
        <pt x="90" y="423" on="1"/>
        <pt x="163" y="423" on="1"/>
        <pt x="178" y="540" on="1"/>
        <pt x="190" y="634" on="0"/>
        <pt x="310" y="732" on="0"/>
        <pt x="393" y="732" on="1"/>
        <pt x="446" y="732" on="0"/>
        <pt x="527" y="680" on="0"/>
      </contour>
    </TTGlyph>
    <TTGlyph name="summation" xMin="55" yMin="-228" xMax="671" yMax="723">
      <contour>
        <pt x="671" y="-228" on="1"/>
        <pt x="55" y="-228" on="1"/>
        <pt x="55" y="-130" on="1"/>
        <pt x="151" y="2" on="0"/>
        <pt x="345" y="266" on="1"/>
        <pt x="321" y="298" on="0"/>
        <pt x="111" y="578" on="0"/>
        <pt x="55" y="654" on="1"/>
        <pt x="55" y="723" on="1"/>
        <pt x="661" y="723" on="1"/>
        <pt x="661" y="654" on="1"/>
        <pt x="176" y="654" on="1"/>
        <pt x="253" y="554" on="0"/>
        <pt x="451" y="294" on="1"/>
        <pt x="201" y="-48" on="0"/>
        <pt x="139" y="-127" on="1"/>
        <pt x="671" y="-127" on="1"/>
      </contour>
    </TTGlyph>
    <TTGlyph name="t" xMin="32" yMin="-13" xMax="302" yMax="631">
      <contour>
        <pt x="302" y="490" on="1"/>
        <pt x="293" y="427" on="1"/>
        <pt x="180" y="427" on="1"/>
        <pt x="139" y="110" on="1"/>
        <pt x="137" y="95" on="0"/>
        <pt x="137" y="89" on="1"/>
        <pt x="137" y="49" on="0"/>
        <pt x="176" y="49" on="1"/>
        <pt x="197" y="49" on="0"/>
        <pt x="241" y="60" on="1"/>
        <pt x="248" y="7" on="1"/>
        <pt x="195" y="-13" on="0"/>
        <pt x="152" y="-13" on="1"/>
        <pt x="109" y="-13" on="0"/>
        <pt x="57" y="26" on="0"/>
        <pt x="57" y="81" on="1"/>
        <pt x="60" y="116" on="1"/>
        <pt x="101" y="427" on="1"/>
        <pt x="32" y="427" on="1"/>
        <pt x="41" y="490" on="1"/>
        <pt x="110" y="490" on="1"/>
        <pt x="130" y="631" on="1"/>
        <pt x="219" y="631" on="1"/>
        <pt x="189" y="490" on="1"/>
      </contour>
    </TTGlyph>
    <TTGlyph name="thorn" xMin="10" yMin="-223" xMax="479" yMax="764">
      <contour>
        <pt x="224" y="764" on="1"/>
        <pt x="179" y="432" on="1"/>
        <pt x="233" y="503" on="0"/>
        <pt x="321" y="503" on="1"/>
        <pt x="398" y="503" on="0"/>
        <pt x="479" y="392" on="0"/>
        <pt x="479" y="308" on="1"/>
        <pt x="479" y="231" on="0"/>
        <pt x="417" y="85" on="0"/>
        <pt x="297" y="-13" on="0"/>
        <pt x="223" y="-13" on="1"/>
        <pt x="196" y="-13" on="0"/>
        <pt x="139" y="8" on="0"/>
        <pt x="124" y="22" on="1"/>
        <pt x="99" y="-165" on="1"/>
        <pt x="99" y="-223" on="1"/>
        <pt x="10" y="-223" on="1"/>
        <pt x="136" y="707" on="1"/>
        <pt x="136" y="764" on="1"/>
      </contour>
      <contour>
        <pt x="386" y="314" on="1"/>
        <pt x="386" y="365" on="0"/>
        <pt x="348" y="441" on="0"/>
        <pt x="301" y="441" on="1"/>
        <pt x="181" y="441" on="0"/>
        <pt x="145" y="178" on="1"/>
        <pt x="142" y="160" on="0"/>
        <pt x="136" y="97" on="0"/>
        <pt x="134" y="88" on="1"/>
        <pt x="149" y="71" on="0"/>
        <pt x="201" y="49" on="0"/>
        <pt x="226" y="49" on="1"/>
        <pt x="300" y="49" on="0"/>
        <pt x="386" y="219" on="0"/>
      </contour>
    </TTGlyph>
    <TTGlyph name="three" xMin="-85" yMin="-212" xMax="345" yMax="503">
      <contour>
        <pt x="345" y="417" on="1"/>
        <pt x="345" y="366" on="0"/>
        <pt x="258" y="259" on="0"/>
        <pt x="202" y="221" on="1"/>
        <pt x="209" y="222" on="0"/>
        <pt x="223" y="222" on="1"/>
        <pt x="275" y="222" on="0"/>
        <pt x="334" y="158" on="0"/>
        <pt x="334" y="105" on="1"/>
        <pt x="334" y="31" on="0"/>
        <pt x="257" y="-91" on="0"/>
        <pt x="133" y="-166" on="0"/>
        <pt x="-10" y="-209" on="0"/>
        <pt x="-81" y="-212" on="1"/>
        <pt x="-85" y="-160" on="1"/>
        <pt x="-32" y="-155" on="0"/>
        <pt x="80" y="-117" on="0"/>
        <pt x="181" y="-55" on="0"/>
        <pt x="246" y="38" on="0"/>
        <pt x="246" y="91" on="1"/>
        <pt x="246" y="157" on="0"/>
        <pt x="175" y="157" on="1"/>
        <pt x="141" y="157" on="0"/>
        <pt x="96" y="142" on="1"/>
        <pt x="76" y="196" on="1"/>
        <pt x="140" y="230" on="0"/>
        <pt x="256" y="348" on="0"/>
        <pt x="256" y="401" on="1"/>
        <pt x="256" y="441" on="0"/>
        <pt x="212" y="441" on="1"/>
        <pt x="161" y="441" on="0"/>
        <pt x="99" y="385" on="1"/>
        <pt x="57" y="422" on="1"/>
        <pt x="92" y="459" on="0"/>
        <pt x="193" y="503" on="0"/>
        <pt x="241" y="503" on="1"/>
        <pt x="286" y="503" on="0"/>
        <pt x="345" y="462" on="0"/>
      </contour>
    </TTGlyph>
    <TTGlyph name="threequarters" xMin="43" yMin="-22" xMax="877" yMax="753">
      <contour>
        <pt x="46" y="236" on="1"/>
        <pt x="43" y="287" on="1"/>
        <pt x="163" y="293" on="0"/>
        <pt x="299" y="371" on="0"/>
        <pt x="299" y="431" on="1"/>
        <pt x="299" y="492" on="0"/>
        <pt x="200" y="492" on="1"/>
        <pt x="195" y="492" on="0"/>
        <pt x="190" y="492" on="1"/>
        <pt x="185" y="492" on="0"/>
        <pt x="177" y="491" on="0"/>
        <pt x="170" y="490" on="0"/>
        <pt x="168" y="490" on="1"/>
        <pt x="166" y="490" on="1"/>
        <pt x="166" y="537" on="1"/>
        <pt x="308" y="566" on="0"/>
        <pt x="308" y="643" on="1"/>
        <pt x="308" y="683" on="0"/>
        <pt x="250" y="683" on="1"/>
        <pt x="221" y="683" on="0"/>
        <pt x="150" y="653" on="0"/>
        <pt x="124" y="633" on="1"/>
        <pt x="109" y="659" on="0"/>
        <pt x="100" y="679" on="1"/>
        <pt x="136" y="706" on="0"/>
        <pt x="234" y="741" on="0"/>
        <pt x="276" y="741" on="1"/>
        <pt x="322" y="741" on="0"/>
        <pt x="387" y="704" on="0"/>
        <pt x="387" y="663" on="1"/>
        <pt x="387" y="619" on="0"/>
        <pt x="323" y="558" on="0"/>
        <pt x="279" y="541" on="1"/>
        <pt x="322" y="535" on="0"/>
        <pt x="377" y="485" on="0"/>
        <pt x="377" y="444" on="1"/>
        <pt x="377" y="420" on="0"/>
        <pt x="361" y="371" on="0"/>
        <pt x="315" y="315" on="0"/>
        <pt x="245" y="271" on="0"/>
        <pt x="124" y="239" on="0"/>
      </contour>
      <contour>
        <pt x="783" y="0" on="1"/>
        <pt x="707" y="0" on="1"/>
        <pt x="722" y="110" on="1"/>
        <pt x="509" y="110" on="1"/>
        <pt x="509" y="150" on="1"/>
        <pt x="771" y="483" on="1"/>
        <pt x="848" y="483" on="1"/>
        <pt x="806" y="169" on="1"/>
        <pt x="877" y="169" on="1"/>
        <pt x="862" y="135" on="0"/>
        <pt x="853" y="110" on="1"/>
        <pt x="798" y="110" on="1"/>
      </contour>
      <contour>
        <pt x="730" y="169" on="1"/>
        <pt x="746" y="289" on="1"/>
        <pt x="748" y="302" on="0"/>
        <pt x="763" y="398" on="1"/>
        <pt x="723" y="334" on="0"/>
        <pt x="592" y="169" on="1"/>
      </contour>
      <contour>
        <pt x="317" y="-22" on="1"/>
        <pt x="258" y="-22" on="1"/>
        <pt x="654" y="753" on="1"/>
        <pt x="713" y="753" on="1"/>
      </contour>
    </TTGlyph>
    <TTGlyph name="threesuperior" xMin="43" yMin="423" xMax="386" yMax="928">
      <contour>
        <pt x="46" y="423" on="1"/>
        <pt x="43" y="474" on="1"/>
        <pt x="163" y="480" on="0"/>
        <pt x="300" y="559" on="0"/>
        <pt x="300" y="618" on="1"/>
        <pt x="300" y="679" on="0"/>
        <pt x="201" y="679" on="1"/>
        <pt x="196" y="679" on="0"/>
        <pt x="190" y="679" on="1"/>
        <pt x="185" y="679" on="0"/>
        <pt x="177" y="678" on="0"/>
        <pt x="170" y="677" on="0"/>
        <pt x="168" y="677" on="1"/>
        <pt x="166" y="677" on="1"/>
        <pt x="166" y="724" on="1"/>
        <pt x="311" y="753" on="0"/>
        <pt x="311" y="830" on="1"/>
        <pt x="311" y="870" on="0"/>
        <pt x="250" y="870" on="1"/>
        <pt x="222" y="870" on="0"/>
        <pt x="150" y="840" on="0"/>
        <pt x="124" y="820" on="1"/>
        <pt x="99" y="866" on="1"/>
        <pt x="135" y="893" on="0"/>
        <pt x="234" y="928" on="0"/>
        <pt x="276" y="928" on="1"/>
        <pt x="322" y="928" on="0"/>
        <pt x="386" y="892" on="0"/>
        <pt x="386" y="852" on="1"/>
        <pt x="386" y="807" on="0"/>
        <pt x="324" y="745" on="0"/>
        <pt x="281" y="728" on="1"/>
        <pt x="323" y="723" on="0"/>
        <pt x="377" y="671" on="0"/>
        <pt x="377" y="630" on="1"/>
        <pt x="377" y="599" on="0"/>
        <pt x="347" y="537" on="0"/>
        <pt x="279" y="471" on="0"/>
        <pt x="141" y="427" on="0"/>
      </contour>
    </TTGlyph>
    <TTGlyph name="tilde" xMin="-18" yMin="575" xMax="289" yMax="683">
      <contour>
        <pt x="289" y="648" on="1"/>
        <pt x="288" y="645" on="0"/>
        <pt x="283" y="635" on="0"/>
        <pt x="266" y="610" on="0"/>
        <pt x="245" y="591" on="0"/>
        <pt x="211" y="575" on="0"/>
        <pt x="192" y="575" on="1"/>
        <pt x="164" y="575" on="0"/>
        <pt x="83" y="613" on="0"/>
        <pt x="60" y="613" on="1"/>
        <pt x="34" y="613" on="0"/>
        <pt x="7" y="586" on="1"/>
        <pt x="-18" y="606" on="1"/>
        <pt x="-17" y="609" on="0"/>
        <pt x="-12" y="620" on="0"/>
        <pt x="7" y="646" on="0"/>
        <pt x="29" y="666" on="0"/>
        <pt x="67" y="683" on="0"/>
        <pt x="88" y="683" on="1"/>
        <pt x="116" y="683" on="0"/>
        <pt x="194" y="645" on="0"/>
        <pt x="211" y="645" on="1"/>
        <pt x="238" y="645" on="0"/>
        <pt x="266" y="673" on="1"/>
      </contour>
    </TTGlyph>
    <TTGlyph name="trademark" xMin="75" yMin="499" xMax="535" yMax="724">
      <contour>
        <pt x="535" y="724" on="1"/>
        <pt x="504" y="499" on="1"/>
        <pt x="455" y="499" on="1"/>
        <pt x="474" y="636" on="1"/>
        <pt x="474" y="640" on="0"/>
        <pt x="476" y="650" on="1"/>
        <pt x="459" y="616" on="0"/>
        <pt x="396" y="499" on="1"/>
        <pt x="366" y="499" on="1"/>
        <pt x="358" y="529" on="0"/>
        <pt x="332" y="634" on="0"/>
        <pt x="327" y="654" on="1"/>
        <pt x="327" y="649" on="0"/>
        <pt x="326" y="646" on="1"/>
        <pt x="306" y="499" on="1"/>
        <pt x="264" y="499" on="1"/>
        <pt x="295" y="724" on="1"/>
        <pt x="361" y="724" on="1"/>
        <pt x="396" y="579" on="1"/>
        <pt x="471" y="724" on="1"/>
      </contour>
      <contour>
        <pt x="273" y="724" on="1"/>
        <pt x="268" y="687" on="1"/>
        <pt x="196" y="687" on="1"/>
        <pt x="170" y="500" on="1"/>
        <pt x="120" y="500" on="1"/>
        <pt x="146" y="687" on="1"/>
        <pt x="75" y="687" on="1"/>
        <pt x="80" y="724" on="1"/>
      </contour>
    </TTGlyph>
    <TTGlyph name="two" xMin="35" yMin="0" xMax="427" yMax="503">
      <contour>
        <pt x="35" y="0" on="1"/>
        <pt x="35" y="53" on="1"/>
        <pt x="214" y="228" on="0"/>
        <pt x="249" y="262" on="1"/>
        <pt x="318" y="329" on="0"/>
        <pt x="318" y="379" on="1"/>
        <pt x="318" y="403" on="0"/>
        <pt x="288" y="441" on="0"/>
        <pt x="257" y="441" on="1"/>
        <pt x="225" y="441" on="0"/>
        <pt x="161" y="404" on="0"/>
        <pt x="145" y="385" on="1"/>
        <pt x="129" y="366" on="1"/>
        <pt x="82" y="404" on="1"/>
        <pt x="162" y="503" on="0"/>
        <pt x="272" y="503" on="1"/>
        <pt x="330" y="503" on="0"/>
        <pt x="409" y="440" on="0"/>
        <pt x="409" y="383" on="1"/>
        <pt x="409" y="297" on="0"/>
        <pt x="296" y="201" on="1"/>
        <pt x="140" y="68" on="1"/>
        <pt x="427" y="68" on="1"/>
        <pt x="413" y="0" on="1"/>
      </contour>
    </TTGlyph>
    <TTGlyph name="twosuperior" xMin="38" yMin="434" xMax="401" yMax="928">
      <contour>
        <pt x="344" y="434" on="1"/>
        <pt x="38" y="434" on="1"/>
        <pt x="38" y="472" on="1"/>
        <pt x="41" y="475" on="1"/>
        <pt x="60" y="489" on="0"/>
        <pt x="109" y="528" on="0"/>
        <pt x="199" y="609" on="0"/>
        <pt x="269" y="685" on="0"/>
        <pt x="322" y="774" on="0"/>
        <pt x="322" y="807" on="1"/>
        <pt x="322" y="835" on="0"/>
        <pt x="287" y="870" on="0"/>
        <pt x="255" y="870" on="1"/>
        <pt x="227" y="870" on="0"/>
        <pt x="164" y="844" on="0"/>
        <pt x="146" y="830" on="1"/>
        <pt x="129" y="817" on="1"/>
        <pt x="104" y="864" on="1"/>
        <pt x="112" y="871" on="0"/>
        <pt x="141" y="892" on="0"/>
        <pt x="232" y="928" on="0"/>
        <pt x="278" y="928" on="1"/>
        <pt x="342" y="928" on="0"/>
        <pt x="401" y="867" on="0"/>
        <pt x="401" y="822" on="1"/>
        <pt x="401" y="778" on="0"/>
        <pt x="349" y="680" on="0"/>
        <pt x="275" y="602" on="0"/>
        <pt x="201" y="537" on="0"/>
        <pt x="175" y="520" on="1"/>
        <pt x="149" y="502" on="1"/>
        <pt x="371" y="502" on="1"/>
      </contour>
    </TTGlyph>
    <TTGlyph name="u" xMin="40" yMin="-13" xMax="483" yMax="490">
      <contour>
        <pt x="483" y="11" on="1"/>
        <pt x="439" y="-12" on="0"/>
        <pt x="408" y="-12" on="1"/>
        <pt x="379" y="-12" on="0"/>
        <pt x="329" y="32" on="0"/>
        <pt x="329" y="73" on="1"/>
        <pt x="325" y="73" on="1"/>
        <pt x="268" y="-13" on="0"/>
        <pt x="168" y="-13" on="1"/>
        <pt x="103" y="-13" on="0"/>
        <pt x="40" y="57" on="0"/>
        <pt x="40" y="119" on="1"/>
        <pt x="40" y="138" on="0"/>
        <pt x="43" y="159" on="1"/>
        <pt x="81" y="433" on="1"/>
        <pt x="81" y="490" on="1"/>
        <pt x="168" y="490" on="1"/>
        <pt x="125" y="171" on="1"/>
        <pt x="122" y="149" on="0"/>
        <pt x="122" y="130" on="1"/>
        <pt x="122" y="49" on="0"/>
        <pt x="189" y="49" on="1"/>
        <pt x="239" y="49" on="0"/>
        <pt x="328" y="154" on="0"/>
        <pt x="346" y="279" on="1"/>
        <pt x="368" y="432" on="1"/>
        <pt x="368" y="490" on="1"/>
        <pt x="456" y="490" on="1"/>
        <pt x="405" y="121" on="1"/>
        <pt x="403" y="101" on="0"/>
        <pt x="403" y="95" on="1"/>
        <pt x="403" y="53" on="0"/>
        <pt x="431" y="53" on="1"/>
        <pt x="440" y="53" on="0"/>
        <pt x="460" y="58" on="0"/>
        <pt x="466" y="60" on="1"/>
        <pt x="472" y="63" on="1"/>
      </contour>
    </TTGlyph>
    <TTGlyph name="uacute" xMin="40" yMin="-13" xMax="483" yMax="724">
      <component glyphName="acute" x="192" y="0" flags="0x4"/>
      <component glyphName="u" x="0" y="0" flags="0x4"/>
    </TTGlyph>
    <TTGlyph name="ucircumflex" xMin="40" yMin="-13" xMax="483" yMax="724">
      <component glyphName="circumflex" x="145" y="0" flags="0x4"/>
      <component glyphName="u" x="0" y="0" flags="0x4"/>
    </TTGlyph>
    <TTGlyph name="udieresis" xMin="40" yMin="-13" xMax="483" yMax="728">
      <component glyphName="dieresis" x="147" y="47" flags="0x4"/>
      <component glyphName="u" x="0" y="0" flags="0x4"/>
    </TTGlyph>
    <TTGlyph name="ugrave" xMin="40" yMin="-13" xMax="483" yMax="724">
      <component glyphName="u" x="0" y="0" flags="0x204"/>
      <component glyphName="grave" x="62" y="0" flags="0x4"/>
    </TTGlyph>
    <TTGlyph name="underscore" xMin="-21" yMin="-128" xMax="480" yMax="-73">
      <contour>
        <pt x="480" y="-73" on="1"/>
        <pt x="471" y="-128" on="1"/>
        <pt x="-21" y="-128" on="1"/>
        <pt x="-12" y="-73" on="1"/>
      </contour>
    </TTGlyph>
    <TTGlyph name="uni00A0" xMin="0" yMin="0" xMax="0" yMax="0">
      <component glyphName="space" x="0" y="0" flags="0x204"/>
    </TTGlyph>
    <TTGlyph name="uni00AD" xMin="72" yMin="216" xMax="564" yMax="277">
      <contour>
        <pt x="564" y="216" on="1"/>
        <pt x="72" y="216" on="1"/>
        <pt x="72" y="277" on="1"/>
        <pt x="564" y="277" on="1"/>
      </contour>
    </TTGlyph>
    <TTGlyph name="v" xMin="42" yMin="-5" xMax="451" yMax="490">
      <contour>
        <pt x="451" y="490" on="1"/>
        <pt x="216" y="-5" on="1"/>
        <pt x="143" y="-5" on="1"/>
        <pt x="42" y="490" on="1"/>
        <pt x="126" y="490" on="1"/>
        <pt x="201" y="117" on="1"/>
        <pt x="376" y="490" on="1"/>
      </contour>
    </TTGlyph>
    <TTGlyph name="w" xMin="42" yMin="-5" xMax="643" yMax="490">
      <contour>
        <pt x="643" y="490" on="1"/>
        <pt x="428" y="-5" on="1"/>
        <pt x="370" y="-5" on="1"/>
        <pt x="320" y="332" on="1"/>
        <pt x="173" y="-5" on="1"/>
        <pt x="115" y="-5" on="1"/>
        <pt x="42" y="490" on="1"/>
        <pt x="124" y="490" on="1"/>
        <pt x="174" y="156" on="1"/>
        <pt x="319" y="490" on="1"/>
        <pt x="377" y="490" on="1"/>
        <pt x="428" y="156" on="1"/>
        <pt x="572" y="490" on="1"/>
      </contour>
    </TTGlyph>
    <TTGlyph name="x" xMin="-36" yMin="0" xMax="421" yMax="490">
      <contour>
        <pt x="421" y="490" on="1"/>
        <pt x="244" y="261" on="1"/>
        <pt x="370" y="0" on="1"/>
        <pt x="279" y="0" on="1"/>
        <pt x="188" y="191" on="1"/>
        <pt x="43" y="0" on="1"/>
        <pt x="-36" y="0" on="1"/>
        <pt x="156" y="254" on="1"/>
        <pt x="42" y="490" on="1"/>
        <pt x="131" y="490" on="1"/>
        <pt x="212" y="324" on="1"/>
        <pt x="342" y="490" on="1"/>
      </contour>
    </TTGlyph>
    <TTGlyph name="y" xMin="-152" yMin="-230" xMax="451" yMax="490">
      <contour>
        <pt x="451" y="490" on="1"/>
        <pt x="203" y="-51" on="1"/>
        <pt x="120" y="-230" on="0"/>
        <pt x="-46" y="-230" on="1"/>
        <pt x="-106" y="-230" on="0"/>
        <pt x="-152" y="-203" on="1"/>
        <pt x="-114" y="-143" on="1"/>
        <pt x="-69" y="-164" on="0"/>
        <pt x="-41" y="-164" on="1"/>
        <pt x="15" y="-164" on="0"/>
        <pt x="107" y="-96" on="0"/>
        <pt x="135" y="-30" on="1"/>
        <pt x="149" y="3" on="1"/>
        <pt x="45" y="490" on="1"/>
        <pt x="130" y="490" on="1"/>
        <pt x="203" y="118" on="1"/>
        <pt x="375" y="490" on="1"/>
      </contour>
    </TTGlyph>
    <TTGlyph name="yacute" xMin="-152" yMin="-230" xMax="454" yMax="724">
      <component glyphName="acute" x="180" y="0" flags="0x4"/>
      <component glyphName="y" x="0" y="0" flags="0x4"/>
    </TTGlyph>
    <TTGlyph name="ydieresis" xMin="-152" yMin="-230" xMax="451" yMax="727">
      <component glyphName="dieresis" x="123" y="46" flags="0x4"/>
      <component glyphName="y" x="0" y="0" flags="0x4"/>
    </TTGlyph>
    <TTGlyph name="yen" xMin="44" yMin="0" xMax="466" yMax="490">
      <contour>
        <pt x="466" y="490" on="1"/>
        <pt x="329" y="314" on="1"/>
        <pt x="422" y="314" on="1"/>
        <pt x="415" y="268" on="1"/>
        <pt x="292" y="268" on="1"/>
        <pt x="272" y="242" on="1"/>
        <pt x="267" y="207" on="1"/>
        <pt x="408" y="207" on="1"/>
        <pt x="401" y="161" on="1"/>
        <pt x="260" y="161" on="1"/>
        <pt x="238" y="0" on="1"/>
        <pt x="161" y="0" on="1"/>
        <pt x="183" y="161" on="1"/>
        <pt x="44" y="161" on="1"/>
        <pt x="51" y="207" on="1"/>
        <pt x="190" y="207" on="1"/>
        <pt x="194" y="243" on="1"/>
        <pt x="181" y="268" on="1"/>
        <pt x="58" y="268" on="1"/>
        <pt x="65" y="314" on="1"/>
        <pt x="156" y="314" on="1"/>
        <pt x="64" y="490" on="1"/>
        <pt x="149" y="490" on="1"/>
        <pt x="250" y="304" on="1"/>
        <pt x="392" y="490" on="1"/>
      </contour>
    </TTGlyph>
    <TTGlyph name="z" xMin="18" yMin="0" xMax="423" yMax="490">
      <contour>
        <pt x="423" y="443" on="1"/>
        <pt x="126" y="63" on="1"/>
        <pt x="382" y="63" on="1"/>
        <pt x="372" y="0" on="1"/>
        <pt x="18" y="0" on="1"/>
        <pt x="18" y="48" on="1"/>
        <pt x="313" y="427" on="1"/>
        <pt x="91" y="427" on="1"/>
        <pt x="100" y="490" on="1"/>
        <pt x="423" y="490" on="1"/>
      </contour>
    </TTGlyph>
    <TTGlyph name="zcaron" xMin="18" yMin="0" xMax="425" yMax="724">
      <component glyphName="caron" x="136" y="0" flags="0x4"/>
      <component glyphName="z" x="0" y="0" flags="0x4"/>
    </TTGlyph>
    <TTGlyph name="zero" xMin="25" yMin="-13" xMax="488" yMax="503">
      <contour>
        <pt x="488" y="284" on="1"/>
        <pt x="488" y="166" on="0"/>
        <pt x="344" y="-13" on="0"/>
        <pt x="227" y="-13" on="1"/>
        <pt x="132" y="-13" on="0"/>
        <pt x="25" y="111" on="0"/>
        <pt x="25" y="206" on="1"/>
        <pt x="25" y="325" on="0"/>
        <pt x="169" y="503" on="0"/>
        <pt x="286" y="503" on="1"/>
        <pt x="381" y="503" on="0"/>
        <pt x="488" y="379" on="0"/>
      </contour>
      <contour>
        <pt x="402" y="297" on="1"/>
        <pt x="402" y="441" on="0"/>
        <pt x="280" y="441" on="1"/>
        <pt x="233" y="441" on="0"/>
        <pt x="163" y="396" on="0"/>
        <pt x="127" y="321" on="0"/>
        <pt x="110" y="239" on="0"/>
        <pt x="110" y="194" on="1"/>
        <pt x="110" y="49" on="0"/>
        <pt x="233" y="49" on="1"/>
        <pt x="271" y="49" on="0"/>
        <pt x="332" y="79" on="0"/>
        <pt x="369" y="128" on="0"/>
        <pt x="393" y="194" on="0"/>
        <pt x="402" y="261" on="0"/>
      </contour>
    </TTGlyph>
</ttFont>
